<svg xmlns="http://www.w3.org/2000/svg" width="42.364" height="40.714" viewBox="0 0 42.364 40.714">
  <path id="Path_30" data-name="Path 30" d="M7.79,45.279c-1.958-3.453-.626-8.868,3.424-12.918,4.6-4.6,10.959-5.7,14.206-2.449l.012.013c-.65,1.891-2.72,5.913-8.922,8.088C10.828,40.006,8.636,43.176,7.79,45.279ZM23.508,35.217a17.155,17.155,0,0,1-6.579,3.99C10.868,41.332,9.175,44.812,8.7,46.5c.023.023.041.047.063.068,3.246,3.247,9.607,2.15,14.205-2.449,4.092-4.092,5.409-9.577,3.363-13.024A13.218,13.218,0,0,1,23.508,35.217ZM10.965,20.26c6.548.574,10.091-2.239,11.461-3.694,0-.006,0-.012-.006-.018-1.621-4.3-7.867-5.916-13.952-3.62C3.109,14.95-.336,19.335.025,23.288,1.663,21.72,4.966,19.735,10.965,20.26Zm3.372,8.224c5.415-2.043,8.873-6.5,8.429-10.482A13.218,13.218,0,0,1,18.494,20.6a17.161,17.161,0,0,1-7.638.924c-6.4-.561-9.376,1.913-10.5,3.255.011.03.019.059.03.087C2,29.158,8.252,30.78,14.337,28.484Zm18.951-8.957c3.929-5.271,3.4-9.763,2.877-11.694l-.017,0c-4.507-.877-9.167,3.587-10.411,9.971-1.095,5.624.828,10.857,4.381,12.627C29.645,28.209,29.691,24.356,33.288,19.526ZM37.566,8.3a13.207,13.207,0,0,1-.037,5A17.164,17.164,0,0,1,34.3,20.282c-3.838,5.15-3.3,8.982-2.747,10.645l.09.021c4.507.877,9.167-3.586,10.41-9.97C43.163,15.3,41.188,10.012,37.566,8.3Z" transform="translate(0 -7.718)" fill="#b1efb8"/>
</svg>
