<svg xmlns="http://www.w3.org/2000/svg" width="22.074" height="26.271" viewBox="0 0 22.074 26.271">
  <path id="Path_30" data-name="Path 30" d="M21.912,7.269a4.853,4.853,0,0,0-.943-.5,4.11,4.11,0,0,0,.246-2.349.383.383,0,0,0-.442-.306,3.838,3.838,0,0,0-2.244,1.254,1.41,1.41,0,0,0-.234.6,4.86,4.86,0,0,0-.9-.829.383.383,0,0,0-.528.1,4.69,4.69,0,0,0-.68,1.57.382.382,0,0,0-.482.124,4.69,4.69,0,0,0-.68,1.57.382.382,0,0,0-.482.124,4.691,4.691,0,0,0-.68,1.57.382.382,0,0,0-.482.124,4.69,4.69,0,0,0-.68,1.57.382.382,0,0,0-.482.124,3.867,3.867,0,0,0-.7,2.48.383.383,0,1,0,.754-.139,2.659,2.659,0,0,1,.368-1.548,2.64,2.64,0,0,1,.893,1.315.669.669,0,0,1-.127.518l-2.34,3.411a7,7,0,0,0-.666,1.214,10.736,10.736,0,0,0-.84-2.563L7.01,11.359c-.039-.082-.158-.324-.226-.487a.768.768,0,0,1-.064-.561A2.647,2.647,0,0,1,7.807,9.153a2.649,2.649,0,0,1,.12,1.587A.384.384,0,1,0,8.651,11a3.87,3.87,0,0,0-.307-2.56.383.383,0,0,0-.456-.2,4.7,4.7,0,0,0-.427-1.658A.383.383,0,0,0,7,6.382a4.7,4.7,0,0,0-.427-1.658.383.383,0,0,0-.456-.2,4.7,4.7,0,0,0-.427-1.658.383.383,0,0,0-.456-.2,4.7,4.7,0,0,0-.427-1.658.383.383,0,0,0-.506-.18,4.853,4.853,0,0,0-.9.573A4.08,4.08,0,0,0,1.5.021a.383.383,0,0,0-.484.232A3.871,3.871,0,0,0,.981,2.831a1.4,1.4,0,0,0,.4.5,4.838,4.838,0,0,0-1.169.373.385.385,0,0,0-.179.508A4.681,4.681,0,0,0,1.052,5.589a.385.385,0,0,0-.133.481A4.681,4.681,0,0,0,1.935,7.445a.385.385,0,0,0-.133.481A4.681,4.681,0,0,0,2.818,9.3a.385.385,0,0,0-.133.481A4.681,4.681,0,0,0,3.7,11.156a.386.386,0,0,0-.133.481,3.853,3.853,0,0,0,1.791,1.849,1.4,1.4,0,0,0,.468.081,1.413,1.413,0,0,0,1.12-.555L8.86,17.034a9.993,9.993,0,0,1,.963,4.221l.012,4.631a.383.383,0,1,0,.767,0V22a6.186,6.186,0,0,1,1.089-3.514L13.809,15.4a1.4,1.4,0,0,0,1.494.718,3.846,3.846,0,0,0,2.057-1.544.386.386,0,0,0-.057-.5,4.677,4.677,0,0,0,1.219-1.2.386.386,0,0,0-.057-.5,4.675,4.675,0,0,0,1.219-1.2.386.386,0,0,0-.057-.5,4.677,4.677,0,0,0,1.219-1.2A.386.386,0,0,0,20.79,9a4.676,4.676,0,0,0,1.219-1.2.385.385,0,0,0-.1-.53ZM6.04,5.442a2.89,2.89,0,0,1,.168,1.415,3.927,3.927,0,0,0-.653.6.639.639,0,0,1-.576-.366A.642.642,0,0,1,4.953,6.6,2.645,2.645,0,0,1,6.04,5.442ZM5.157,3.586A2.889,2.889,0,0,1,5.325,5a3.927,3.927,0,0,0-.653.6.634.634,0,0,1-.211-.037.645.645,0,0,1-.391-.821A2.646,2.646,0,0,1,5.157,3.586Zm-1.97-.7A2.645,2.645,0,0,1,4.274,1.731a2.889,2.889,0,0,1,.168,1.415,3.928,3.928,0,0,0-.653.6.639.639,0,0,1-.576-.366.641.641,0,0,1-.026-.492ZM1.627.908A2.768,2.768,0,0,1,2.842,1.967a2.309,2.309,0,0,0-.378.664,1.436,1.436,0,0,0-.057.215A.641.641,0,0,1,1.673,2.5,2.661,2.661,0,0,1,1.627.908Zm-.7,3.337a2.62,2.62,0,0,1,1.58-.121A.644.644,0,0,1,2.8,5.133a3.909,3.909,0,0,0-.876.133A2.871,2.871,0,0,1,.929,4.245ZM1.812,6.1a2.619,2.619,0,0,1,1.58-.121.644.644,0,0,1,.287,1.009,3.908,3.908,0,0,0-.875.133A2.872,2.872,0,0,1,1.812,6.1ZM2.7,7.956a2.62,2.62,0,0,1,1.58-.121.645.645,0,0,1,.391.821.638.638,0,0,1-.1.188,3.906,3.906,0,0,0-.875.133A2.871,2.871,0,0,1,2.7,7.956Zm.883,1.856a2.62,2.62,0,0,1,1.58-.121A.644.644,0,0,1,5.445,10.7a3.906,3.906,0,0,0-.875.133A2.871,2.871,0,0,1,3.578,9.812Zm2.854,2.556a.641.641,0,0,1-.818.392,2.646,2.646,0,0,1-1.153-1.092,2.62,2.62,0,0,1,1.581-.121A.645.645,0,0,1,6.432,12.368Zm.005-3.056a.634.634,0,0,1-.211-.037.645.645,0,0,1-.391-.821A2.647,2.647,0,0,1,6.924,7.3a2.936,2.936,0,0,1,.167,1.415A3.928,3.928,0,0,0,6.437,9.312Zm12.723-3.5a2.639,2.639,0,0,1,1.35-.833A2.739,2.739,0,0,1,20.2,6.561a2.289,2.289,0,0,0-.762,0,1.428,1.428,0,0,0-.215.058.646.646,0,0,1-.066-.811Zm-1.879.224a2.65,2.65,0,0,1,.893,1.314.644.644,0,0,1-.514.749.634.634,0,0,1-.214,0,3.933,3.933,0,0,0-.552-.7A2.883,2.883,0,0,1,17.282,6.034ZM16.12,7.728a2.65,2.65,0,0,1,.893,1.314.643.643,0,0,1-.514.749.632.632,0,0,1-.213,0c-.034-.057-.071-.113-.11-.17a4.115,4.115,0,0,0-.442-.526,2.885,2.885,0,0,1,.387-1.37ZM14.957,9.422a3.7,3.7,0,0,1,.59.644,1.745,1.745,0,0,1,.3.669.643.643,0,0,1-.514.749.632.632,0,0,1-.214,0,3.933,3.933,0,0,0-.552-.7,2.883,2.883,0,0,1,.387-1.37Zm-.783,3.756a.633.633,0,0,1-.214,0,3.933,3.933,0,0,0-.552-.7,2.885,2.885,0,0,1,.387-1.372,2.639,2.639,0,0,1,.892,1.315.643.643,0,0,1-.514.749Zm.99,2.183a.641.641,0,0,1-.747-.516.644.644,0,0,1,.514-.749,2.633,2.633,0,0,1,1.542.369A2.64,2.64,0,0,1,15.164,15.361ZM16.5,13.622a3.911,3.911,0,0,0-.844-.269.643.643,0,0,1,.441-.951,2.632,2.632,0,0,1,1.541.369,2.869,2.869,0,0,1-1.138.852Zm1.162-1.694a3.909,3.909,0,0,0-.844-.269.644.644,0,0,1,.441-.951,2.631,2.631,0,0,1,1.541.369A2.87,2.87,0,0,1,17.659,11.928Zm1.162-1.694a3.911,3.911,0,0,0-.844-.269.643.643,0,0,1,.441-.951,2.632,2.632,0,0,1,1.541.369A2.869,2.869,0,0,1,18.821,10.235Zm1.162-1.694a3.911,3.911,0,0,0-.844-.269.643.643,0,0,1,.441-.951,2.633,2.633,0,0,1,1.542.369A2.916,2.916,0,0,1,19.983,8.541Z" fill="#2d2d2d"/>
</svg>
