<svg xmlns="http://www.w3.org/2000/svg" width="668.2" height="496.199" viewBox="0 0 668.2 496.199">
  <g id="about-photo" transform="translate(-1141.3 -1181.5)">
    <path id="Subtraction_1" data-name="Subtraction 1" d="M342.934,295.754H323.282V16.948H0V0H342.934V295.753Z" transform="translate(1466.565 1181.5)" fill="#c1aabe"/>
    <path id="Subtraction_2" data-name="Subtraction 2" d="M342.934,295.754H0V0H19.652V278.805H342.934v16.948Z" transform="translate(1141.3 1381.946)" fill="#c1aabe"/>
    <g id="photo" transform="translate(-11892.904 -613)">
      <rect id="white-bg" width="589.14" height="422.972" transform="translate(13074 1831)" fill="#fff"/>
      <g id="about-photo-2" data-name="about-photo" transform="translate(13074 1831)">
        <rect id="Rectangle_21" data-name="Rectangle 21" width="42.09" height="15.675" transform="translate(359.072 26.705)" fill="#504f67" opacity="0.3"/>
        <rect id="Rectangle_22" data-name="Rectangle 22" width="42.09" height="15.675" transform="translate(429.028)" fill="#504f67" opacity="0.3"/>
        <rect id="Rectangle_23" data-name="Rectangle 23" width="42.09" height="15.675" transform="translate(431.931 48.476)" fill="#504f67" opacity="0.3"/>
        <rect id="Rectangle_24" data-name="Rectangle 24" width="42.09" height="15.675" transform="translate(297.244 66.473)" fill="#504f67" opacity="0.3"/>
        <rect id="Rectangle_25" data-name="Rectangle 25" width="42.09" height="15.675" transform="translate(283.891 130.913)" fill="#504f67" opacity="0.3"/>
        <rect id="Rectangle_26" data-name="Rectangle 26" width="42.09" height="15.675" transform="translate(347.461 129.462)" fill="#504f67" opacity="0.3"/>
        <path id="Path_33" data-name="Path 33" d="M798,14.856,770.13,41.3,800.9,63.431" transform="translate(-368.968 -7.117)" fill="none" stroke="#3f3d56" stroke-miterlimit="10" stroke-width="1"/>
        <line id="Line_8" data-name="Line 8" x1="40.783" y2="32.293" transform="translate(318.289 34.18)" fill="none" stroke="#3f3d56" stroke-miterlimit="10" stroke-width="1"/>
        <path id="Path_34" data-name="Path 34" d="M585.4,206.456,598.753,157.7l50.218,47.315" transform="translate(-280.465 -75.555)" fill="none" stroke="#3f3d56" stroke-miterlimit="10" stroke-width="1"/>
        <rect id="Rectangle_27" data-name="Rectangle 27" width="42.09" height="15.675" transform="translate(75.181 42.853)" fill="#504f67" opacity="0.3"/>
        <rect id="Rectangle_28" data-name="Rectangle 28" width="42.09" height="15.675" transform="translate(145.137 16.148)" fill="#504f67" opacity="0.3"/>
        <rect id="Rectangle_29" data-name="Rectangle 29" width="42.09" height="15.675" transform="translate(148.039 64.624)" fill="#504f67" opacity="0.3"/>
        <rect id="Rectangle_30" data-name="Rectangle 30" width="42.09" height="15.675" transform="translate(13.353 82.621)" fill="#504f67" opacity="0.3"/>
        <rect id="Rectangle_31" data-name="Rectangle 31" width="42.09" height="15.675" transform="translate(0 147.061)" fill="#504f67" opacity="0.3"/>
        <rect id="Rectangle_32" data-name="Rectangle 32" width="42.09" height="15.675" transform="translate(63.57 145.61)" fill="#504f67" opacity="0.3"/>
        <path id="Path_35" data-name="Path 35" d="M253,45.856,225.13,72.3,255.9,94.431" transform="translate(-107.859 -21.97)" fill="none" stroke="#3f3d56" stroke-miterlimit="10" stroke-width="1"/>
        <line id="Line_9" data-name="Line 9" x1="40.783" y2="32.293" transform="translate(34.397 50.328)" fill="none" stroke="#3f3d56" stroke-miterlimit="10" stroke-width="1"/>
        <path id="Path_36" data-name="Path 36" d="M40.4,237.456,53.753,188.7l50.218,47.315" transform="translate(-19.356 -90.407)" fill="none" stroke="#3f3d56" stroke-miterlimit="10" stroke-width="1"/>
        <line id="Line_10" data-name="Line 10" x2="47.732" transform="translate(190.129 72.461)" fill="none" stroke="#3f3d56" stroke-miterlimit="10" stroke-width="1"/>
        <rect id="Rectangle_33" data-name="Rectangle 33" width="49.486" height="15.627" transform="translate(216.435 64.439)" fill="#504f67"/>
        <line id="Line_11" data-name="Line 11" x2="31.26" transform="translate(265.984 72.252)" fill="none" stroke="#3f3d56" stroke-miterlimit="10" stroke-width="1"/>
        <line id="Line_12" data-name="Line 12" x1="28.972" y1="48.366" transform="translate(187.226 23.887)" fill="none" stroke="#3f3d56" stroke-miterlimit="10" stroke-width="1"/>
        <ellipse id="Ellipse_22" data-name="Ellipse 22" cx="229.197" cy="51.048" rx="229.197" ry="51.048" transform="translate(130.746 320.983)" fill="#f2f2f2"/>
        <path id="Path_37" data-name="Path 37" d="M868.071,391.611,845.721,503.59h-4.838l-.532-.827-1.541-2.4,19.354-104.606,2.938-1.23Z" transform="translate(-401.872 -187.62)" fill="#47465a"/>
        <path id="Path_38" data-name="Path 38" d="M861.1,397.21,840.35,505.445l-1.541-2.4L858.163,398.44Z" transform="translate(-401.872 -190.303)" opacity="0.1"/>
        <path id="Path_39" data-name="Path 39" d="M922.214,547.956l-5.746,1.852-1.4.452-1.844-4.147L881.6,401.858l3.288-.737,6.908-1.549Z" transform="translate(-422.375 -191.434)" fill="#47465a"/>
        <path id="Path_40" data-name="Path 40" d="M916.467,551.233l-1.4.452-1.844-4.147L881.6,403.282l3.288-.737Z" transform="translate(-422.375 -192.859)" opacity="0.1"/>
        <path id="Path_41" data-name="Path 41" d="M421.768,391.611,416.7,536.769l-5.809,1.29-.412.092-1.613-3,3.226-142.163,3.1-.442Z" transform="translate(-195.887 -187.62)" fill="#47465a"/>
        <path id="Path_42" data-name="Path 42" d="M415.194,393.415l-4.3,145.508-.412.092-1.613-3,3.226-142.163Z" transform="translate(-195.887 -188.485)" opacity="0.1"/>
        <path id="Path_43" data-name="Path 43" d="M456.826,590.481l-6.009,1.037-.673.115-1.843-3.917L419.039,398.089l.843-.256,4.456-1.357Z" transform="translate(-200.761 -189.951)" fill="#47465a"/>
        <path id="Path_44" data-name="Path 44" d="M450.817,592.766l-.673.115-1.843-3.917L419.039,399.337l.843-.256Z" transform="translate(-200.761 -191.199)" opacity="0.1"/>
        <path id="Path_45" data-name="Path 45" d="M770.246,405.744l22.373,28.588a7.255,7.255,0,0,0,6.557,2.734l91.844-10.757a7.255,7.255,0,0,0,6.411-7.206V397.91Z" transform="translate(-386.995 -213.504)" fill="#7a799c"/>
        <path id="Path_46" data-name="Path 46" d="M880.388,377.9h6.221v8.979a2.312,2.312,0,0,1-2.312,2.312h-1.6a2.312,2.312,0,0,1-2.312-2.312V377.9Z" transform="translate(-421.792 -181.05)" fill="#47465a"/>
        <path id="Path_47" data-name="Path 47" d="M453.539,440.687l22.373,28.588a7.255,7.255,0,0,0,6.557,2.734l91.844-10.757a7.255,7.255,0,0,0,6.411-7.206V432.853Z" transform="translate(-235.261 -230.245)" fill="#7a799c"/>
        <path id="Path_48" data-name="Path 48" d="M563.68,412.842H569.9v8.979a2.312,2.312,0,0,1-2.312,2.312h-1.6a2.312,2.312,0,0,1-2.312-2.312v-8.979Z" transform="translate(-270.058 -197.792)" fill="#47465a"/>
        <path id="Path_49" data-name="Path 49" d="M454.729,411.3,727.92,379.476a4.017,4.017,0,0,0,1.343-7.578L680.393,347.32a56.562,56.562,0,0,0-31.151-5.739L406.533,366.33a4.646,4.646,0,0,0-2.843,7.863l28.264,29a27.437,27.437,0,0,0,22.776,8.108Z" transform="translate(-210.746 -186.377)" fill="#47465a"/>
        <path id="Path_50" data-name="Path 50" d="M1076.587,404.832l-2.922-1.615s-3.155,2.322-5.725,12.106,4.8.106,4.8.106l3.226-6.682Z" transform="translate(-529.359 -216.047)" fill="#47465a"/>
        <path id="Path_51" data-name="Path 51" d="M915.846,553.7s-3,14.055-4.378,17.972c-.677,1.917-3.949,3.67-7.576,5.011a50.729,50.729,0,0,1-9.935,2.592c-3.917.461-54.146-7.373-78.57-12.672-16.454-3.569-18.58-7.664-18.216-9.954a3.323,3.323,0,0,1,.935-1.8s24.193-16.359,32.718-24.193,25.345-1.613,43.778,1.613S915.846,553.7,915.846,553.7Z" transform="translate(-399.877 -275.287)" fill="#47465a"/>
        <path id="Path_52" data-name="Path 52" d="M1038.094,403.217s11.29,7.373-26.728,22.58c0,0-20.664,11.651-17.974,59.645a13.161,13.161,0,0,0,1.913,6.1c3.922,6.451,12.328,22.783-1.681,24.81v3.687s25.345-12.673,28.11-23.5,11.981-70.966,16.59-76.5S1045.928,405.752,1038.094,403.217Z" transform="translate(-493.788 -216.047)" fill="#47465a"/>
        <path id="Path_53" data-name="Path 53" d="M903.89,604.076a50.727,50.727,0,0,1-9.935,2.592c-3.917.461-54.146-7.373-78.57-12.673-16.454-3.569-18.58-7.663-18.216-9.954,10.815,3.7,45.934,15.435,58.538,16.405,14.977,1.152,43.589,4.355,45.757,2.177C902.3,601.785,903.151,602.67,903.89,604.076Z" transform="translate(-399.876 -302.679)" opacity="0.1"/>
        <path id="Path_54" data-name="Path 54" d="M749.457,705.31l21.889-100s3.917-10.6,12.9-10.138l8.295,4.148s-13.825-3.226-16.82,7.373S753.6,705.31,753.6,705.31Z" transform="translate(-377.035 -308.006)" fill="#47465a"/>
        <path id="Path_55" data-name="Path 55" d="M815.808,618.984l8.755-61.058h3.917l-8.986,61.058Z" transform="translate(-390.852 -267.301)" fill="#47465a"/>
        <path id="Path_56" data-name="Path 56" d="M1003.691,720.948l-8.295-95.39s0-8.064,4.147-11.981,17.536-15.091,17.536-15.091,3.431-.808,6.2,7.026,21.889,86.173,21.889,86.173l-3.687,1.613-23.733-90.32-16.359,15.437s-3.226,5.76-1.613,11.06,7.6,91.472,7.6,91.472Z" transform="translate(-494.864 -309.588)" fill="#47465a"/>
        <path id="Path_57" data-name="Path 57" d="M927.717,579.158l20.737,5.99,4.608-4.378-11.981-1.613Z" transform="translate(-444.468 -277.474)" fill="#47465a"/>
        <path id="Path_58" data-name="Path 58" d="M608.3,290.382l3.362,50.436,73.5-7.143-2.925-49.3a4.959,4.959,0,0,0-5.366-4.648l-64.041,5.387a4.959,4.959,0,0,0-4.532,5.271Z" transform="translate(-309.403 -156.873)" fill="#7a799c"/>
        <path id="Path_59" data-name="Path 59" d="M679.058,353.41,605.788,361.4l-2.765.3-21.428-13.824v-3l72.809-6.557Z" transform="translate(-278.641 -162.092)" fill="#7a799c"/>
        <path id="Path_60" data-name="Path 60" d="M605.788,367.723l-2.765.3L581.595,354.2v-2.682Z" transform="translate(-278.641 -168.412)" opacity="0.1"/>
        <path id="Path_61" data-name="Path 61" d="M583.364,250.923l2.535,44.93,64.515-5.99-2.3-43.778Z" transform="translate(-279.489 -117.898)" fill="#9493b6"/>
        <path id="Path_62" data-name="Path 62" d="M657.233,363.606l7.834,5.3,23.732-2.3-8.065-5.069Z" transform="translate(-314.879 -173.209)" opacity="0.1"/>
        <path id="Path_63" data-name="Path 63" d="M595.749,347.618l9.908,7.373L669.02,349l-11.29-7.373Z" transform="translate(-285.422 -163.673)" fill="#9493b6"/>
        <rect id="Rectangle_34" data-name="Rectangle 34" width="46.773" height="46.773" transform="translate(422.766 115.859)" fill="#ff6584"/>
        <rect id="Rectangle_35" data-name="Rectangle 35" width="46.773" height="46.773" transform="translate(422.766 115.859)" opacity="0.1"/>
        <path id="Path_64" data-name="Path 64" d="M876.163,299.943s6.6,17.87,0,21.169,23.643,0,23.643,0l8.523-6.873s-19.245-5.5-16.5-18.145S876.163,299.943,876.163,299.943Z" transform="translate(-437.288 -162.438)" fill="#fbbebe"/>
        <path id="Path_65" data-name="Path 65" d="M876.163,299.943s6.6,17.87,0,21.169,23.643,0,23.643,0l8.523-6.873s-19.245-5.5-16.5-18.145S876.163,299.943,876.163,299.943Z" transform="translate(-437.288 -162.438)" opacity="0.1"/>
        <path id="Path_66" data-name="Path 66" d="M773.056,648.8s24.743,34.915,20.619,44.538-1.924,15.671-10.172,18.97-10.447,9.347-3.3,9.073,16.5-2.2,17.87-4.674,4.674-14.3,9.347-15.946,13.471-7.973,7.148-15.671-22.256-36.052-21.025-38.92S773.056,648.8,773.056,648.8Z" transform="translate(-388.341 -332.05)" fill="#fbbebe"/>
        <path id="Path_67" data-name="Path 67" d="M809.569,519.512s-51.136,3.3-64.332,15.671,11.547,58.559,14.3,59.109,24.193-1.649,23.369-7.7-15.4-30.791-15.4-30.791,18.97-6.873,29.417-8.523,21.994-9.347,21.994-9.347Z" transform="translate(-373.169 -271.763)" fill="#9493b6"/>
        <path id="Path_68" data-name="Path 68" d="M827.417,503.723s.825,30.516,8.523,31.616,0-23.368,0-23.368l-.275-9.347Z" transform="translate(-414.385 -263.672)" fill="#fbbebe"/>
        <path id="Path_69" data-name="Path 69" d="M848.763,350.452s-14.3-4.124-17.045,6.873-3.574,48.936-3.574,48.936L823.2,436.5s9.073-2.749,11-1.375l11.547-14.571Z" transform="translate(-412.363 -190.404)" fill="#504f67"/>
        <path id="Path_70" data-name="Path 70" d="M848.763,350.452s-14.3-4.124-17.045,6.873-3.574,48.936-3.574,48.936L823.2,436.5s9.073-2.749,11-1.375l11.547-14.571Z" transform="translate(-412.363 -190.404)" opacity="0.1"/>
        <path id="Path_71" data-name="Path 71" d="M899.252,663.225s9.608,18.888,15.381,18.613,11.272-3.849,14.021,7.423-.55,8.248,2.749,14.846,3.849,18.145-2.474,20.894-12.1,3.024-12.372,0,5.5-3.024-1.1-13.746-20.619-30.242-26.393-32.166S899.252,663.225,899.252,663.225Z" transform="translate(-443.318 -340.616)" fill="#fbbebe"/>
        <path id="Path_72" data-name="Path 72" d="M886.873,497.873s19.794,32.991,6.873,42.613-51.411,28.042-51.411,28.042,20.619,14.021,21.719,18.695-9.9,17.32-13.746,17.6-15.121-12.646-27.217-15.946-19.52-26.942-6.323-35.74,25.568-23.368,25.568-23.368L838.489,508.6Z" transform="translate(-405.935 -261.396)" fill="#9493b6"/>
        <path id="Path_73" data-name="Path 73" d="M883.6,267.366c0,11.691-11.976,21.356-23.668,21.356a21.169,21.169,0,1,1,0-42.338C871.625,246.384,883.6,255.674,883.6,267.366Z" transform="translate(-419.822 -140.908)" fill="#fbbebe"/>
        <path id="Path_74" data-name="Path 74" d="M865.631,336.557s18.97-8.248,18.97-9.347,11,2.474,13.471,4.674,3.849,1.924,5.5,6.323-8.248,45.362-8.248,45.362,5.5,31.616,8.523,34.64-24.468,7.423-24.468,7.423-18.145,3.3-21.169,4.674-8.523,3.3-7.423,0,5.773-5.773-2.2-9.9c0,0,2.749-13.471,0-19.52s-15.4-28.042-5.224-43.988,14.846-21.719,14.846-21.719S861.782,338.207,865.631,336.557Z" transform="translate(-420.158 -179.533)" fill="#504f67"/>
        <path id="Path_75" data-name="Path 75" d="M858.706,489.428s-21.444,9.511-27.9,10.391-25.98,5.829-15.258,10.228,26.942-2.2,26.942-2.2l22.819-9.622Z" transform="translate(-407.185 -257.35)" fill="#fbbebe"/>
        <path id="Path_76" data-name="Path 76" d="M916.717,343.261s7.919-3.83,10.118,9.641,9.9,56.084,0,62.408-32.716,16.5-32.716,16.5-13.471-9.072-7.148-12.372,21.444-12.647,23.643-15.946,4.422-40.123.573-46.172S916.717,343.261,916.717,343.261Z" transform="translate(-442.109 -187.081)" opacity="0.1"/>
        <path id="Path_77" data-name="Path 77" d="M918.5,337.424s11-.55,13.2,12.921,9.9,56.084,0,62.408-32.716,16.5-32.716,16.5-13.471-9.073-7.148-12.372,21.444-12.646,23.643-15.946-1.649-37.665-5.5-43.713S918.5,337.424,918.5,337.424Z" transform="translate(-444.44 -184.524)" fill="#504f67"/>
        <path id="Path_78" data-name="Path 78" d="M847.071,218.368c-3.375.459-7,1.694-8.694,4.647a39.283,39.283,0,0,0-1.74,4.679c-1.767,4.247-6.057,6.783-9.155,10.183-4.037,4.431-6.042,11.109-3.661,16.61.922,2.13,2.419,3.955,3.555,5.98,3.168,5.648,3.337,12.432,3.427,18.907l.177,12.732a18.3,18.3,0,0,1-.537,5.781,6.191,6.191,0,0,1-3.746,4.176A9.71,9.71,0,0,0,838,298.2a9.923,9.923,0,0,1-3.033,8.8c5.04-1.187,9.267-4.853,11.93-9.294a36.02,36.02,0,0,0,4.451-14.755,19.344,19.344,0,0,0-.465-8.139,25.484,25.484,0,0,0-2.666-5.121c-2.587-4.247-4.916-8.765-5.749-13.667s0-10.282,3.187-14.1a12.739,12.739,0,0,1,10.061-4.613,11.2,11.2,0,0,1,9.339,5.717c.735,1.384,1.782,3.261,3.272,2.774a8.091,8.091,0,0,0,.807-.4c1.662-.756,3.55.736,4.283,2.408,2.311,5.275-1.947,11.033-2.387,16.776-.409,5.342,2.569,10.38,6.129,14.383a47.255,47.255,0,0,0,23.1,14.194,6.485,6.485,0,0,1-3.351-2.082,44,44,0,0,0,10.812-.906,74.535,74.535,0,0,1-10.993-9.465,25,25,0,0,1-6.484-12.772c-.935-6.433,1.461-13.4-1.278-19.295-2.5-5.39-8.716-8.4-10.984-13.895-2.3-5.58-3.8-10.427-9.9-12.856C861.431,219.247,854.264,217.389,847.071,218.368Z" transform="translate(-412.173 -127.359)" fill="#ff6584"/>
      </g>
    </g>
  </g>
</svg>
