<svg xmlns="http://www.w3.org/2000/svg" width="704.063" height="421.285" viewBox="0 0 704.063 421.285">
  <g id="Group_20" data-name="Group 20" transform="translate(-1009 -1223)">
    <path id="Subtraction_1" data-name="Subtraction 1" d="M342.934,295.754H323.282V16.948H0V0H342.934V295.753Z" transform="translate(1369.628 1223.5)" fill="#c1aabe" stroke="#95989a" stroke-width="1"/>
    <path id="Subtraction_2" data-name="Subtraction 2" d="M342.934,295.754H0V0H19.652V278.805H342.934v16.948Z" transform="translate(1009.5 1348.032)" fill="#c1aabe" stroke="#95989a" stroke-width="1"/>
    <g id="Group_19" data-name="Group 19" transform="translate(-8056.033 -3720.2)">
      <rect id="Rectangle_47" data-name="Rectangle 47" width="629.096" height="350.292" transform="translate(9105 4977)" fill="#fff"/>
      <g id="contact-working" transform="translate(9105 4977)">
        <path id="Path_118" data-name="Path 118" d="M657.1,369.47A99.29,99.29,0,0,1,642.732,421.1c0,19.038-8.876,36.294-23.272,48.87a79.6,79.6,0,0,1-11.592,8.4c-.165.1-.335.2-.506.3-.308.181-.616.363-.929.55l-.292.17h0c-1.314.742-2.656,1.457-4.025,2.128a91.1,91.1,0,0,1-40.561,9.348H147.424q-4.949,0-9.81-.4a116.114,116.114,0,0,1-33.577-7.776q-3.146-1.243-6.17-2.673-1.441-.676-2.854-1.391c-.588-.3-1.177-.6-1.76-.913a104.76,104.76,0,0,1-10.261-6.236,101.133,101.133,0,0,1-8.689-6.665c-18.713-16.057-30.289-38.279-30.289-62.8A99.258,99.258,0,0,1,28,347.755c0-54.518,43.575-98.714,97.334-98.714,1.65,0,3.3.049,4.949.137a5.031,5.031,0,0,1,.7.033,167.7,167.7,0,0,1,35.744-42.134c39.725-34.039,97.785-55.5,162.46-55.5,54.342,0,104.015,15.15,142.064,40.182a95.783,95.783,0,0,1,47.265-12.4c53.748,0,97.334,44.2,97.334,98.714a101.667,101.667,0,0,1-.55,10.327A98.983,98.983,0,0,1,657.1,369.47Z" transform="translate(-28 -140.538)" fill="#504f67" opacity="0.1"/>
        <path id="Path_119" data-name="Path 119" d="M643.147,352.827v-5.9a21.474,21.474,0,1,0-16.156,0v5.9a30.245,30.245,0,0,0-14.045,8.54,30.289,30.289,0,0,0-17.091-12.384v-5.906a21.474,21.474,0,1,0-16.156,0v5.9a30.245,30.245,0,0,0-12.763,7.237,30.289,30.289,0,0,0-16.173-11.086v-5.9a21.474,21.474,0,1,0-16.156,0v5.9a30.245,30.245,0,0,0-14.3,8.832,30.294,30.294,0,0,0-20.11-18.18v-5.9a21.474,21.474,0,1,0-16.156,0v5.9a30.245,30.245,0,0,0-22,26.269,30.035,30.035,0,0,0-9.112-4.273v-5.9a21.474,21.474,0,1,0-16.156,0v5.9a30.344,30.344,0,0,0-19.06,15.782,30.014,30.014,0,0,0-8.249-3.684v-5.9a21.474,21.474,0,1,0-16.156,0v5.9a29.854,29.854,0,0,0-7.814,3.42,30.322,30.322,0,0,0-18.922-15.518v-5.9a21.474,21.474,0,1,0-16.156,0v5.9a30.3,30.3,0,0,0-19.725,17.245,30.246,30.246,0,0,0-10.311-5.147v-5.9a21.474,21.474,0,1,0-16.156,0v5.9a30.245,30.245,0,0,0-22.167,29.145V535.4h60.457V523.3h28.6v12.1H431.6V523.3h43.443v-22h37.394v9.348h45.093V514.5h47.292v3.849h60.49V381.972a30.245,30.245,0,0,0-22.166-29.145Z" transform="translate(-142.35 -202.168)" fill="#504f67" opacity="0.1"/>
        <path id="Path_120" data-name="Path 120" d="M414.139,169h50.278a93.64,93.64,0,0,1,93.644,93.644v126.87H320.5V262.639A93.639,93.639,0,0,1,414.139,169Z" transform="translate(-144.254 -76.065)" fill="#2f2e41"/>
        <path id="Path_121" data-name="Path 121" d="M424.139,178.28h39.28a93.64,93.64,0,0,1,93.644,93.644V388.582H330.5V271.918a93.639,93.639,0,0,1,93.639-93.639Z" transform="translate(-148.755 -80.242)" opacity="0.2"/>
        <path id="Path_122" data-name="Path 122" d="M647.114,699.393v9.6a91.1,91.1,0,0,1-40.561,9.349H192.433q-4.949,0-9.81-.4a116.114,116.114,0,0,1-33.577-7.776q-3.146-1.243-6.17-2.673-1.441-.676-2.854-1.391c-.588-.3-1.177-.6-1.76-.913A104.755,104.755,0,0,1,128,698.969V672.892A15.892,15.892,0,0,1,143.892,657h457.1a15.892,15.892,0,0,1,10.448,3.943l30.245,26.506A15.876,15.876,0,0,1,647.114,699.393Z" transform="translate(-73.009 -368.023)" fill="#2f2e41"/>
        <path id="Path_123" data-name="Path 123" d="M407.136,353.38q-17.988,1.188-35.838,3.849a33.94,33.94,0,0,0-9.9,2.563,29.035,29.035,0,0,0-6.566,4.707,86.545,86.545,0,0,0-20.9,28.337c-3.063,6.681-5.263,13.748-8.15,20.484-10.278,24.059-28.92,43.734-39.769,67.54a59.068,59.068,0,0,0-5.114,16.134c-.814,5.8.11,12.56,4.872,15.947a19.692,19.692,0,0,0,7.49,2.75A902.669,902.669,0,0,0,393.113,532c-3.635-3.508-4.85-8.947-4.372-13.973s2.453-9.777,4.4-14.435Q364.65,497.3,336.3,490.39c-2.821-.687-6.208-1.98-6.555-4.861a7.184,7.184,0,0,1,1.265-4.174,223.907,223.907,0,0,1,28.815-40.693c0,15.43-.764,32.857-.764,48.293H537.288a136.375,136.375,0,0,1-3.761-26.863c-.83-29.563,9.123-58.9,6.538-88.4-.242-2.722-.616-5.527-2.04-7.858-2.458-4.025-7.363-5.692-11.873-7.066-17.289-5.257-34.941-10.575-53.011-10.162-5.373.126-10.723.753-16.063,1.386C440.807,351.906,423.485,352.3,407.136,353.38Z" transform="translate(-141.711 -229.205)" fill="#504f67"/>
        <path id="Path_124" data-name="Path 124" d="M358.832,674.95l12.978,41.535a1.3,1.3,0,0,0,1.237.907h55.689L415.539,669l-55.574,4.273a1.3,1.3,0,0,0-1.133,1.677Z" transform="translate(-176.878 -373.424)" fill="#656478"/>
        <path id="Path_125" data-name="Path 125" d="M499.684,372.281a24.075,24.075,0,0,1-7.99,2.37l-17.746,3.079c-3.453.6-7.088,1.281-9.75,3.563-5.444,4.658-4.267,13.231-2.618,20.2l3.3,13.99C467.366,426,469.906,436.642,475,446.166c8.9,16.624,25.235,28.6,43.2,34.364,6.417,2.062,13.2,3.4,19.9,2.667,13.121-1.441,24.344-10.795,31.262-22.04s10.212-24.289,13.231-37.146c2.9-12.307,5.653-24.79,5.466-37.438-.055-3.937-.451-8.051-2.552-11.389-4.6-7.33-15.035-7.88-23.586-6.527a8.75,8.75,0,0,1-3.992.044c-3.849-1.2-3.937-6.483-5.587-10.151-3.118-6.918-12.367-8.144-19.929-7.517s-19.335,1.435-25.923,5.719C500.151,360.848,507.113,368,499.684,372.281Z" transform="translate(-222.53 -230.244)" fill="#fbbebe"/>
        <path id="Path_126" data-name="Path 126" d="M499.684,372.281a24.075,24.075,0,0,1-7.99,2.37l-17.746,3.079c-3.453.6-7.088,1.281-9.75,3.563-5.444,4.658-4.267,13.231-2.618,20.2l3.3,13.99C467.366,426,469.906,436.642,475,446.166c8.9,16.624,25.235,28.6,43.2,34.364,6.417,2.062,13.2,3.4,19.9,2.667,13.121-1.441,24.344-10.795,31.262-22.04s10.212-24.289,13.231-37.146c2.9-12.307,5.653-24.79,5.466-37.438-.055-3.937-.451-8.051-2.552-11.389-4.6-7.33-15.035-7.88-23.586-6.527a8.75,8.75,0,0,1-3.992.044c-3.849-1.2-3.937-6.483-5.587-10.151-3.118-6.918-12.367-8.144-19.929-7.517s-19.335,1.435-25.923,5.719C500.151,360.848,507.113,368,499.684,372.281Z" transform="translate(-222.53 -230.244)" opacity="0.1"/>
        <path id="Path_127" data-name="Path 127" d="M477.245,405c2.684,5.631,4.7,11.6,7.941,16.932a83.655,83.655,0,0,0,9.172,11.68c8.518,9.634,17.146,19.346,27.688,26.682a122.591,122.591,0,0,1,30.448-59.94c4.542-4.878,10.228-9.684,16.893-9.5,4.135.115,7.952,2.167,11.394,4.449a40.762,40.762,0,0,1,10.256,9.167c4.372,5.84,6.258,13.236,6.6,20.523s-.792,14.556-1.914,21.76l-5.774,37.234c-.335,2.156-.8,4.537-2.562,5.829a8.067,8.067,0,0,1-3.3,1.188c-20.99,4.086-42.623,1.435-64.009,1.226-23.646-.225-47.947,2.469-70.344-5.054a6.842,6.842,0,0,1-3.178-1.793,6.632,6.632,0,0,1-1.1-2.37c-5.219-16.893-1.034-35.046,2.062-52.45a411.53,411.53,0,0,0,5.23-41.672c.094-1.259,13.929,1.523,15.474,2.414C472.428,393.792,475.221,400.754,477.245,405Z" transform="translate(-214.779 -247.203)" fill="#504f67"/>
        <g id="Group_15" data-name="Group 15" transform="translate(59.373 147.236)" opacity="0.2">
          <path id="Path_128" data-name="Path 128" d="M186,661.829a6.547,6.547,0,0,1-.055.742q-3.146-1.243-6.17-2.673a5,5,0,0,1-2.854-1.391c-.588-.3-1.177-.6-1.76-.913a7.535,7.535,0,0,1,.445-.8,5.116,5.116,0,0,1,9.31.286A9.277,9.277,0,0,1,186,661.829Z" transform="translate(-153.608 -513.88)" fill="#3f3d56"/>
          <path id="Path_129" data-name="Path 129" d="M185.774,644.709a9.283,9.283,0,0,1-1.38,4.663,5.536,5.536,0,0,1-4.751,2.848l-.39-.027A5,5,0,0,1,176.4,650.8a6.892,6.892,0,0,1-1.314-1.716,9.651,9.651,0,0,1,.3-9.414,5.116,5.116,0,0,1,9.31.286A9.277,9.277,0,0,1,185.774,644.709Z" transform="translate(-153.087 -506.174)" fill="#3f3d56"/>
          <ellipse id="Ellipse_28" data-name="Ellipse 28" cx="7.704" cy="5.884" rx="7.704" ry="5.884" transform="translate(20.979 136.465) rotate(-88.19)" fill="#3f3d56"/>
          <ellipse id="Ellipse_29" data-name="Ellipse 29" cx="7.704" cy="5.884" rx="7.704" ry="5.884" transform="translate(21.279 127.051) rotate(-88.19)" fill="#3f3d56"/>
          <ellipse id="Ellipse_30" data-name="Ellipse 30" cx="7.704" cy="5.884" rx="7.704" ry="5.884" transform="translate(21.573 117.636) rotate(-88.19)" fill="#3f3d56"/>
          <path id="Path_130" data-name="Path 130" d="M143.686,444.231a27.31,27.31,0,0,1-2.09-3.3l15.54-2.051-16.75-.4a28.254,28.254,0,0,1,.17-22.348l22.062,12.34-20.209-15.859a28.2,28.2,0,1,1,45.554,32.995,28.111,28.111,0,0,1,3.052,5.241l-20.385,9.81,21.628-6.505a28.232,28.232,0,0,1-5.389,26.341,28.2,28.2,0,1,1-44.284-1.413A28.2,28.2,0,0,1,143.686,444.231Z" transform="translate(-135.97 -399.247)" fill="#504f67"/>
          <path id="Path_131" data-name="Path 131" d="M193.451,515.246a28.078,28.078,0,0,1-6.6,17.24,28.2,28.2,0,1,1-44.268-1.4C138.939,526.172,193.55,512.084,193.451,515.246Z" transform="translate(-135.968 -451.251)" opacity="0.1"/>
        </g>
        <circle id="Ellipse_31" data-name="Ellipse 31" cx="11.895" cy="11.895" r="11.895" transform="translate(25.51 65.742)" fill="#504f67" opacity="0.1"/>
        <circle id="Ellipse_32" data-name="Ellipse 32" cx="11.895" cy="11.895" r="11.895" transform="translate(75.085 0)" fill="#504f67" opacity="0.1"/>
        <circle id="Ellipse_33" data-name="Ellipse 33" cx="19.934" cy="19.934" r="19.934" transform="translate(63.014 37.124)" fill="#504f67" opacity="0.1"/>
        <circle id="Ellipse_34" data-name="Ellipse 34" cx="46.192" cy="46.192" r="46.192" transform="translate(252.408 55.816)" fill="#fbbebe"/>
        <path id="Path_132" data-name="Path 132" d="M487.076,149.607c-12.323,1.562-25.626,3.624-34.336,12.477-4.872,4.949-7.726,11.548-10.074,18.081-3.64,10.173-6.351,20.9-5.5,31.691.759,9.656,4.333,19.533,1.441,28.782-1.331,4.256-3.943,7.974-5.972,11.939-3.761,7.363-5.532,15.617-6.181,23.861-.451,5.67-.363,11.5,1.5,16.877,1.985,5.719,5.857,10.586,8.309,16.118,3.629,8.172,3.992,17.366,4.273,26.3s.517,17.812.726,26.715c.132,5.6.143,11.592-2.953,16.261,11.433-4.581,23.025-9.255,32.808-16.734s17.7-18.263,18.966-30.514c1.023-9.931-2.332-19.72-5.224-29.277-7.149-23.646-11.768-48.854-6.566-73,1.875-8.694,6.434-18.4,15.183-20,5.34-.973,10.668,1.463,15.48,3.981,11.372,5.95,23.1,13.649,27.33,25.763,3.849,10.954.61,23.157-4.4,33.616s-11.829,20.077-15.722,31.009c-5.977,16.772-4.295,36.409,5.637,51.186s28.282,23.866,45.928,21.479c-1.38-5.961-5.708-10.778-8.029-16.442-4.218-10.289-1.375-22.123,3.162-32.274s10.729-19.615,13.566-30.393c2-7.589,2.244-15.518,2.233-23.366,0-12.351-.61-24.707-1.8-37s-3-24.746-6.918-36.574c-3.146-9.486-7.726-18.658-14.578-25.934-7.292-7.748-16.783-13-26.1-18.147-5.576-3.068-11.273-6.175-17.531-7.325-4.949-.907-10.151-2.2-15.2-2.282C493.1,146.429,489.5,147.171,487.076,149.607Z" transform="translate(-207.238 -138.24)" fill="#434175"/>
        <rect id="Rectangle_45" data-name="Rectangle 45" width="33.462" height="77.944" rx="2.9" transform="matrix(0.982, 0.19, -0.19, 0.982, 335.493, 64.918)" fill="#656478"/>
        <rect id="Rectangle_46" data-name="Rectangle 46" width="33.462" height="77.944" rx="2.9" transform="matrix(0.982, 0.19, -0.19, 0.982, 337.739, 65.354)" fill="#3f3d56"/>
        <ellipse id="Ellipse_35" data-name="Ellipse 35" cx="5.527" cy="2.282" rx="5.527" ry="2.282" transform="matrix(0.19, -0.982, 0.982, 0.19, 347.623, 90.099)" fill="#504f67"/>
        <path id="Path_133" data-name="Path 133" d="M658.714,321.909c-1.452-2.568-3-5.224-5.45-6.868a19.245,19.245,0,0,0-4.5-2.018c-5.329-1.864-10.745-3.745-16.382-4.042a3.082,3.082,0,0,0-2.568.7c-1.232,1.446.72,3.415,2.409,4.289l13.429,6.956-12.379-1.309c-1.8-.192-4.361.3-4.229,2.1.088,1.182,1.386,1.826,2.508,2.2,7.946,2.75,17.13,4.905,21.479,12.1-5.8-.55-11.719-1.1-17.4.176a7.361,7.361,0,0,0-4.185,2.123c-1.017,1.226-1.133,3.3.149,4.273a4.316,4.316,0,0,0,2.849.55c4.031-.192,8.166-1,12.037.154s7.308,5.208,5.972,9.013a21.73,21.73,0,0,0,10.663-1.479c3.5-1.65,3.415-4.751,3.2-8.491C665.862,335.013,662.228,328.177,658.714,321.909Z" transform="translate(-298.523 -211.377)" fill="#fbbebe"/>
        <path id="Path_134" data-name="Path 134" d="M662.074,468.708a618.762,618.762,0,0,0-12.648-64.3c-2.75-11-5.873-22.183-5.087-33.5,11.361,1.446,21.54,2.519,32.01-2.123.17,5.945,4.482,11,6.049,16.745,1.05,3.849.654,7.924,1.067,11.889a72.881,72.881,0,0,0,2.711,11.664,143.1,143.1,0,0,1,3.646,58.7C680.105,468.939,671.768,470.21,662.074,468.708Z" transform="translate(-305.353 -238.302)" opacity="0.1"/>
        <path id="Path_135" data-name="Path 135" d="M659.074,468.708a618.779,618.779,0,0,0-12.648-64.3c-2.75-11-5.873-22.183-5.087-33.5,11.361,1.446,21.54,2.519,32.01-2.123.17,5.945,4.482,11,6.049,16.745,1.05,3.849.654,7.924,1.067,11.889a72.888,72.888,0,0,0,2.711,11.664,143.1,143.1,0,0,1,3.646,58.7C677.105,468.939,668.768,470.21,659.074,468.708Z" transform="translate(-304.003 -238.302)" fill="#504f67"/>
        <path id="Path_136" data-name="Path 136" d="M384.625,629.538l5.384-133.556a8.172,8.172,0,0,1,8.249-7.842l212.551,2.035a8.172,8.172,0,0,1,8.056,8.887L607.635,627.008a8.172,8.172,0,0,1-8,7.457l-206.7,3.574a8.177,8.177,0,0,1-8.309-8.5Z" transform="translate(-188.51 -292.02)" fill="#3f3d56"/>
        <ellipse id="Ellipse_36" data-name="Ellipse 36" cx="9.348" cy="10.998" rx="9.348" ry="10.998" transform="translate(305.475 245.809)" fill="#504f67"/>
        <path id="Path_137" data-name="Path 137" d="M922.776,584.76l-.44,3.772L915.187,649.5c-18.636,12.994-33.132.506-33.258,0l-9.008-61.249-.511-3.487Z" transform="translate(-408.061 -335.508)" fill="#3f3d56"/>
        <path id="Path_138" data-name="Path 138" d="M922.776,584.76l-.44,3.772c-21,12.208-43.393,2.706-49.415-.286l-.511-3.487Z" transform="translate(-408.061 -335.508)" opacity="0.1"/>
        <path id="Path_139" data-name="Path 139" d="M870.5,578.74v5.5s27.77,16.145,52.791,0v-5.5Z" transform="translate(-407.201 -332.799)" fill="#504f67"/>
        <path id="Path_140" data-name="Path 140" d="M873.728,565.53s-.808,3.712-3.228,4.036v4.68h52.791v-4.2a3.9,3.9,0,0,1-2.749-4.52Z" transform="translate(-407.201 -326.853)" fill="#504f67"/>
        <ellipse id="Ellipse_37" data-name="Ellipse 37" cx="23.811" cy="6.863" rx="23.811" ry="6.863" transform="translate(465.724 232.216)" fill="#504f67"/>
        <ellipse id="Ellipse_38" data-name="Ellipse 38" cx="23.811" cy="6.863" rx="23.811" ry="6.863" transform="translate(465.724 232.216)" opacity="0.1"/>
        <path id="Path_141" data-name="Path 141" d="M923.188,561.43c0,2.75-9.029,5-20.176,5h-.594c-7.484-.055-13.951-1.1-17.251-2.662-1.49-.7-2.337-1.5-2.337-2.343,0-1.4,2.31-2.662,6.049-3.569a62.4,62.4,0,0,1,14.149-1.435C914.158,556.426,923.188,558.664,923.188,561.43Z" transform="translate(-412.751 -322.753)" opacity="0.1"/>
        <path id="Path_142" data-name="Path 142" d="M904.331,567.6c-7.484-.055-13.951-1.1-17.251-2.662h0l3.7-5.934Z" transform="translate(-414.664 -323.914)" opacity="0.1"/>
        <path id="Path_143" data-name="Path 143" d="M879.51,566.216c-.286-.06-.665.039-.72.324a.7.7,0,0,0,.11.412,5.867,5.867,0,0,0,2.629,2.249,1.565,1.565,0,0,0,.6.192.55.55,0,0,0,.55-.286.622.622,0,0,0-.038-.511,2.271,2.271,0,0,0-.682-.748C881.22,567.272,880.466,566.376,879.51,566.216Z" transform="translate(-410.932 -327.154)" opacity="0.1"/>
        <circle id="Ellipse_39" data-name="Ellipse 39" cx="14.204" cy="14.204" r="14.204" transform="translate(476.133 269.433)" fill="#504f67"/>
        <path id="Path_144" data-name="Path 144" d="M177.078,515.85h6.659A13.748,13.748,0,0,1,197.485,529.6v20.429H163.33V529.6A13.748,13.748,0,0,1,177.078,515.85Z" transform="translate(-73.513 -232.179)" fill="#3f3d56"/>
        <path id="Path_145" data-name="Path 145" d="M177.078,515.85h6.659A13.748,13.748,0,0,1,197.485,529.6v20.429H163.33V529.6A13.748,13.748,0,0,1,177.078,515.85Z" transform="translate(-73.513 -232.179)" opacity="0.1"/>
        <circle id="Ellipse_40" data-name="Ellipse 40" cx="2.733" cy="2.733" r="2.733" transform="translate(102.795 285.722)" fill="#3f3d56"/>
        <circle id="Ellipse_41" data-name="Ellipse 41" cx="2.733" cy="2.733" r="2.733" transform="translate(102.795 282.307)" fill="#3f3d56"/>
        <circle id="Ellipse_42" data-name="Ellipse 42" cx="2.733" cy="2.733" r="2.733" transform="translate(102.795 278.886)" fill="#3f3d56"/>
        <circle id="Ellipse_43" data-name="Ellipse 43" cx="2.733" cy="2.733" r="2.733" transform="translate(102.795 275.471)" fill="#3f3d56"/>
        <circle id="Ellipse_44" data-name="Ellipse 44" cx="2.733" cy="2.733" r="2.733" transform="translate(102.795 272.057)" fill="#3f3d56"/>
        <circle id="Ellipse_45" data-name="Ellipse 45" cx="2.733" cy="2.733" r="2.733" transform="translate(102.795 268.642)" fill="#3f3d56"/>
        <circle id="Ellipse_46" data-name="Ellipse 46" cx="2.733" cy="2.733" r="2.733" transform="translate(102.795 265.227)" fill="#3f3d56"/>
        <circle id="Ellipse_47" data-name="Ellipse 47" cx="2.733" cy="2.733" r="2.733" transform="translate(106.897 266.59)" fill="#3f3d56"/>
        <circle id="Ellipse_48" data-name="Ellipse 48" cx="2.733" cy="2.733" r="2.733" transform="translate(109.63 265.227)" fill="#3f3d56"/>
        <circle id="Ellipse_49" data-name="Ellipse 49" cx="2.733" cy="2.733" r="2.733" transform="translate(112.363 263.857)" fill="#3f3d56"/>
        <circle id="Ellipse_50" data-name="Ellipse 50" cx="2.733" cy="2.733" r="2.733" transform="translate(102.795 261.812)" fill="#3f3d56"/>
        <circle id="Ellipse_51" data-name="Ellipse 51" cx="2.733" cy="2.733" r="2.733" transform="translate(102.795 258.397)" fill="#3f3d56"/>
        <circle id="Ellipse_52" data-name="Ellipse 52" cx="2.733" cy="2.733" r="2.733" transform="translate(102.795 254.976)" fill="#3f3d56"/>
        <circle id="Ellipse_53" data-name="Ellipse 53" cx="2.733" cy="2.733" r="2.733" transform="translate(102.795 251.561)" fill="#3f3d56"/>
        <path id="Path_146" data-name="Path 146" d="M221.723,570.013c-.676.1-1.358.17-2.04.214a15.707,15.707,0,0,0,1.765-1.815,11.668,11.668,0,0,0-1.65-3.206,5.62,5.62,0,0,1-2.2.693c-.676.1-1.358.17-2.04.22a34.065,34.065,0,0,0,2.612-2.75,11.6,11.6,0,1,0,3.635,6.6Z" transform="translate(-104.867 -324.528)" fill="#504f67"/>
        <path id="Path_147" data-name="Path 147" d="M248.2,601.5a5.324,5.324,0,0,1-2.3.764c-.676.1-1.358.176-2.04.22a20.019,20.019,0,0,0,2.024-2.1,6.841,6.841,0,1,0,2.315,1.1Z" transform="translate(-122.212 -342.442)" fill="#504f67"/>
        <circle id="Ellipse_54" data-name="Ellipse 54" cx="2.733" cy="2.733" r="2.733" transform="translate(98.698 266.59)" fill="#3f3d56"/>
        <circle id="Ellipse_55" data-name="Ellipse 55" cx="2.733" cy="2.733" r="2.733" transform="translate(95.965 265.227)" fill="#3f3d56"/>
        <circle id="Ellipse_56" data-name="Ellipse 56" cx="2.733" cy="2.733" r="2.733" transform="translate(93.232 263.857)" fill="#3f3d56"/>
        <path id="Path_148" data-name="Path 148" d="M180.408,601.5a5.3,5.3,0,0,0,2.3.764c.676.1,1.358.176,2.04.22a19.479,19.479,0,0,1-2.024-2.1,6.841,6.841,0,1,1-2.315,1.1Z" transform="translate(-95.337 -342.442)" fill="#504f67"/>
        <path id="Path_149" data-name="Path 149" d="M177.078,519.58h6.659a13.748,13.748,0,0,1,13.748,13.748V551.4a2.332,2.332,0,0,1-2.332,2.332H165.662a2.332,2.332,0,0,1-2.332-2.332V533.328a13.748,13.748,0,0,1,13.748-13.748Z" transform="translate(-73.513 -233.858)" fill="#3f3d56"/>
        <g id="Group_16" data-name="Group 16" transform="translate(94.079 236.002)" opacity="0.1">
          <path id="Path_150" data-name="Path 150" d="M240.16,579.27a10.353,10.353,0,0,1-.88.836,8.915,8.915,0,0,0,.935-.082A4.909,4.909,0,0,0,240.16,579.27Z" transform="translate(-217.174 -569.039)"/>
          <path id="Path_151" data-name="Path 151" d="M231.82,571.467c.687-.044,1.364-.116,2.046-.214a6.6,6.6,0,0,0,1.776-.484,11.7,11.7,0,0,0-.957-1.578,4.137,4.137,0,0,1-1.1.467,15.829,15.829,0,0,1-1.765,1.809Z" transform="translate(-213.816 -564.502)"/>
          <path id="Path_152" data-name="Path 152" d="M200.284,573.5a11.592,11.592,0,0,1,17.872-9.766l.176-.187a11.6,11.6,0,1,0-15.3,17.449A11.548,11.548,0,0,1,200.284,573.5Z" transform="translate(-199.08 -560.665)"/>
        </g>
        <g id="Group_17" data-name="Group 17" transform="translate(115.096 257.715)" opacity="0.1">
          <path id="Path_153" data-name="Path 153" d="M249.22,604.935c.682-.044,1.364-.115,2.04-.214a5.333,5.333,0,0,0,2.3-.77,6.836,6.836,0,0,1,2.75,4.839,6.258,6.258,0,0,0,.038-.72,6.808,6.808,0,0,0-2.75-5.5,5.324,5.324,0,0,1-2.3.764l-.55.072a13.96,13.96,0,0,1-1.529,1.529Z" transform="translate(-242.665 -601.239)"/>
          <path id="Path_154" data-name="Path 154" d="M244.13,601.514a5.614,5.614,0,0,1,.682.05c.357-.38.709-.786,1.067-1.182a6.819,6.819,0,0,0-8.579,6.6,4.684,4.684,0,0,0,.033.682A6.83,6.83,0,0,1,244.13,601.514Z" transform="translate(-237.3 -600.15)"/>
        </g>
        <g id="Group_18" data-name="Group 18" transform="translate(82.283 257.715)" opacity="0.1">
          <path id="Path_155" data-name="Path 155" d="M184.757,604.935c-.682-.044-1.364-.115-2.04-.214a5.306,5.306,0,0,1-2.3-.77,6.836,6.836,0,0,0-2.75,4.839,6.264,6.264,0,0,1-.038-.72,6.808,6.808,0,0,1,2.75-5.5,5.3,5.3,0,0,0,2.3.764l.55.072a13.02,13.02,0,0,0,1.529,1.529Z" transform="translate(-177.63 -601.239)"/>
          <path id="Path_156" data-name="Path 156" d="M188.659,601.514a5.679,5.679,0,0,0-.687.05c-.352-.38-.7-.786-1.061-1.182a6.819,6.819,0,0,1,8.579,6.6,4.682,4.682,0,0,1-.033.682A6.83,6.83,0,0,0,188.659,601.514Z" transform="translate(-181.807 -600.15)"/>
        </g>
      </g>
    </g>
  </g>
</svg>
