<svg xmlns="http://www.w3.org/2000/svg" width="646.063" height="469.285" viewBox="0 0 646.063 469.285">
  <g id="contact_photo" data-name="contact photo" transform="translate(-1067 -1223)">
    <path id="Subtraction_1" data-name="Subtraction 1" d="M342.934,295.754H323.282V16.948H0V0H342.934V295.753Z" transform="translate(1369.628 1223.5)" fill="#c1aabe" stroke="#95989a" stroke-width="1"/>
    <path id="Subtraction_2" data-name="Subtraction 2" d="M342.934,295.754H0V0H19.652V278.805H342.934v16.948Z" transform="translate(1067.5 1396.032)" fill="#c1aabe" stroke="#95989a" stroke-width="1"/>
    <g id="photo" transform="translate(-7629.041 -4427)">
      <rect id="white_bg" data-name="white bg" width="566.976" height="400.249" transform="translate(8737 5682)" fill="#fff"/>
      <g id="contact-location" transform="translate(8771.305 5703.44)">
        <path id="Path_79" data-name="Path 79" d="M339,142.715a117.5,117.5,0,0,0-141.191-15.9C243.063,143.015,293,143.61,339,142.715Z" transform="translate(-140.25 -98.262)" fill="#504f67" opacity="0.1"/>
        <path id="Path_80" data-name="Path 80" d="M932.788,635.624,883.37,550.03a1.572,1.572,0,0,0-2.73,0l-49.417,85.594a1.572,1.572,0,0,0,1.363,2.382h14.741a1.582,1.582,0,0,1,1.577,1.577V657.85a1.577,1.577,0,0,0,1.572,1.577h19.234a1.577,1.577,0,0,0,1.577-1.577v-8.829a1.572,1.572,0,0,1,1.572-1.572h18.286a1.577,1.577,0,0,1,1.577,1.572v8.829a1.577,1.577,0,0,0,1.577,1.577h19.23a1.577,1.577,0,0,0,1.577-1.577V639.564a1.577,1.577,0,0,1,1.577-1.577h14.741a1.577,1.577,0,0,0,1.363-2.363ZM863.874,645.1a1.572,1.572,0,0,1-1.115.476h-6.923a1.577,1.577,0,0,1,0-3.154h6.937a1.577,1.577,0,0,1,1.115,2.692Zm45.4,0a1.572,1.572,0,0,1-1.115.476h-6.918a1.577,1.577,0,1,1,0-3.154h6.947a1.577,1.577,0,0,1,1.115,2.692Z" transform="translate(-471.756 -328.085)" fill="#504f67" opacity="0.1"/>
        <path id="Path_81" data-name="Path 81" d="M299.343,637.209l-49.417-85.594a1.577,1.577,0,0,0-2.73,0L204.51,625.546a130.391,130.391,0,0,0,17.862,18.443h6.956a1.577,1.577,0,1,1,0,3.154h-2.935a76.366,76.366,0,0,0,11.435,7.113v-3.645a1.577,1.577,0,0,1,1.577-1.577h18.286a1.577,1.577,0,0,1,1.572,1.577v8.824a1.534,1.534,0,0,0,.148.662,1.577,1.577,0,0,0,1.429.915h19.234a1.544,1.544,0,0,0,1.253-.634,1.516,1.516,0,0,0,.319-.953V641.154a1.577,1.577,0,0,1,1.577-1.577h14.741a1.577,1.577,0,0,0,1.377-2.368Zm-32.661,7.242a1.572,1.572,0,0,1,1.115-.476h6.937a1.577,1.577,0,0,1,0,3.154h-6.942a1.577,1.577,0,0,1-1.115-2.692Zm-31.041-31.674a1.577,1.577,0,0,1-1.577-1.577V599.222a1.577,1.577,0,0,1,1.577-1.577h25.847a1.577,1.577,0,0,1,1.572,1.577V611.2a1.577,1.577,0,0,1-1.572,1.577Z" transform="translate(-143.758 -328.917)" fill="#504f67" opacity="0.1"/>
        <path id="Path_82" data-name="Path 82" d="M601.875,373.73H540.722V360.5a3.164,3.164,0,0,0-3.164-3.164H519.6V343.252a1.992,1.992,0,0,0-1.992-1.992H494.478a1.992,1.992,0,0,0-1.992,1.992v14.084H471.375a3.164,3.164,0,0,0-3.164,3.164v13.226H409.9a.643.643,0,0,0-.638.643V549.955a.643.643,0,0,0,.638.643h38.754a.643.643,0,0,0,.643-.643V526.332a.648.648,0,0,1,.643-.643H466.31a.648.648,0,0,1,.643.643v23.622a.643.643,0,0,0,.638.643h76.589a.648.648,0,0,0,.643-.643V526.332a.643.643,0,0,1,.638-.643h16.371a.643.643,0,0,1,.643.643v23.622a.648.648,0,0,0,.643.643h38.754a.648.648,0,0,0,.643-.643V374.373a.648.648,0,0,0-.643-.643ZM442.359,517.485a.638.638,0,0,1-.638.638H417.784a.639.639,0,0,1-.643-.638v-8.162a.643.643,0,0,1,.643-.643h23.937a.643.643,0,0,1,.638.643Zm0-21.126a.638.638,0,0,1-.638.643H417.784a.638.638,0,0,1-.643-.643v-8.171a.638.638,0,0,1,.643-.643h23.937a.638.638,0,0,1,.638.643Zm0-21.121a.643.643,0,0,1-.638.643H417.784a.643.643,0,0,1-.643-.643v-8.176a.643.643,0,0,1,.643-.643h23.937a.643.643,0,0,1,.638.643Zm0-21.126a.638.638,0,0,1-.638.643H417.784a.638.638,0,0,1-.643-.643v-8.157a.638.638,0,0,1,.643-.643h23.937a.638.638,0,0,1,.638.643Zm0-21.121a.643.643,0,0,1-.638.643H417.784a.643.643,0,0,1-.643-.643v-8.176a.638.638,0,0,1,.643-.638h23.937a.638.638,0,0,1,.638.638Zm0-21.121a.638.638,0,0,1-.638.638H417.784a.639.639,0,0,1-.643-.638v-8.176a.643.643,0,0,1,.643-.643h23.937a.643.643,0,0,1,.638.643Zm0-21.126a.638.638,0,0,1-.638.643H417.784a.638.638,0,0,1-.643-.643v-8.157a.638.638,0,0,1,.643-.643h23.937a.638.638,0,0,1,.638.643Zm56.75,126.736a.638.638,0,0,1-.643.638H474.529a.643.643,0,0,1-.643-.638v-8.157a.648.648,0,0,1,.643-.643h23.937a.643.643,0,0,1,.643.643Zm0-21.126a.639.639,0,0,1-.643.643H474.529a.643.643,0,0,1-.643-.643v-8.166a.643.643,0,0,1,.643-.643h23.937a.638.638,0,0,1,.643.643Zm0-21.121a.643.643,0,0,1-.643.643H474.529a.648.648,0,0,1-.643-.643v-8.171a.648.648,0,0,1,.643-.643h23.937a.643.643,0,0,1,.643.643Zm0-21.126a.638.638,0,0,1-.643.643H474.529a.643.643,0,0,1-.643-.643v-8.152a.643.643,0,0,1,.643-.643h23.937a.638.638,0,0,1,.643.643Zm0-21.121a.643.643,0,0,1-.643.643H474.529a.648.648,0,0,1-.643-.643v-8.171a.643.643,0,0,1,.643-.638h23.937a.639.639,0,0,1,.643.638Zm0-21.121a.638.638,0,0,1-.643.638H474.529a.643.643,0,0,1-.643-.638v-8.171a.648.648,0,0,1,.643-.643h23.937a.643.643,0,0,1,.643.643Zm0-21.126a.638.638,0,0,1-.643.643H474.529a.643.643,0,0,1-.643-.643v-8.152a.643.643,0,0,1,.643-.643h23.937a.638.638,0,0,1,.643.643Zm38.778,126.736a.639.639,0,0,1-.643.638H513.307a.643.643,0,0,1-.643-.638v-8.152a.648.648,0,0,1,.643-.643h23.937a.643.643,0,0,1,.643.643Zm0-21.126a.638.638,0,0,1-.643.643H513.307a.643.643,0,0,1-.643-.643v-8.161a.643.643,0,0,1,.643-.643h23.937a.638.638,0,0,1,.643.643Zm0-21.121a.643.643,0,0,1-.643.643H513.307a.648.648,0,0,1-.643-.643v-8.166a.648.648,0,0,1,.643-.643h23.937a.643.643,0,0,1,.643.643Zm0-21.126a.638.638,0,0,1-.643.643H513.307a.643.643,0,0,1-.643-.643v-8.147a.643.643,0,0,1,.643-.643h23.937a.638.638,0,0,1,.643.643Zm0-21.121a.643.643,0,0,1-.643.643H513.307a.648.648,0,0,1-.643-.643v-8.166a.643.643,0,0,1,.643-.638h23.937a.639.639,0,0,1,.643.638Zm0-21.121a.639.639,0,0,1-.643.638H513.307a.643.643,0,0,1-.643-.638v-8.166a.648.648,0,0,1,.643-.643h23.937a.643.643,0,0,1,.643.643Zm0-21.126a.638.638,0,0,1-.643.643H513.307a.643.643,0,0,1-.643-.643v-8.147a.643.643,0,0,1,.643-.643h23.937a.638.638,0,0,1,.643.643Zm56.75,126.736a.643.643,0,0,1-.643.638H570.057a.639.639,0,0,1-.643-.638v-8.147a.643.643,0,0,1,.643-.643H594a.648.648,0,0,1,.643.643Zm0-21.126a.643.643,0,0,1-.643.643H570.057a.638.638,0,0,1-.643-.643v-8.157a.638.638,0,0,1,.643-.643H594a.643.643,0,0,1,.643.643Zm0-21.121a.648.648,0,0,1-.643.643H570.057a.643.643,0,0,1-.643-.643v-8.161a.643.643,0,0,1,.643-.643H594a.648.648,0,0,1,.643.643Zm0-21.126a.643.643,0,0,1-.643.643H570.057a.638.638,0,0,1-.643-.643v-8.142a.638.638,0,0,1,.643-.643H594a.643.643,0,0,1,.643.643Zm0-21.121a.648.648,0,0,1-.643.643H570.057a.643.643,0,0,1-.643-.643v-8.161a.638.638,0,0,1,.643-.638H594a.643.643,0,0,1,.643.638Zm0-21.121a.643.643,0,0,1-.638.653H570.057a.638.638,0,0,1-.643-.638v-8.176a.643.643,0,0,1,.643-.643H594a.648.648,0,0,1,.643.643Zm0-21.126a.643.643,0,0,1-.643.643H570.057a.638.638,0,0,1-.643-.643v-8.142a.638.638,0,0,1,.643-.643H594a.643.643,0,0,1,.643.643Z" transform="translate(-250.955 -219.198)" fill="#504f67" opacity="0.1"/>
        <path id="Path_83" data-name="Path 83" d="M402.582,289.342a13.764,13.764,0,0,0-7.99.867,11.773,11.773,0,0,1-9.639-.024,13.445,13.445,0,0,0-11.282.224,7.027,7.027,0,0,1-3.249.81c-4.574,0-8.381-4.607-9.172-10.687a8.77,8.77,0,0,0,2.287-2.463c2.682-4.321,6.837-7.1,11.5-7.1s8.767,2.744,11.435,7.018a8.819,8.819,0,0,0,7.6,4.174h.119C397.87,282.162,401.024,285.082,402.582,289.342Z" transform="translate(-225.819 -182.398)" fill="#504f67" opacity="0.1"/>
        <path id="Path_84" data-name="Path 84" d="M416.489,251.606l-7.395,4.688,4.488-8.162a7.309,7.309,0,0,0-4.474-1.6h-.119a8.655,8.655,0,0,1-1.534-.114l-2.5,1.591,1.077-1.953a8.91,8.91,0,0,1-4.383-3.335l-4.488,2.859,2.825-5.165a13.13,13.13,0,0,0-10.048-5.079c-4.664,0-8.819,2.773-11.5,7.094a8.6,8.6,0,0,1-7.623,4.1h-.253c-5.15,0-9.324,5.836-9.324,13.04s4.174,13.04,9.324,13.04a6.96,6.96,0,0,0,3.249-.815,13.445,13.445,0,0,1,11.282-.219,11.773,11.773,0,0,0,9.6,0,13.441,13.441,0,0,1,11.187.214,6.98,6.98,0,0,0,3.211.8c5.15,0,9.324-5.841,9.324-13.04a16.561,16.561,0,0,0-1.925-7.947Z" transform="translate(-225.814 -163.744)" fill="#504f67" opacity="0.1"/>
        <path id="Path_85" data-name="Path 85" d="M877.242,477.885a9.677,9.677,0,0,0-5.594.605,8.228,8.228,0,0,1-6.718,0,9.415,9.415,0,0,0-7.9.157,4.9,4.9,0,0,1-2.273.567c-3.2,0-5.865-3.226-6.418-7.48a6.226,6.226,0,0,0,1.6-1.725c1.877-3.025,4.764-4.969,8.047-4.969s6.141,1.906,8.019,4.912a6.165,6.165,0,0,0,5.317,2.921h.086C873.935,472.863,876.141,474.907,877.242,477.885Z" transform="translate(-480.835 -284.003)" fill="#504f67" opacity="0.1"/>
        <path id="Path_86" data-name="Path 86" d="M886.95,451.477l-5.174,3.283,3.14-5.717a5.117,5.117,0,0,0-3.13-1.115H881.7a6.138,6.138,0,0,1-1.072-.081l-1.758,1.11.753-1.363a6.284,6.284,0,0,1-3.068-2.33l-3.149,1.982,1.982-3.607a9.147,9.147,0,0,0-7.032-3.559,9.622,9.622,0,0,0-8.052,4.969,6.013,6.013,0,0,1-5.322,2.859h-.157c-3.6,0-6.527,4.083-6.527,9.124s2.925,9.129,6.527,9.129a4.9,4.9,0,0,0,2.273-.567,9.4,9.4,0,0,1,7.9-.153,8.276,8.276,0,0,0,6.718,0,9.41,9.41,0,0,1,7.828.152,4.932,4.932,0,0,0,2.249.553c3.607,0,6.527-4.083,6.527-9.129A11.6,11.6,0,0,0,886.95,451.477Z" transform="translate(-480.814 -270.935)" fill="#504f67" opacity="0.1"/>
        <path id="Path_87" data-name="Path 87" d="M315.62,413.864a9.681,9.681,0,0,1,5.594.605,8.214,8.214,0,0,0,6.713,0,9.415,9.415,0,0,1,7.9.157,4.912,4.912,0,0,0,2.273.567c3.2,0,5.87-3.226,6.423-7.48a6.16,6.16,0,0,1-1.6-1.725A9.637,9.637,0,0,0,334.859,401c-3.273,0-6.137,1.906-8.014,4.912a6.194,6.194,0,0,1-5.327,2.93h-.081C318.9,408.842,316.692,410.886,315.62,413.864Z" transform="translate(-201.929 -250.475)" fill="#504f67" opacity="0.1"/>
        <path id="Path_88" data-name="Path 88" d="M293.637,387.471l5.174,3.268-3.145-5.717a5.127,5.127,0,0,1,3.13-1.115h.086a6.192,6.192,0,0,0,1.072-.081l1.753,1.11-.753-1.363a6.294,6.294,0,0,0,3.073-2.33l3.14,1.992-1.987-3.607a9.193,9.193,0,0,1,7.037-3.559,9.622,9.622,0,0,1,8.052,4.969,6.008,6.008,0,0,0,5.322,2.859h.172c3.607,0,6.527,4.083,6.527,9.124s-2.921,9.129-6.527,9.129a4.926,4.926,0,0,1-2.273-.567,9.4,9.4,0,0,0-7.9-.152,8.267,8.267,0,0,1-6.713,0,9.419,9.419,0,0,0-7.833.152,4.918,4.918,0,0,1-2.249.553c-3.6,0-6.527-4.083-6.527-9.129a11.6,11.6,0,0,1,1.367-5.536Z" transform="translate(-189.704 -237.423)" fill="#504f67" opacity="0.1"/>
        <path id="Path_89" data-name="Path 89" d="M295.68,784.821c6.451,4.1,15.747-.048,22.241,3.988,1.677,1.039,3.03,2.568,4.765,3.511a15.4,15.4,0,0,0,6.9,1.429c19.83.767,39.993-4.764,59.328-.3,5.408,1.248,10.7,3.278,16.237,3.573,9.572.519,18.744-4.15,28.325-4.407,14.532-.391,28.811,9.334,42.833,5.5,4.612-1.263,8.843-3.955,13.6-4.407,5.3-.476,10.4,1.834,15.556,3.183,18.281,4.764,37.32-2.954,56.221-3.531,12.326-.376,24.532,2.311,36.849,2.93,8.757.438,17.533-.176,26.281-.786,3.335-.234,6.828-.519,9.62-2.349s4.507-5.76,2.783-8.619Z" transform="translate(-191.49 -451.277)" fill="#3f3d56"/>
        <path id="Path_90" data-name="Path 90" d="M295.68,784.821c6.451,4.1,15.747-.048,22.241,3.988,1.677,1.039,3.03,2.568,4.765,3.511a15.4,15.4,0,0,0,6.9,1.429c19.83.767,39.993-4.764,59.328-.3,5.408,1.248,10.7,3.278,16.237,3.573,9.572.519,18.744-4.15,28.325-4.407,14.532-.391,28.811,9.334,42.833,5.5,4.612-1.263,8.843-3.955,13.6-4.407,5.3-.476,10.4,1.834,15.556,3.183,18.281,4.764,37.32-2.954,56.221-3.531,12.326-.376,24.532,2.311,36.849,2.93,8.757.438,17.533-.176,26.281-.786,3.335-.234,6.828-.519,9.62-2.349s4.507-5.76,2.783-8.619Z" transform="translate(-191.49 -451.277)" opacity="0.1"/>
        <path id="Path_91" data-name="Path 91" d="M295.68,779.821c6.451,4.1,15.747-.048,22.241,3.988,1.677,1.039,3.03,2.568,4.765,3.511a15.4,15.4,0,0,0,6.9,1.429c19.83.767,39.993-4.764,59.328-.3,5.408,1.248,10.7,3.278,16.237,3.573,9.572.519,18.744-4.15,28.325-4.407,14.532-.391,28.811,9.334,42.833,5.5,4.612-1.263,8.843-3.954,13.6-4.407,5.3-.477,10.4,1.834,15.556,3.183,18.281,4.765,37.32-2.954,56.221-3.53,12.326-.376,24.532,2.311,36.849,2.93,8.757.438,17.533-.176,26.281-.786,3.335-.233,6.828-.519,9.62-2.349s4.507-5.76,2.783-8.619Z" transform="translate(-191.49 -448.66)" fill="#3f3d56"/>
        <g id="Group_13" data-name="Group 13" transform="translate(15.421 99.182)" opacity="0.1">
          <path id="Path_92" data-name="Path 92" d="M183.146,633.339a11.649,11.649,0,0,1-1.539,5.9,12.073,12.073,0,0,1,0,11.8,10.84,10.84,0,0,1,1.163,2.859,216.361,216.361,0,0,1-14.336-21.44h0a11.435,11.435,0,0,1,1.506-5.031,11.649,11.649,0,0,1-1.539-5.9,12.129,12.129,0,0,1,.7-4.1,10.192,10.192,0,0,1,.843-1.8,6.41,6.41,0,0,1,11.668,0,10.618,10.618,0,0,1,.824,1.739,12.211,12.211,0,0,1,.715,4.159,11.649,11.649,0,0,1-1.539,5.9A11.649,11.649,0,0,1,183.146,633.339Z" transform="translate(-140.273 -460.058)" fill="#3f3d56"/>
          <ellipse id="Ellipse_23" data-name="Ellipse 23" cx="7.371" cy="9.653" rx="7.371" ry="9.653" transform="translate(28.126 140.039)" fill="#3f3d56"/>
          <ellipse id="Ellipse_24" data-name="Ellipse 24" cx="7.371" cy="9.653" rx="7.371" ry="9.653" transform="translate(28.126 128.242)" fill="#3f3d56"/>
          <path id="Path_93" data-name="Path 93" d="M180.026,372.216a35.153,35.153,0,0,1-7.561,21.836A35.319,35.319,0,0,1,151.5,450.544c-.848.171-1.71.3-2.582.41a35.683,35.683,0,0,1-8.1.043q-1.344-.143-2.654-.4a34.924,34.924,0,0,1-10.958-4.007,351.875,351.875,0,0,1-16.585-39.922,35.157,35.157,0,0,1,6.332-12.6,35.348,35.348,0,0,1-5.717-33.166l26.815,9L112.9,356.841a35.463,35.463,0,0,1,4.026-6.442,35.319,35.319,0,1,1,58.332-39.522l-25.924,19.058,28.111-14.579a35.362,35.362,0,0,1-.677,27.982l-20.964-.157,19.372,3.183a35.458,35.458,0,0,1-2.749,4.04A35.162,35.162,0,0,1,180.026,372.216Z" transform="translate(-109.367 -293.239)" fill="#504f67"/>
          <path id="Path_94" data-name="Path 94" d="M180.054,502.119a35.327,35.327,0,0,1-28.5,34.656c-.854.173-1.716.306-2.588.411a35.681,35.681,0,0,1-8.1.043q-1.344-.143-2.654-.4a34.924,34.924,0,0,1-10.958-4.007,351.869,351.869,0,0,1-16.609-39.941,35.157,35.157,0,0,1,6.332-12.6,35.176,35.176,0,0,1-7.561-21.855c0-3.964,67.808,15.828,63.072,21.836A35.152,35.152,0,0,1,180.054,502.119Z" transform="translate(-109.394 -379.451)" opacity="0.1"/>
        </g>
        <g id="Group_14" data-name="Group 14" transform="translate(450.399 137.094)" opacity="0.1">
          <path id="Path_95" data-name="Path 95" d="M1086.4,637.65c-1.382,4.412-2.859,8.791-4.374,13.069a12.214,12.214,0,0,1-.629-3.912C1081.4,642.553,1083.5,638.941,1086.4,637.65Z" transform="translate(-1053.252 -511.467)" fill="#3f3d56"/>
          <path id="Path_96" data-name="Path 96" d="M1070.29,422.971c0,8.362-1.687,21.574-4.765,36.687a402.886,402.886,0,0,1-10.077,39.336c-1.382,4.412-2.859,8.79-4.374,13.069-1.739,4.86-3.573,9.586-5.494,14.108a35.453,35.453,0,0,1-15.68-55.159,35.486,35.486,0,0,1-5.718-33.237L1051,446.793,1025.851,433.7a35.575,35.575,0,0,1,4.026-6.456,35.448,35.448,0,0,1,13.874-54.434,60.772,60.772,0,0,1,23.227,30.459l-4.645,3.459,4.984-2.587a60.473,60.473,0,0,1,2.9,15.871h-1.4l1.429.233C1070.29,421.146,1070.29,422.051,1070.29,422.971Z" transform="translate(-1022.321 -372.81)" fill="#504f67"/>
          <path id="Path_97" data-name="Path 97" d="M1065.6,542.956a402.914,402.914,0,0,1-10.077,39.336c-1.382,4.412-2.859,8.791-4.374,13.069-1.739,4.86-3.573,9.586-5.494,14.108a35.452,35.452,0,0,1-15.68-55.159,35.3,35.3,0,0,1-7.557-21.879C1022.42,530.049,1047.062,536.291,1065.6,542.956Z" transform="translate(-1022.373 -456.109)" opacity="0.1"/>
        </g>
        <path id="Path_98" data-name="Path 98" d="M575.3,301.987v-.224a60.47,60.47,0,0,0-2.9-15.871c-.1-.291-.191-.586-.291-.872a60.482,60.482,0,0,0-102.394-20.673,85.485,85.485,0,0,0-4.817-16.9,271.39,271.39,0,0,1-47.945,1.787,193.44,193.44,0,0,0,30.4,11.039l-.372,1.382A195.207,195.207,0,0,1,413,248.934l-3.292-1.6,3.65.238a271.478,271.478,0,0,0,50.98-1.463,85.962,85.962,0,0,0-15.018-23.861c-27.424-2.763-54.634-8.519-80.044-19.93l.586-1.3c24.732,11.116,51.237,16.828,77.995,19.639a85.647,85.647,0,0,0-136.136,14.47,117.631,117.631,0,0,0-29.178-66.179,274.73,274.73,0,0,1-45.153,13.679,273.077,273.077,0,0,1-70.581,5.617,193.44,193.44,0,0,0,30.4,11.039l-.372,1.382a195.207,195.207,0,0,1-33.971-12.721l-3.292-1.6,3.65.238a271.2,271.2,0,0,0,118.331-18.748q-2.12-2.32-4.364-4.536c-46.892.953-97.963.476-144.2-16.357A117.936,117.936,0,0,0,77,247.419c0,22.136,6.084,52.576,16.676,83.117a353.172,353.172,0,0,0,16.633,40.022c3.235,6.575,6.67,12.964,10.277,19.082h0a216.582,216.582,0,0,0,14.336,21.44q1.4,1.844,2.835,3.621a130.793,130.793,0,0,0,17.857,18.52h0q1.987,1.658,4,3.159a76.139,76.139,0,0,0,11.435,7.147,52.726,52.726,0,0,0,21.583,5.851c.591.024,1.186.038,1.777.038v.243H514.581v-.243h.238a16.2,16.2,0,0,0,5.412-.953c11.32-4.017,21.745-20.144,30.412-40.527,1.906-4.522,3.754-9.248,5.494-14.108,1.534-4.288,2.992-8.657,4.374-13.069a402.954,402.954,0,0,0,10.077-39.336c3.054-15.113,4.764-28.325,4.764-36.687C575.367,303.8,575.367,302.9,575.3,301.987Z" transform="translate(-77 -117.467)" fill="#504f67" opacity="0.1"/>
        <path id="Path_99" data-name="Path 99" d="M376.213,735.045l9.119-5.365a21.982,21.982,0,0,0-4.664-5.579l-17.2,5.351,13.484-7.923A21.917,21.917,0,0,0,344.5,740.753c0,12.1,9.81,12.521,21.917,12.521s21.917-.419,21.917-12.521a21.818,21.818,0,0,0-1.882-8.9Z" transform="translate(-217.05 -416.877)" fill="#504f67"/>
        <path id="Path_100" data-name="Path 100" d="M378.517,762.242a17.042,17.042,0,0,0-3.23-2.535,15.043,15.043,0,0,0-5.322-2.6,39.911,39.911,0,0,0-5.241-.153,12.225,12.225,0,0,1-8.009-3.669c-1.244-1.286-2.225-2.859-3.721-3.854a8.185,8.185,0,0,0-5.579-1.024,13.849,13.849,0,0,0-1.648.338,21.846,21.846,0,0,0-1.3,7.437c0,12.1,9.81,12.521,21.917,12.521,5.875,0,11.206-.1,15.142-1.582l-.657-1.229A17.342,17.342,0,0,0,378.517,762.242Z" transform="translate(-217.034 -432.31)" opacity="0.1"/>
        <circle id="Ellipse_25" data-name="Ellipse 25" cx="17.033" cy="17.033" r="17.033" transform="translate(243.747 71.477)" fill="#3f3d56"/>
        <path id="Path_101" data-name="Path 101" d="M573.424,536.923c1.758,12.335-.386,24.914-3.726,36.915a27.412,27.412,0,0,1-2.463,6.494,69.261,69.261,0,0,1-4.164,5.617c-2.859,3.935-4.536,8.576-6.1,13.169a371.473,371.473,0,0,0-10.873,38.745,2.654,2.654,0,0,0,0,1.653c.415.953,1.672,1.077,2.706,1.072l13.369-.072c.476-.915-.405-1.906-.953-2.782-1.906-2.964-.076-6.813,1.606-9.915A106.6,106.6,0,0,0,572.247,604a64.588,64.588,0,0,1,3.145-10.353c1.8-3.993,4.612-7.428,6.9-11.163a93.508,93.508,0,0,0,6.523-13.784c2.687-6.565,5.4-13.212,6.456-20.225,1-6.585.505-13.293-.143-19.92a1.258,1.258,0,0,0-1.458-1.429L575.73,526.2c-3.7-.191-4.574-1-4.012,2.63C572.109,531.539,573.034,534.179,573.424,536.923Z" transform="translate(-322.525 -315.912)" fill="#3f3d56"/>
        <path id="Path_102" data-name="Path 102" d="M573.424,536.923c1.758,12.335-.386,24.914-3.726,36.915a27.412,27.412,0,0,1-2.463,6.494,69.261,69.261,0,0,1-4.164,5.617c-2.859,3.935-4.536,8.576-6.1,13.169a371.473,371.473,0,0,0-10.873,38.745,2.654,2.654,0,0,0,0,1.653c.415.953,1.672,1.077,2.706,1.072l13.369-.072c.476-.915-.405-1.906-.953-2.782-1.906-2.964-.076-6.813,1.606-9.915A106.6,106.6,0,0,0,572.247,604a64.588,64.588,0,0,1,3.145-10.353c1.8-3.993,4.612-7.428,6.9-11.163a93.508,93.508,0,0,0,6.523-13.784c2.687-6.565,5.4-13.212,6.456-20.225,1-6.585.505-13.293-.143-19.92a1.258,1.258,0,0,0-1.458-1.429L575.73,526.2c-3.7-.191-4.574-1-4.012,2.63C572.109,531.539,573.034,534.179,573.424,536.923Z" transform="translate(-322.525 -315.912)" opacity="0.1"/>
        <path id="Path_103" data-name="Path 103" d="M603.875,484.531c-3.645,5.241-7.466,11.273-6.256,17.548.92,4.765,4.55,8.457,7.976,11.911,13.693,13.75,27.158,29.025,31.817,47.869,1.2,4.869,1.782,9.867,2.816,14.77,1.877,8.91,5.241,17.429,8.576,25.9l8.938,22.56a13.512,13.512,0,0,0,12.912-8.576,5.655,5.655,0,0,1-3.388-2.177c-3.812-5.274-4.593-12.059-5.57-18.491-1.082-7.109-2.525-14.16-3.974-21.207l-6.4-31.179c-.738-3.6-1.477-7.2-2.439-10.744-3.726-13.731-10.787-26.681-11.878-40.879-.162-2.087-.262-4.379-1.677-5.927-1.486-1.634-3.926-1.906-6.132-2.034C620.269,483.3,612.57,482.425,603.875,484.531Z" transform="translate(-349.45 -293.508)" fill="#3f3d56"/>
        <path id="Path_104" data-name="Path 104" d="M548.522,757.387a14.228,14.228,0,0,0-2.963-.381,6.156,6.156,0,0,0-4.841,2.644,12.03,12.03,0,0,0-1.3,2.859l-1.291,3.707c-.381,1.086-.753,2.339-.186,3.335a3.534,3.534,0,0,0,1.734,1.339c3.126,1.391,6.67,1.468,10.053,1.8,3.307.324,6.584.905,9.848,1.515,1.124.214,2.244.429,3.383.543a40.306,40.306,0,0,0,7.652-.229l2.625-.252a9.45,9.45,0,0,0,2.582-.477,3.255,3.255,0,0,0,1.906-1.71c.648-1.606-.743-3.507-2.444-3.84-.691-.133-1.429-.072-2.106-.162a9.95,9.95,0,0,1-2.306-.691,45.986,45.986,0,0,1-9.705-4.731c-.819-.576-1.677-1.382-1.587-2.382a4.86,4.86,0,0,1,.424-1.234,4.507,4.507,0,0,0,.038-3.187c-.162-.438-.476-.9-.92-.953-1.258-.152-1.105,1.682-1.291,2.382-.253.953-.71,1.039-1.606.953C553.649,758,551.076,757.873,548.522,757.387Z" transform="translate(-318.173 -435.755)" fill="#f2f2f2"/>
        <path id="Path_105" data-name="Path 105" d="M718.284,768.342a8.409,8.409,0,0,0,1.82,5.122,3.982,3.982,0,0,0,1.3,1.043,5.2,5.2,0,0,0,2.382.376,19.08,19.08,0,0,0,6.618-1.339,18.911,18.911,0,0,1,2.287-.862,25.651,25.651,0,0,1,2.973-.429c3.94-.567,7.4-2.892,11.206-4.069a23.557,23.557,0,0,0,3.335-1.1,15.285,15.285,0,0,0,3.921-3.064,7.036,7.036,0,0,0,2.573-6.489,1.234,1.234,0,0,0-.114-.672,1,1,0,0,0-.429-.338,6.219,6.219,0,0,0-3.812-.062,67.752,67.752,0,0,1-14.074.519,2.044,2.044,0,0,1-2.163-1.234l-1.787-2.859c-.51-.82-1.32-1.758-2.244-1.477a1.829,1.829,0,0,0-1.01,1.906,10.185,10.185,0,0,1,.119,2.306,3.149,3.149,0,0,1-1.525,1.982,9.737,9.737,0,0,1-2.382.915c-2.63.743-5.689,1.587-7.723,3.521C718.056,763.416,718.194,766.489,718.284,768.342Z" transform="translate(-412.718 -433.908)" fill="#f2f2f2"/>
        <path id="Path_106" data-name="Path 106" d="M696.213,367.5a11.038,11.038,0,0,0,2.6-2.83,11.535,11.535,0,0,0,1.11-3.912l.748-4.726c.414-2.606.9-5.365,2.64-7.352s5.2-2.7,6.97-.734a6.115,6.115,0,0,1,1.267,3.164,23.032,23.032,0,0,1-5.632,19.058c-2.139,2.344-4.765,4.207-7.028,6.423-1.973,1.906-3.683,4.093-5.5,6.165a75.956,75.956,0,0,1-14.994,13.1c.067-3.545.519-7.347,0-10.868-.386-2.544-1.429-3.916,1.034-5.579C685.145,375.519,690.915,372,696.213,367.5Z" transform="translate(-391.571 -222.088)" fill="#fbbebe"/>
        <path id="Path_107" data-name="Path 107" d="M611.9,308.892a8.716,8.716,0,0,1-3.335,6.589q8.9,3.116,17.567,6.87a6.086,6.086,0,0,1-1.506-4.259,21.5,21.5,0,0,1,3.288-11.482,2.788,2.788,0,0,0,.538-1.515c-.067-1.124-1.4-1.644-2.5-1.906a61.4,61.4,0,0,0-11.4-1.653c-1.644-.052-3.592-.572-3.221,1.52A23.007,23.007,0,0,1,611.9,308.892Z" transform="translate(-355.298 -198.351)" fill="#fbbebe"/>
        <circle id="Ellipse_26" data-name="Ellipse 26" cx="13.927" cy="13.927" r="13.927" transform="translate(254.153 84.046)" fill="#fbbebe"/>
        <path id="Path_108" data-name="Path 108" d="M631.233,345.282a16.847,16.847,0,0,0-1.768-2.963,61.641,61.641,0,0,0-8.357-10.248,52.022,52.022,0,0,0-7.933-5.827,18.007,18.007,0,0,0-4.965-2.382,19.429,19.429,0,0,0-3.187-.434l-3.616-.3a2.959,2.959,0,0,0-.953.029,2.053,2.053,0,0,0-1.22,2.454,6.038,6.038,0,0,0,1.61,2.535c.162,7.38-3.121,14.66-3.564,22.031-.777,12.888,7.09,24.875,7.719,37.773a4.073,4.073,0,0,1-.181,1.73c-.1.267-.262.51-.381.772a7.543,7.543,0,0,0-.424,2.62,13.312,13.312,0,0,1-3.921,8.4,5.827,5.827,0,0,0,2.211,1.687c1.52.662,3.335.719,4.95,1.182,4.212,1.229,8.529,2.468,12.907,2.206a11.387,11.387,0,0,0,1-3.75c.619-.386,1.334.438,1.429,1.163s-.043,1.568.477,2.092a1.961,1.961,0,0,0,1.81.362,80.032,80.032,0,0,0,7.861-1.844,14.663,14.663,0,0,1,7.971-.029,2.133,2.133,0,0,0-.124-2.335,10.426,10.426,0,0,1-1.253-2.139,4.8,4.8,0,0,1-.153-1.406c0-4.074.839-8.19.043-12.188-.233-1.172-.605-2.316-.843-3.492a30.124,30.124,0,0,1-.343-6.966c.062-2.33-.219-4.85-.267-7.213a23,23,0,0,0-.191-2.921c-.162-1.015-.476-2.006-.562-3.03-.257-2.6.791-5.184.634-7.795C637.384,351.09,632.776,348.936,631.233,345.282Z" transform="translate(-349.365 -209.694)" fill="#ff6f61"/>
        <path id="Path_109" data-name="Path 109" d="M581.974,365.6c-3.373,8.948-5.022,18.439-6.67,27.863L571.492,415.6c-1.082,6.256-2.168,12.55-2.125,18.9a20.231,20.231,0,0,1-.353,5.317c-.61,2.258-2.125,4.14-3.273,6.194a20.383,20.383,0,0,0-2.192,13.784c.391,1.977,1.458,4.221,3.464,4.45,1.649.181,3.073-1.129,4.036-2.482,2.211-3.1,3.307-6.847,4.288-10.534a238.28,238.28,0,0,0,6.608-36.73,35.765,35.765,0,0,1,.662-4.669,33.15,33.15,0,0,1,1.61-4.65q2.187-5.422,4.379-10.844c3.369-8.352,6.756-16.742,11.382-24.47-4.574-1.315-9.334-2.859-13.908-4.159A12.561,12.561,0,0,0,581.974,365.6Z" transform="translate(-331.537 -231.876)" fill="#fbbebe"/>
        <path id="Path_110" data-name="Path 110" d="M606.635,368.377c-3.2-.691-6.513-.476-9.781-.557a2.111,2.111,0,0,1-1.315-.343c-.662-.567-.381-1.629-.048-2.435l1.582-3.812a5.545,5.545,0,0,1,1.267-2.106,5.375,5.375,0,0,1,3.006-1.02,27.239,27.239,0,0,1,10.415.4,12.457,12.457,0,0,1,8.042,6.232,4.241,4.241,0,0,1,.086,4.169c-1.239,1.777-4.016,3.764-6.089,2.792C611.318,370.526,609.417,368.968,606.635,368.377Z" transform="translate(-348.27 -227.858)" fill="#ff6f61"/>
        <path id="Path_111" data-name="Path 111" d="M606.856,234.6a14.065,14.065,0,0,0-7.766,2.239,17.033,17.033,0,0,0-16.723-3.916,9.734,9.734,0,1,0-11.244,11.263,17.033,17.033,0,0,0,32.694,9.572,15.248,15.248,0,0,0,3.054.31c6.718,0,12.169-4.36,12.169-9.734S613.564,234.6,606.856,234.6Z" transform="translate(-331.468 -158.255)" fill="#3f3d56"/>
        <path id="Path_112" data-name="Path 112" d="M654.284,271.741a14.812,14.812,0,0,1-3.054-.31,16.948,16.948,0,0,1-2.23,4.9,15.3,15.3,0,0,0,2.859.276c6.28,0,11.435-3.812,12.1-8.69A13.422,13.422,0,0,1,654.284,271.741Z" transform="translate(-376.47 -180.801)" opacity="0.1"/>
        <path id="Path_113" data-name="Path 113" d="M589.818,264.8a17.057,17.057,0,0,1-16.285-22.05,9.734,9.734,0,0,1-8.047-9.586,9.57,9.57,0,0,1,.157-1.744,9.734,9.734,0,0,0,5.46,16.2,17.033,17.033,0,1,0,32.537,10.091A17,17,0,0,1,589.818,264.8Z" transform="translate(-331.473 -161.692)" opacity="0.1"/>
        <rect id="Rectangle_37" data-name="Rectangle 37" width="0.319" height="2.64" rx="0.16" transform="matrix(0.814, 0.581, -0.581, 0.814, 320.312, 131.51)" fill="#3a3768"/>
        <rect id="Rectangle_38" data-name="Rectangle 38" width="0.181" height="0.867" rx="0.091" transform="matrix(0.814, 0.581, -0.581, 0.814, 312.853, 123.644)" fill="#3a3768"/>
        <rect id="Rectangle_39" data-name="Rectangle 39" width="0.2" height="1.51" rx="0.1" transform="matrix(0.814, 0.581, -0.581, 0.814, 311.918, 124.941)" fill="#3a3768"/>
        <rect id="Rectangle_40" data-name="Rectangle 40" width="0.191" height="1.525" rx="0.095" transform="matrix(0.814, 0.581, -0.581, 0.814, 310.741, 126.605)" fill="#3a3768"/>
        <rect id="Rectangle_41" data-name="Rectangle 41" width="10.711" height="21.769" rx="2.52" transform="matrix(0.814, 0.581, -0.581, 0.814, 315.046, 122.258)" fill="#3a3768"/>
        <rect id="Rectangle_42" data-name="Rectangle 42" width="10.711" height="21.769" rx="2.52" transform="matrix(0.814, 0.581, -0.581, 0.814, 315.046, 122.258)" opacity="0.1"/>
        <rect id="Rectangle_43" data-name="Rectangle 43" width="10.711" height="21.769" rx="2.52" transform="matrix(0.814, 0.581, -0.581, 0.814, 314.604, 121.369)" fill="#3a3768"/>
        <path id="Path_114" data-name="Path 114" d="M731.855,346.918l-1-.715-.086.119a.7.7,0,0,1-.953.167l-3.183-2.273a.7.7,0,0,1-.162-.977l.086-.119-.953-.667a.848.848,0,0,0-1.186.2l-11,15.413a.853.853,0,0,0,.2,1.186l6.261,4.464a.848.848,0,0,0,1.186-.2l11-15.408a.848.848,0,0,0-.21-1.186Z" transform="translate(-410.118 -219.739)" fill="#504f67"/>
        <rect id="Rectangle_44" data-name="Rectangle 44" width="1.496" height="0.305" rx="0.152" transform="matrix(0.814, 0.581, -0.581, 0.814, 317.742, 124.413)" fill="#e6e8ec"/>
        <circle id="Ellipse_27" data-name="Ellipse 27" cx="0.172" cy="0.172" r="0.172" transform="translate(319.002 125.478)" fill="#e6e8ec"/>
        <path id="Path_115" data-name="Path 115" d="M711.922,99A31.922,31.922,0,0,0,680,130.922c0,17.629,33.447,76.013,33.447,76.013s30.4-58.36,30.4-76.013A31.922,31.922,0,0,0,711.922,99Zm0,53.21a6.928,6.928,0,1,1,0,.014Z" transform="translate(-392.701 -92.363)" fill="#504f67"/>
        <path id="Path_116" data-name="Path 116" d="M711.922,99A31.922,31.922,0,0,0,680,130.922c0,17.629,33.447,76.013,33.447,76.013s30.4-58.36,30.4-76.013A31.922,31.922,0,0,0,711.922,99Zm0,53.21a6.928,6.928,0,1,1,0,.014Z" transform="translate(-392.701 -92.363)" opacity="0.1"/>
        <path id="Path_117" data-name="Path 117" d="M711.922,85.07A31.922,31.922,0,0,0,680,116.992c0,17.629,33.447,82.664,33.447,82.664s30.4-65.026,30.4-82.659A31.923,31.923,0,0,0,711.917,85.07Zm0,53.21a16.723,16.723,0,1,1,16.723-16.723,16.723,16.723,0,0,1-16.723,16.723Z" transform="translate(-392.701 -85.07)" fill="#504f67"/>
      </g>
    </g>
  </g>
</svg>
