<svg xmlns="http://www.w3.org/2000/svg" width="619.5" height="620.5" viewBox="0 0 619.5 620.5">
  <g id="illustartion" transform="translate(-138 -293.5)">
    <path id="background" d="M599.5,592.842H.5V17.449h270v278.8h329Zm20-296.594h-20V17.449h-329V.5h349V296.247Z" transform="translate(138 293)" fill="#c1aabe"/>
    <g id="photo" transform="translate(-492 262)">
      <rect id="Rectangle_20" data-name="Rectangle 20" width="575" height="580" transform="translate(630 72)" fill="#fff"/>
      <g id="header-photo" transform="translate(651 87.5)">
        <path id="Path_6" data-name="Path 6" d="M749.9,256.8q9.611,5.073,18.79,10.383" transform="translate(-387.762 -113.902)" fill="none" stroke="#2f2e41" stroke-miterlimit="10" stroke-width="1"/>
        <path id="Path_7" data-name="Path 7" d="M562.441,223.849c27.948,6.043,58.461,16.476,89.2,31.2a426.648,426.648,0,0,1,63.672,37.369" transform="translate(-319.538 -101.911)" fill="none" stroke="#2f2e41" stroke-miterlimit="10" stroke-width="1"/>
        <line id="Line_7" data-name="Line 7" x2="286.569" transform="translate(149.876 529.75)" fill="none" stroke="#3f3d56" stroke-miterlimit="10" stroke-width="1"/>
        <path id="Path_8" data-name="Path 8" d="M521.327,216.817c8.4,1.033,17.142,2.525,26.151,4.473" transform="translate(-304.575 -99.352)" fill="none" stroke="#2f2e41" stroke-miterlimit="10" stroke-width="1"/>
        <path id="Path_9" data-name="Path 9" d="M382.645,303.474c-15.516-22.707-20.846-44.16-12.874-60.8,8.817-18.408,32.42-27.825,64.413-28.518" transform="translate(-248.082 -98.382)" fill="none" stroke="#2f2e41" stroke-miterlimit="10" stroke-width="1"/>
        <path id="Path_10" data-name="Path 10" d="M887.847,434.318c12.933,20.819,16.945,40.338,9.569,55.738-6.491,13.552-21,22.231-40.963,26.143" transform="translate(-426.54 -178.509)" fill="none" stroke="#2f2e41" stroke-miterlimit="10" stroke-width="1"/>
        <path id="Path_11" data-name="Path 11" d="M802.78,331.65a316.826,316.826,0,0,1,36.649,30.376" transform="translate(-407.006 -141.144)" fill="none" stroke="#2f2e41" stroke-miterlimit="10" stroke-width="1"/>
        <path id="Path_12" data-name="Path 12" d="M378.605,170.292c25.755-5.533,59.084-4.55,96.359,2.8" transform="translate(-252.634 -81.133)" fill="none" stroke="#2f2e41" stroke-miterlimit="10" stroke-width="1"/>
        <path id="Path_13" data-name="Path 13" d="M967.943,434.314c11.53,16.843,18.622,33.142,20.475,47.985" transform="translate(-467.115 -178.507)" fill="none" stroke="#2f2e41" stroke-miterlimit="10" stroke-width="1"/>
        <path id="Path_14" data-name="Path 14" d="M779.444,273.12q17.348,10.03,33.011,20.748" transform="translate(-398.513 -119.843)" fill="none" stroke="#2f2e41" stroke-miterlimit="10" stroke-width="1"/>
        <path id="Path_15" data-name="Path 15" d="M796.953,663.141a15.947,15.947,0,0,0-13.746,9.611c-3.437,8.308.988,18.068,7.632,24.126s15.177,9.521,22.931,14.073c10.415,6.114,19.773,14.6,24.984,25.5s5.765,24.389-.36,34.8c-5.685,9.66-16.023,15.442-25.883,20.774" transform="translate(-399.448 -261.786)" fill="none" stroke="#3f3d56" stroke-miterlimit="10" stroke-width="1"/>
        <ellipse id="Ellipse_8" data-name="Ellipse 8" cx="12.143" cy="5.898" rx="12.143" ry="5.898" transform="translate(394.118 396.181)" fill="#57b894"/>
        <ellipse id="Ellipse_9" data-name="Ellipse 9" cx="12.143" cy="5.898" rx="12.143" ry="5.898" transform="translate(403.832 435.038)" fill="#57b894"/>
        <ellipse id="Ellipse_10" data-name="Ellipse 10" cx="12.143" cy="5.898" rx="12.143" ry="5.898" transform="translate(381.628 441.282)" fill="#57b894"/>
        <ellipse id="Ellipse_11" data-name="Ellipse 11" cx="12.143" cy="5.898" rx="12.143" ry="5.898" transform="translate(416.322 473.894)" fill="#57b894"/>
        <ellipse id="Ellipse_12" data-name="Ellipse 12" cx="12.143" cy="5.898" rx="12.143" ry="5.898" transform="translate(440.607 473.894)" fill="#57b894"/>
        <path id="Path_16" data-name="Path 16" d="M696.892,303.075h6.841s6.271,48.454,1.71,53.014-17.1,7.411-18.812,0,0-34.773,0-34.773Z" transform="translate(-364.459 -130.744)" fill="#504f67"/>
        <ellipse id="Ellipse_13" data-name="Ellipse 13" cx="41.614" cy="48.739" rx="41.614" ry="48.739" transform="translate(246.071 81.408)" fill="#2f2e41"/>
        <path id="Path_17" data-name="Path 17" d="M614.417,247.832s2.28,18.812-4.56,22.8,7.981,26.792,7.981,26.792l17.672,4.56,11.971-16.531-2.28-17.1s-13.681-13.681-7.411-26.222Z" transform="translate(-336.138 -108.565)" fill="#ffc1c7"/>
        <path id="Path_18" data-name="Path 18" d="M614.417,247.832s2.28,18.812-4.56,22.8,7.981,26.792,7.981,26.792l17.672,4.56,11.971-16.531-2.28-17.1s-13.681-13.681-7.411-26.222Z" transform="translate(-336.138 -108.565)" opacity="0.1"/>
        <path id="Path_19" data-name="Path 19" d="M575.989,568.548s-6.841,62.135,0,76.957,25.082,56.435,25.082,56.435l-5.7,11.971,15.391-3.42,6.271-11.971s-7.411-29.072-8.551-39.333-9.691-29.072-9.691-29.072l15.961-67.835Z" transform="translate(-323.362 -225.078)" fill="#ffc1c7"/>
        <path id="Path_20" data-name="Path 20" d="M662.869,551.241s.57,62.705,4.56,72.432l-2.28,84.937,12.541,1.674s18.241-71.256,15.391-88.357.57-78.666.57-78.666Z" transform="translate(-356.087 -218.157)" fill="#ffc1c7"/>
        <ellipse id="Ellipse_14" data-name="Ellipse 14" cx="21.662" cy="21.662" rx="21.662" ry="21.662" transform="translate(266.023 103.64)" fill="#ffc1c7"/>
        <path id="Path_21" data-name="Path 21" d="M681.465,463.837s-15.391,10.261-21.662,2.85-83.227,4.56-92.918,2.28,5.13-38.763,5.13-57.575c0-14.074,5.108-35.485,7.679-45.381.867-3.329,1.442-5.353,1.442-5.353s5.849-16.64,4.754-23.554a5.949,5.949,0,0,0-.428-1.522,3.125,3.125,0,0,0-.336-.576c-2.731-3.643-10.557-30.207-13.6-41.613a51.509,51.509,0,0,1-1.226-5.13c0-1.71,21.092-6.841,26.365-7.086s6.7,7.086,6.7,7.086c1.71,1.14,9.691,21.092,9.691,21.092l7.411-18.812s-.57-3.99-1.14-3.99,8.431-5.381,8.431-5.381,9.24,6.521,14.371,5.381,17.1,9.121,17.1,9.121-21.092,53.014-12.541,64.415S681.465,463.837,681.465,463.837Z" transform="translate(-319.959 -122.773)" fill="#504f67"/>
        <path id="Path_22" data-name="Path 22" d="M613.444,772.868s-9.691,9.691-9.691,10.831l-7.981-3.42s-3.42,12.541-3.99,14.251-10.261,17.1-19.952,23.942,0,15.391,8.551,13.681,30.213-21.092,30.213-21.092,14.821,0,19.952-11.4C630.545,799.66,616.864,771.728,613.444,772.868Z" transform="translate(-321.484 -301.707)" fill="#2f2e41"/>
        <path id="Path_23" data-name="Path 23" d="M674.522,795.9s-14.644-10.64-15.588-.76-.944,31.542-.944,31.542-4.56,14.251,9.691,12.541,15.391-5.7,15.391-5.7l-6.841-27.362V794.187Z" transform="translate(-354.059 -308.295)" fill="#2f2e41"/>
        <path id="Path_24" data-name="Path 24" d="M589.666,342c-2.731-3.643-10.557-30.207-13.6-41.613h2.765S585.778,327.56,590,342.576A3.122,3.122,0,0,0,589.666,342Z" transform="translate(-324.498 -129.766)" opacity="0.1"/>
        <path id="Path_25" data-name="Path 25" d="M631.96,404.633s-7.981.57-37.053-5.13a58.1,58.1,0,0,1-6-1.488c.866-3.329,1.442-5.353,1.442-5.353s5.849-16.64,4.754-23.554c1.362,4.788,2.377,8.021,2.656,8.163,1.14.57,37.623,6.841,42.754,9.121S631.96,404.633,631.96,404.633Z" transform="translate(-329.169 -154.776)" opacity="0.1"/>
        <path id="Path_26" data-name="Path 26" d="M672.727,307.26s15.723-1.94,16.7.609,4.964,27.188,6.675,30.346,2.28,22.743-4.56,23.375-15.961-6.317-14.251-12S672.727,307.26,672.727,307.26Z" transform="translate(-359.675 -132.01)" opacity="0.1"/>
        <path id="Path_27" data-name="Path 27" d="M657.244,389.015s23.942,2.85,27.932,0,20.522-2.85,17.1,5.13-33.063,8.551-33.063,8.551h-17.1Z" transform="translate(-352.173 -161.39)" fill="#ffc1c7"/>
        <path id="Path_28" data-name="Path 28" d="M574.109,294.112h-3.99s-7.981,1.71-6.841,26.792-6.841,41.613,22.232,47.314,37.053,5.13,37.053,5.13,13.681-15.961,8.551-18.242-41.614-8.551-42.754-9.121S574.109,294.112,574.109,294.112Z" transform="translate(-319.772 -127.482)" fill="#504f67"/>
        <path id="Path_29" data-name="Path 29" d="M680.76,290.361s-9.989-37.474-17.969-37.474-17.1,1.71-10.261,9.121,15.391,15.391,15.961,19.382a53.71,53.71,0,0,0,2.85,9.691Z" transform="translate(-351.449 -112.479)" fill="#ffc1c7"/>
        <path id="Path_30" data-name="Path 30" d="M676.312,307.26s15.723-1.94,16.7.609,4.964,27.188,6.675,30.346,2.28,22.743-4.56,23.375-15.961-6.317-14.251-12S676.312,307.26,676.312,307.26Z" transform="translate(-360.98 -132.01)" fill="#504f67"/>
        <ellipse id="Ellipse_15" data-name="Ellipse 15" cx="20.522" cy="20.522" rx="20.522" ry="20.522" transform="translate(261.463 84.258)" fill="#2f2e41"/>
        <path id="Path_31" data-name="Path 31" d="M636.229,502.719c-31.846-5.249-67.874-16.658-104.217-34.066-41.38-19.821-76.445-44.2-101.43-68.833" transform="translate(-271.55 -165.953)" fill="none" stroke="#2f2e41" stroke-miterlimit="10" stroke-width="1"/>
        <path id="Path_32" data-name="Path 32" d="M507.107,497.282a515.272,515.272,0,0,1-76.526-48.256" transform="translate(-271.549 -183.861)" fill="none" stroke="#2f2e41" stroke-miterlimit="10" stroke-width="1"/>
        <ellipse id="Ellipse_16" data-name="Ellipse 16" cx="34.157" cy="34.157" rx="34.157" ry="34.157" transform="translate(0 14.416)" fill="#504f67"/>
        <ellipse id="Ellipse_17" data-name="Ellipse 17" cx="34.157" cy="34.157" rx="34.157" ry="34.157" transform="translate(8.012 0.5)" fill="none" stroke="#2f2e41" stroke-miterlimit="10" stroke-width="1"/>
        <ellipse id="Ellipse_18" data-name="Ellipse 18" cx="19.873" cy="19.873" rx="19.873" ry="19.873" transform="translate(489.178 152.074)" fill="#f2f2f2"/>
        <ellipse id="Ellipse_19" data-name="Ellipse 19" cx="19.873" cy="19.873" rx="19.873" ry="19.873" transform="translate(493.84 143.977)" fill="none" stroke="#2f2e41" stroke-miterlimit="10" stroke-width="1"/>
        <ellipse id="Ellipse_20" data-name="Ellipse 20" cx="28.567" cy="28.567" rx="28.567" ry="28.567" transform="translate(117.958 350.535)" fill="#f2f2f2"/>
        <ellipse id="Ellipse_21" data-name="Ellipse 21" cx="28.567" cy="28.567" rx="28.567" ry="28.567" transform="translate(124.659 338.897)" fill="none" stroke="#2f2e41" stroke-miterlimit="10" stroke-width="1"/>
      </g>
    </g>
  </g>
</svg>
