<svg xmlns="http://www.w3.org/2000/svg" viewBox="0 0 274.49 123.69"><defs><style>.cls-1{fill:none;}.cls-2{fill:#f7e9e9;fill-rule:evenodd;}</style></defs><title>Asset 4</title><g id="Layer_2" data-name="Layer 2"><g id="Layer_1-2" data-name="Layer 1"><rect class="cls-1" width="274.49" height="123.69"/><path class="cls-2" d="M4.06,69.2c.24.93.48,1,.74.36C4.55,69.56,4.32,68.36,4.06,69.2Z"/><path class="cls-2" d="M4.76,66.76c.26-.25.48,1.16.74.36C5.26,66.77,5,65.53,4.76,66.76Z"/><path class="cls-2" d="M6.68,71.63c.25.64.27-.2.66-.41-.12-.67-.26-.54-.4-.83C6.78,70.79,6.86,71.23,6.68,71.63Z"/><path class="cls-2" d="M13.94,94.63l.31,1.06c.18-.9.34-.24.51-.94C14.5,93.75,14.23,93.7,13.94,94.63Z"/><path class="cls-2" d="M6.16,67.22c-.13.73.41,1.63.57.85,0-1-.19-.34-.39-1.34C6.31,67.11,6.28,67.49,6.16,67.22Z"/><path class="cls-2" d="M15.08,95.31c.32,0,.32.9.48,1.6a6.42,6.42,0,0,0-.13-2.57C15.32,94.66,15.2,95,15.08,95.31Z"/><path class="cls-2" d="M11,74.57c-.11.9.47,1.33.66.1C11.48,73.47,11.23,75.53,11,74.57Z"/><path class="cls-2" d="M18.19,97.81c.13.11.37-.27.25.3.15.61.34-.74.51-1a3.6,3.6,0,0,0,.72,1.89c0-2,.58-1.8,1-2.39-.25-.1-.5.19-.73-.87,0,1.4-.16.8-.52,1.45a4.29,4.29,0,0,0-.15-1q-.35.87-.66-.09A4.93,4.93,0,0,0,18.19,97.81Z"/><path class="cls-2" d="M12.08,75.49l.32,1.07c0-.38.11-1.08.26-.73C12.79,75.12,12.25,74.43,12.08,75.49Z"/><path class="cls-2" d="M13.19,68.52c.24.34.49.1.75-.65C13.69,67.64,13.22,67.24,13.19,68.52Z"/><path class="cls-2" d="M25.05,104.45c.23.81.65.63.67-.42C25.5,104.08,25.28,103.85,25.05,104.45Z"/><path class="cls-2" d="M15.66,69.4c.27.17.53,1.5.83.12C16.22,69.15,16,68.77,15.66,69.4Z"/><path class="cls-2" d="M24.08,87.22c.35.51.32-.65.76-1.16a.84.84,0,0,1-.32-.56C24.37,87.17,24,85.75,24.08,87.22Z"/><path class="cls-2" d="M18.53,66.26c.11-.81-.48-.91-.63-2.13C17.63,65.23,18.29,65.75,18.53,66.26Z"/><path class="cls-2" d="M21.39,68.47c.28-.06.55.43.84-.38-.33-.44-.66-.46-1-1.17C21,67.38,21.68,68,21.39,68.47Z"/><path class="cls-2" d="M30.37,98.35c-.13,1.56.48.35.65.61C31.14,97.7,30.54,98.57,30.37,98.35Z"/><path class="cls-2" d="M31,93.1c-.18-1-.4.51-.57-.85a4.67,4.67,0,0,0,0,2C30.68,93.05,31,94.37,31,93.1Z"/><path class="cls-2" d="M35.59,108.57c.29.64.59,1.16.91.38C36.2,108.75,35.9,108.24,35.59,108.57Z"/><path class="cls-2" d="M19.55,53.67c.15.95.33.35.48,1.09a2.71,2.71,0,0,0-.13-2.06C19.79,53,19.67,53.35,19.55,53.67Z"/><path class="cls-2" d="M21.69,60.36c.2,1.11.42.85.64,1.11C22.44,60.71,21.88,59.2,21.69,60.36Z"/><path class="cls-2" d="M21.28,54.69c0,.27.11.16.16,0,.64,1.38,1.33.21,2,1.31.38-.79.16-1.68.37-2.49-.36-.81-.31.82-.59.67-.3-.7-.08-1.28-.39-1.33,0,1.39-.5.94-.77,1.67-.18-1-.38-.73-.56-1.36C21.09,53.64,21.66,54.24,21.28,54.69Z"/><path class="cls-2" d="M35,95.73c-.17-.34.32-.88.42-.71.19-1.3-.32.17-.4-.82-.34.55-.14,1.17-.28,1.75a4.8,4.8,0,0,0,.65,1.12C35.6,96.28,35.19,95.74,35,95.73Z"/><path class="cls-2" d="M15.85,31c.27.6.53,1.82.82.63C16.4,31.26,16.14,30.38,15.85,31Z"/><path class="cls-2" d="M15.8,29.15c-.14.88.41,1,.57.34C16.2,28.07,16,29.57,15.8,29.15Z"/><path class="cls-2" d="M16.92,31.36a10.34,10.34,0,0,0,.28-1.74c-.14-.27-.28,0-.41-.32A5.37,5.37,0,0,0,16.92,31.36Z"/><path class="cls-2" d="M36,95.37c0,1.57.65.58.88,1.4C37.1,95.12,36.26,95.26,36,95.37Z"/><path class="cls-2" d="M14.13,14.38c.24.33.62-.34,1.1-1.62C14.86,13.24,14.51,13.05,14.13,14.38Z"/><path class="cls-2" d="M39.08,97.36c0-.83-.39-2-.64-1.12C38.42,97,38.82,98.51,39.08,97.36Z"/><path class="cls-2" d="M21.85,39.49c.26,1,1.2.33.76-1.17C22.34,39.67,22.11,39,21.85,39.49Z"/><path class="cls-2" d="M27.38,56.62c0,1.38.8,1.49,1.16.18a1.38,1.38,0,0,1,0-1C28.18,54.52,27.75,57.45,27.38,56.62Z"/><path class="cls-2" d="M18.46,23.18c.31,1.28.64,1.29,1,.66C19.11,24.07,18.81,22.29,18.46,23.18Z"/><path class="cls-2" d="M40.64,98.36c.12.09.25.19.16.53.54-1.07,1,.61,1.58-.52C41.6,98.41,41.27,95.41,40.64,98.36Z"/><path class="cls-2" d="M25.47,41.05c.18,1.14.39-.34.59-.68a.84.84,0,0,1-.32-.56A3.89,3.89,0,0,1,25.47,41.05Z"/><path class="cls-2" d="M42.55,98.39c-.21.9.25.34.31,1.07-.14-1.59.29-.07.6-1.19-.17-1.37-.4,1-.57-.35C42.77,98.3,42.65,98.66,42.55,98.39Z"/><path class="cls-2" d="M43.53,99.05c.53.48.61,2.49,1.06,1.43-.5-.93.16-1.68-.3-2.59C44.26,99.67,43.8,98.15,43.53,99.05Z"/><path class="cls-2" d="M25.89,30.15c.38.34.94-.36.61-1.69C26.17,29.21,26.05,29,25.89,30.15Z"/><path class="cls-2" d="M46.34,99.47c.31,1.2.66.27,1,.66a2.77,2.77,0,0,1-.28,1.74c.57.77.57-1.78,1.35-1.33-.15-1.12-.18-.63-.48-1.6-.37.91.13.32.23,1.31C47.54,100.26,47,98.56,46.34,99.47Z"/><path class="cls-2" d="M38.46,63.12c.35.79.78-.26.93-1.14C39,61.79,38.62,61.75,38.46,63.12Z"/><path class="cls-2" d="M33.37,44.26c.31.13.1.37.32,1.07a9.46,9.46,0,0,0,.11-1.77C33.67,43.28,33.52,44,33.37,44.26Z"/><path class="cls-2" d="M40.93,48.45c.36.28.71.48,1.09-.6C41.67,48.27,41,47.15,40.93,48.45Z"/><path class="cls-2" d="M36.19,17.92c.19.7.38.45.57.85.29-.46-.43-1.08-.14-1.54C36.48,16.94,36.34,17.61,36.19,17.92Z"/><path class="cls-2" d="M32.11,3.55c.32.68.66.15,1-.87C32.8,2.89,32.19,2.47,32.11,3.55Z"/><path class="cls-2" d="M49.41,57.36c.1.36.21.72.31,1.07,0-.38.06-.76.18-.48C50.06,57.19,49.54,56.47,49.41,57.36Z"/><path class="cls-2" d="M38.26,12.63c.35.88.72-.05,1.06,1.43a6.35,6.35,0,0,0,0-1.79c.23-.45.57.53.59-.68-.19-.41-.4.73-.58-.34C39.11,13,38.66,11.51,38.26,12.63Z"/><path class="cls-2" d="M51.07,51.75c.14,0,.27.58.41.32.27-.67,0-1.81-.22-1.83C50.88,50.7,51.45,51.29,51.07,51.75Z"/><path class="cls-2" d="M43.08,12.32c0,1.28,1.09,1.79,1.15.18C43.84,12.64,43.45,13.31,43.08,12.32Z"/><path class="cls-2" d="M42.47,3.32c.27.82.55.62.84-.39C43,3.12,42.76,2.63,42.47,3.32Z"/><path class="cls-2" d="M47.14,17c.28.24.54,1,.83.13C47.7,16.77,47.43,16.38,47.14,17Z"/><path class="cls-2" d="M50.09,19.49c.18.47.39-.14.57.34a3.09,3.09,0,0,0-.22-1.31C50.32,18.85,50.2,19.17,50.09,19.49Z"/><path class="cls-2" d="M51.34,18.91c.21.95.44.06.65.61C52.1,19,51.53,17.7,51.34,18.91Z"/><path class="cls-2" d="M62.86,55.8a.69.69,0,0,0,0-.51c.12-.24.22.29.33.56.2-.27.13-1.78.43-1.21.3-.88-.44-.36-.15-1A1.83,1.83,0,0,0,62.86,55.8Z"/><path class="cls-2" d="M63.79,54.16c.11.54.22.31.34.05a1.92,1.92,0,0,1,.14,1c.14.29.29-.39.43-.7l-.39-1.34C64.13,54.12,64,53.47,63.79,54.16Z"/><path class="cls-2" d="M65.62,59.27c.21.36.44.07.67-.41C66.08,57.92,65.85,58.53,65.62,59.27Z"/><path class="cls-2" d="M55.84,22.9c.35.36.34-1.45.19-2C55.62,20.82,55.91,22.16,55.84,22.9Z"/><path class="cls-2" d="M55.22,19.75c.43.48,1,1.3,1.25-.58C56.05,19.63,55.66,18,55.22,19.75Z"/><path class="cls-2" d="M56.42,22.73c.28-.19.54.3.83-.39-.27-.31-.55-.08-.82-.63C56.36,22,56.53,22.4,56.42,22.73Z"/><path class="cls-2" d="M57.76,27.26c.73-.39.89.48.44-2.23A7.48,7.48,0,0,0,57.76,27.26Z"/><path class="cls-2" d="M68.11,59.14c.26.79.54.83.82.12C68.66,59,68.4,58.29,68.11,59.14Z"/><path class="cls-2" d="M72.12,62c.8-1.33,1.46-.06,1.94-2a2.09,2.09,0,0,0-1.84.75,2.15,2.15,0,0,1,.19-1C71.86,58.79,71.81,60.83,72.12,62Z"/><path class="cls-2" d="M62.76,25.46c.42.76.18-1.94.43-1.21C63.24,22.6,62.62,24.86,62.76,25.46Z"/><path class="cls-2" d="M63.18,24.76c.24.37.49.34.76-.65C63.69,23.77,63.44,24,63.18,24.76Z"/><path class="cls-2" d="M76,60.56c.1.36.21.71.31,1.06.17-.39.09-.83.27-1.23C76.34,60.57,76.16,59.91,76,60.56Z"/><path class="cls-2" d="M68.62,31.94c.13-.57-.07-1.2.28-1.74C68.51,29.85,68,31.7,68.62,31.94Z"/><path class="cls-2" d="M80.39,10.76c.38,1.57.72-.17.76-1.16C80.9,9.57,80.64,10.23,80.39,10.76Z"/><path class="cls-2" d="M88.73,12.77c.34,1,.33-1.25.74-.14.16,1-.32.62-.43,1.2.33.64.62-.06.76-1.15-.21-.12-.3-.4-.31-1.07.38-1.24.71.77,1.09-.6-.2,0-.4.2-.57-.85-.49,1.21-.91.61-1.16-.18C88.83,10.92,89.2,11.91,88.73,12.77Z"/><path class="cls-2" d="M91.87,12.73l.32,1.07c.33-.88.33-.39.52-1.46-.29-.92-.78,1.23-.49-.58C92,11.14,91.91,12.5,91.87,12.73Z"/><path class="cls-2" d="M93.1,14.19a5.94,5.94,0,0,1,.52-2l-.23-.8c-.09.32-.18.37-.26.21,0,1,.08.68-.26,1.24C93,13.33,92.93,13.74,93.1,14.19Z"/><path class="cls-2" d="M94.4,15.4c.29-.94.55-.08.84-.89-.34-.64-.72.5-1.06-.93C94,14.69,94.3,14.26,94.4,15.4Z"/><path class="cls-2" d="M95.76,13.06a2.28,2.28,0,0,0-.11,1.76c.11-.05.23-.11.34-.46A4.05,4.05,0,0,0,95.76,13.06Z"/><path class="cls-2" d="M96,13.86c.15.44.06.86.23,1.3.16-.36.09-1.08.26-.72a3.27,3.27,0,0,0-.23-1.31C96.17,13.37,96.09,13.61,96,13.86Z"/><path class="cls-2" d="M96.53,11.9c-.06.52.57,2.19.81,1.14C97.07,12.52,96.81,11.66,96.53,11.9Z"/><path class="cls-2" d="M101.28,15.16c.21-.94.4-.61.6-1.19-.18-1-.39.15-.57-.85A2.92,2.92,0,0,0,101.28,15.16Z"/><path class="cls-2" d="M103.86,14.77c.21.65.43.68.66.1-.11-.35-.21-.71-.32-1.07C104.09,14.13,104,14.45,103.86,14.77Z"/><path class="cls-2" d="M105.42,15.26a5.17,5.17,0,0,0,1,.66c.27-.56-.5-1.27-.22-1.82-.2-.3-.17.41-.26.73S105.61,14.2,105.42,15.26Z"/><path class="cls-2" d="M106.54,12.63c.19.48.4-.66.59-.17,0-1-.25-1.12-.56-1.36C106.41,11.59,106.77,12.15,106.54,12.63Z"/><path class="cls-2" d="M108.38,16.72c.52-1.38,1,.11,1.49.23.35-1.53-.58-1.84-.78-3.18-.09,1.43,0,1.57-.53,2-.34-1.15-.28-1.94-.71-1.89A5.13,5.13,0,0,0,108.38,16.72Z"/><path class="cls-2" d="M108.52,13.43c.35.41.72-.19,1.07.42C109.57,13.13,108.85,12,108.52,13.43Z"/><path class="cls-2" d="M110.28,12.42c.13.51.27.27.4.83.24-.73-.19-1.56.11-2.28-.16-.2-.33,0-.5.43C110.63,12.27,110.64,11.65,110.28,12.42Z"/><path class="cls-2" d="M112.68,12.52c.12.66.26.55.4.83a7.27,7.27,0,0,0-.06-1.8C113,12.48,112.91,11.84,112.68,12.52Z"/><path class="cls-2" d="M141.2,21.88c.4.87.82.28,1.25-.58-.35-.46-.7-1.25-1-1.43C141.26,20.53,141.28,21.21,141.2,21.88Z"/><path class="cls-2" d="M149.29,18.24c.18,1.07.39-.07.58.34C150,17.88,149.46,17.18,149.29,18.24Z"/><path class="cls-2" d="M157.71,20.52c0,1,.7,1.12,1,.15C158.38,20.25,158,20.58,157.71,20.52Z"/><path class="cls-2" d="M161.76,21.38c.4-.66,1.12-.61,1.26-1.6C162.64,19.68,161.9,19.9,161.76,21.38Z"/><path class="cls-2" d="M169.9,20.05c.29.62.6.08.9.38C170.84,19.64,170.17,18.93,169.9,20.05Z"/><path class="cls-2" d="M178.44,24.38c0-.59.25-1.15.28-1.74-.16-.2-.33,0-.5.43C178.37,23.52,178.28,23.93,178.44,24.38Z"/><path class="cls-2" d="M206.23,112.13c.65.75,1.35-1.49,2-.73C207.93,109.45,206.85,111.37,206.23,112.13Z"/><path class="cls-2" d="M208.32,110.65c.27.82.55.63.84-.39C208.89,110.05,208.61,110.15,208.32,110.65Z"/><path class="cls-2" d="M194,20.84a2.72,2.72,0,0,0-.07-1.29c.56.08.7.21,1.33-.3-.54-.72-1.09-.8-1.65-.25A11.41,11.41,0,0,1,194,20.84Z"/><path class="cls-2" d="M196.59,24.79c0-.76.39-1.47.11-2.27C196.37,22.5,196.34,24,196.59,24.79Z"/><path class="cls-2" d="M195.92,19.85a3,3,0,0,0,.23,1.31,4.06,4.06,0,0,0,.35-1.48C196.32,19.2,196.1,20.69,195.92,19.85Z"/><path class="cls-2" d="M215.7,16.18c.3.5.45-.63.6-1.19-.17-.2-.34,0-.51.44A1.48,1.48,0,0,1,215.7,16.18Z"/><path class="cls-2" d="M217,13.06c.21.49.52-1.08.52-1.45C217.16,11.52,217,12.12,217,13.06Z"/><path class="cls-2" d="M218.45,14.81c.71.72,1.44,0,2.16-.19-.14-1.22.3-.94.61-1.69C220.22,12.91,219.55,14.37,218.45,14.81Z"/><path class="cls-2" d="M221,14.16c.29.72.61-.37.92-.63C221.57,13,221.27,13,221,14.16Z"/><path class="cls-2" d="M222.2,13.58c.33.05.65.65,1,.15C223.15,12.86,222.54,12.32,222.2,13.58Z"/><path class="cls-2" d="M223.08,15.5c.41.11.57.65.81,1.14a4.58,4.58,0,0,0,.21-2.52C224,15.83,223.42,14.63,223.08,15.5Z"/><path class="cls-2" d="M223.8,1.33c-.11,1.14.48.63.66.1-.12-.66-.26-.54-.4-.82C223.9,1,224,1.69,223.8,1.33Z"/><path class="cls-2" d="M227.54,11.32a.69.69,0,0,0,0,.51c.06.18.11.35.16.53.24-1.17,1.08,0,1.6-1.54a1.33,1.33,0,0,1-.07-.78c-.4.62-.78.47-1.18,1.35-.4-1.31.2-.88.19-2-.18-.85-.41,1.53-.59.68C227.51,10.34,228,11.92,227.54,11.32Z"/><path class="cls-2" d="M225.3,1.05c.52.16,1,0,1.59-1C226.37-.07,225.83.41,225.3,1.05Z"/><path class="cls-2" d="M229.71,10.62c.27-.07.24,1.67.63,1.63-.13-1-.05-1.63.37-2C230.38,9.64,230,10.22,229.71,10.62Z"/><path class="cls-2" d="M230.31,8.93c.38.63.78-.25,1.18-.84C230.92,7.61,230.81,8.45,230.31,8.93Z"/><path class="cls-2" d="M234,9.23c.1-.41-.21-.88-.07-1.28-.55-.15-1.14,2.32-1.67.77C232.28,11.53,233.51,8.24,234,9.23Z"/><path class="cls-2" d="M232.16,7.67c.56.84,1.17-.72,1.76-1.51C233.35,5.2,232.75,7,232.16,7.67Z"/><path class="cls-2" d="M233.54,3.8c-.07,1.36.6,0,.84-.38C234.11,2.68,233.81,4.33,233.54,3.8Z"/><path class="cls-2" d="M233.85,5.38c.46.4.92,1.26,1.42-.56C234.78,6,234.34,4.2,233.85,5.38Z"/><path class="cls-2" d="M236.22,7.52c-.47-1.26.12-2.31.44-1.72a1.88,1.88,0,0,1-.44,1.72c.2,1.25.45-.49.65.61a15.66,15.66,0,0,1,1.83-5.6c0-1.8-1.14,1.29-1.2,2.37,0-1.5-.62-.37-.38-1.84-.65,1.53-1.19,3.41-2.08,5.81C235.41,9.69,235.81,8.74,236.22,7.52Z"/><path class="cls-2" d="M238.49,5.06a3.22,3.22,0,0,0,.23,1.3c.23-.18.46-1.11.68-.91a3.59,3.59,0,0,1,.1-1.27c-.16-.26-.32-.31-.49-.58C238.78,4.26,238.94,5.86,238.49,5.06Z"/><path class="cls-2" d="M239.45,7.24a1.29,1.29,0,0,0,.45-1.72C239.57,6.06,239.66,6.67,239.45,7.24Z"/><path class="cls-2" d="M240,4.26c-.17,1.2.37.15.48,1.09.09-1,0-1,.35-1.47C240.57,3.05,240.27,4.37,240,4.26Z"/><path class="cls-2" d="M.48,65.09c-.12-.61.27-1.14,0-1.79-.15.47-.28.19-.43.71.67.24-.34,4.51.39,1.33.72.31,1.44,0,2.14,1.33.34-1.06.44-.65.57.34.08-.32-.1-.69,0-1,.32-.48.08,1,.39,1.33a15.93,15.93,0,0,1,.71-3c-.29-.5-.62.61-.93,1.13-.22-1.46-.49-.54-.74-.36C2,62.76,1.2,63.94.93,62.87c-.38,1,.39,1.95.55,1.87C1.13,65.87.83,63.85.48,65.09Z"/><path class="cls-2" d="M7.52,75.57c.44.71.88.52,1.33.2-.3-.55-.08-1-.31-1.57C8.36,76.32,7.91,74.8,7.52,75.57Z"/><path class="cls-2" d="M9.59,76.14c.24,0,.33-.56.1-1.26.11-.24.22.28.32.56a8.87,8.87,0,0,0,.44-1.72c.5.11,1,.63,1.5-.28.57,2.66,1.21.47,1.8,1.28-.06,2-.93.6-1,2.4.93-.68,1.46,1.2,2.5-.65.23,1.15.38,2.13.82.63a3.94,3.94,0,0,1-.3,2.76c.13.73.28-.08.41.32-.15-.88.4-1.65,0-2.54.56,1.4,1.17-.41,1.74,0-.77,1-1.27,2-1.44,2.08.22,1.89,1.22-.59,1.76-1,0,1.33.59,1,.89.91.08-.34-.09-.7,0-1,.09-.15.17,0,.25-.22a3.48,3.48,0,0,0,.07,1.28c.68.14,1.39-.81,2.08-1a6.71,6.71,0,0,0,.07.76c-.74.43-1,1.29-1.68,1.79.56,1.24,1.15.31,1.72,1,.21-.89-.25-.33-.31-1.06.14-.62.28-.46.42-.7.37.8.08,2,.47,2.11.16-.41.08-.84.26-1.24-.07-.25-.16.09-.25.22C22.08,81,22.15,79,22,80.53c-.47-1.45.12-2,.44-1.71-.43.72.46,1,.13,2.05.22.5.46-1.27.68-.91a1.48,1.48,0,0,1-.61,1.69c-.21.65.19,1.38,0,2,.29.69.62-.43.91.39,0,1.12-.35.74-.53,2,.28,1.5.61-.42.89.9.17-.9-.36-.5-.47-1.6.25.07.5-.09.74.37a5.8,5.8,0,0,1,0-2.81c.09-.15.17,0,.26-.22.36.56-.22,1,.14,1.55.38-1.61,2.3-.11,2.12,1.85.24-.9.51-.37.52-1.46.43.83.13,1.55.38,2.35-.41-.32-.84.66-1.24.08.23,1.15,1.19,1.42,1.72,1,.15.53-.14,1,.14,1.55.36-.74.74-1.56,1.25-.07.06-1.3.41-1.08.2-2.52.23,1.13.57-.48,1,.66-.21-1.89.69-.67.7-1.94.59.85-.37,1.47,0,2.3.27-1,.52-1,.76-.65a17,17,0,0,1-.11,1.76c-.86.55-1.67-.53-2.33.68.18,1,.39-.51.57.85,1.12-2.75,2.12,1.92,3.23-.28,1,2.71,3,.27,3.43,3.06a5.09,5.09,0,0,1,1,.65c.2-1.91.75-.43,1.17-.84A3.7,3.7,0,0,0,39,94.55c.05-1.32.64-1.29.59-.16.93-1.41,1.8,1,2.73.15-.25-.76.21-1.15.35-1.48.14.62-.36,1.14-.27,1.74.75,1.37,1.55-.16,2.32-.16,0,1.92.88,2.15,1.06.93.15,1,.33.34.48,1.08.45-2.74,2.1,1.47,3.08-.81.69,2.93,2.1-1.52,2.63,1.41-.24-.32-.5,0-.75.15.17,1.42,1-.44,1.66.25.26.27,1.18,2,1.23.43.18-.57.32.83.48,1.09.6-.92,1.16.06,1.76-1,.67,1.08,2.13,1,3.21,1.25,27.8,9.87,55.77,8.47,83.75,6.89a3,3,0,0,1-.11,1.77c-2.08-1.86-4.22,1.18-6.3-.43-.16,1-.27.89-.59,1.18-.08-.5.14-.2.26-.72-.33-.65-.69,1.23-1-.15-.25.64,0,1.36-.19,2-.87-2.53-2.29-1.81-3.47-.52-.94-.45-1.86-1.28-2.82.09a1.41,1.41,0,0,1-.08-.78c-1.48,1.4-3.52-.58-4.49,1.37-.22-.7,0-.94-.32-1.06a2.58,2.58,0,0,0,.15,1c-1.85-1.77-3.37,1.37-5.29-.79-.18,1.66-1.12,0-1.57,0-.77,0-1.33,1.63-1.66.26-.68,1-1.35,1.08-2-.29-.37.45.19,1-.19,1.49-.08.59-.51-.86-.31-1.06-.46,1.3-.89.06-1.34.82a1.38,1.38,0,0,1,0-1c-.6,1.3-1.17.34-1.76,1,0-1.92,0-.2-.48-1.09,0,.66-.22,1.24-.43,1.21a4.82,4.82,0,0,0-.23-1.31c-.41,1.89-1.19-.78-2,1.23a2.55,2.55,0,0,1-.06-1.28c-1,.52-3.24-.19-3.5,1-.5.24-1-1.49-1.49.29-.45-1.25-1.27-2-1.48-.74-3.11-1.15-6,0-9.18-1.11-.17.31-.08.66-.18,1-.25-.77-.34-.5-.73-1.39-1.74,1.5-4.11-1.69-6.14.62-.15-.45-.06-.86-.23-1.31-.77.19-1.56.82-2.32.16,0,.74.19,3-.55,3.49-.21-1,0-1.62-.47-2.11-.11-.8.46-1.75.59-.68.32-1.19-.53-1.83-.48-.58-1-2-2.11.64-3.13-1.48-.25,1.73-1,1.09-1.4-.47a1.38,1.38,0,0,0,0,1c-.92-1-1.87-.41-2.79-1.44-.09.41,0,.85-.1,1.26-1.34-1-3.22.58-4.2-1.9a1.71,1.71,0,0,0,.07.77c-1.48-.64-3,.06-4.45-1.68-1.07,1-2.81-.27-4.13-.61-.33.54,0,1.19-.28,1.74-.11.09-.22.2-.33-.05.36-2.77-1-1.43-1.45-2.26-.17,1.36.37.31.48,1.1.13,1.1-.39.73-.51.94-.51-3.37-1.65-1.46-2.45-2.92-.32.55,0,1.2-.27,1.74-.11.2-.21-.36-.33,0a2.7,2.7,0,0,1,.27-1.24c-.24-.7-.49-.71-.75.15,0,.5.26,1.05,0,1.52.16.53.34-.32.49.58-.29,1-.54-.44-.84.9-.25-1.54-.54-.85-.81-1.14-.06-1.27.54.34.75-.65-.51-1.78.24-.62.44-1.21-.78-1.94-.73.16-1.47-1.24-.15.49.21,1,.14,1.55-.09.22-.17-.14-.25-.29-.13.65-.06.93.15,1-.43,1.38-.84.78-1.27,2.11a2.14,2.14,0,0,1-.31-1.57c-.36,0-.75,2-1.09,1.11-.19-.54.27-1,.35-1.48-.26-.74-.51.52-.43,1.21-.26.74-.48-1.11-.74-.36-.09-.53.2-1-.14-1.56-.41,1.9-1.68,2.19-1.67.26-.36.11-.7-.84-1.08.61-.42-2.11-1.12.2-1.3-1.72-.48,3-1.51-1.83-2.25.42-.67-.77-1.38-.06-2-1.07-.22-.75.42,0,0-1-1.14,2.23-2.19-1.23-3.32,0,.13.51.27.27.4.82.07.35-.12.67,0,1-.5-.3-1-1.6-1.47-1.75-.09.63.13.53.24.8.13,1-.37-.26-.51,1,0-.68-.1-1-.32-1.07-.47,2.84-1.3-1.18-2,.72a2.43,2.43,0,0,1,0-2c-.2-1-.44-.05-.65-.61a3.27,3.27,0,0,0,.23,1.31c-.24,1.05-.45.73-.68.92a2.27,2.27,0,0,1,.19-1.5c-.59.89-1.16-.07-1.74,0-.09-.52.21-1-.14-1.55-.37,2.6-2.1.53-2.68,1.64-.17-1.28-.83-1-.3-2.09-.35-.32-.39.37-.43,1.22-.35.12-.4-2.5-.89-1.41.15.9.33.06.49.58a1.21,1.21,0,0,0-.1.75c-.82-.21-1.62-1.79-2.48.14a7.48,7.48,0,0,0-.29-2.59,4.45,4.45,0,0,0,.21,2.32c-.48,2-.87-1.36-1.33.32-.5-1,.23-1.84,0-2.81a12.68,12.68,0,0,0-.29,2.76c-.33.87-.32-1-.49-.59a2.66,2.66,0,0,1,.27-1.23c-.29-.4-.75.28-.6,1.18-.56-1.79-.57-.24-1-2.18-.56.93-.6.53-1.16-.17-.08.67.21,1.39-.2,2,.13.44.26.89.4,1.34.3.07.16-1.32.49.07a1.38,1.38,0,0,0,0-1c.51.15,2.11-.19,1.78,2.3.16.62.35-.73.52-.94a2.59,2.59,0,0,1-.29,2.25c.17.34,1,.32.68-.91.36-.35.7.83,1.09-.61.14.62-.36,1.14-.28,1.75.27,1.06,1.15-.79.89,1.4.2.63.3-.74.18-1,.3,0,.61.11.9.9.08-.41,0-.85.1-1.26s.38.24.58-.17a6.56,6.56,0,0,1-.1,1.26c.73-.94,1.45-.73,2.16-.19.18.75-.26.05-.35,1,.24.76.5-.34.73.87-.33.53-.67.53-1-.65-.28,2.1-1.13-.51-1.67.77,1.09.82,2.07.37,3,1,.21-.9-.25-.34-.32-1.07.55-1.34.52,2.28,1.07.93-.16-.27-.33-.32-.49-.58.24-1.31.43.38.68-.92a1.64,1.64,0,0,1-.11,1.25c.14.12.28-.28.41.32.16-1.72,1.58-.5,2.24.08.13,1.24-.37-.6-.5.43a3.65,3.65,0,0,1,3.38.77,2.68,2.68,0,0,1-.27,1.23c.34,1.33.63-.4.6-1.19.5-.22,0,1.51.46,2.11.47-.52-.31-1.23,0-1.79.69.18,1.4-1.28,2.06.56.28-1.75.57-.88,1-1.37.29.55.08,1,.3,1.57.55-1,1.07-.66,1.59-.53.11,1-.44.58-.59.68.33,1.09,1,.45,1.41-.55.31.64-.08,1.17.22,1.81-.24.81-.58.09-.6,1.19,1.05.24,1.75-.35,2.68-1.64.46.83-.31,1.48.05,2.3a2.27,2.27,0,0,1,2.63,1.41c.46-1.6.75-.17,1,.15.17-.49-.1-1,.19-1.5.62,1.78,2.15-.77,2.21,1.6,1-.14,2.45,1.59,3.23.23.5,1.51,1,0,1.54,2,.38-1.39.72,0,1.11-1.62.29.56.08,1,.3,1.58,1.93.33,3.87,0,5.77,1.88.06-.65.28-1.23-.06-1.28,1.58,1.14,3.17,2.07,4.79,1.22.39-.59.75,1.34,1.14,1.19.07-.33-.1-.69,0-1,.49.6,1.11,1.32,1.82.28.16.53.32,1.06.47,1.6,1.71-1.14,3.37,0,5,1a6.15,6.15,0,0,1,.1-.75c2.9,1.51,5.84.76,8.75,1.81.47-1.53,2.46.18,3.73.31.69.07,1.23-.84,1.73.52.11-.33.23-.65.35-1,.31,1.91,1.08-.56,1.63,1.26,1.41-1.63,3.39.78,5.06-.52.11.35.22.71.32,1.07,2.15-1.55,4.24.86,6.39-.83.92,1.69,1.89-.73,2.81.93.57-1.43,1.09.44,1.66-.78,1.53,1.22,3.09.79,4.64.19,3.42.83,6.87-.8,10.28,0,.11-.32.23-.64.34-1s.15.45.07.78c1.83-.72,3.15-.48,5-1.29.1.35.21.7.31,1.06.35-.13.15-1.85.68-.92.08.5-.14.21-.26.73.22.33.58.11.59-.68,13.46.56,26.53-4.06,39.94-5.5.09-.24.18-.49.26-.73,1.81.8,3.67-1.71,5.47-.2.33-.3.62-2,.67-.41.26-.73,1-1.24,1.5-.28.11-.33.23-.65.35-1,.63.11,1.26.51,1.91-.49,3,1.32,6.16-2,9.19.61l.34-1c.5,1.24,1.4.88,1.67-.27.15.45.06.86.22,1.31.24-1.9.51-.7.75-.14.81-1.57,1.77-1.14,2.84-1.11a2.59,2.59,0,0,1,.06,1.29c.25.25.3-1.8.76-.65a1.62,1.62,0,0,0-.08-.78c.26-.44.49.52.76-.65a1.33,1.33,0,0,1,0,1c.3-.67.85-1.41,1.35-1.33.22,1.31-.28.67-.52,1.45a25.87,25.87,0,0,1,3-2.61c.14.45.27.89.4,1.34-.09,1.15.24-.62-.15-1,.47-1.26.88-.93,1.52-1.81.1,1.11.7.71.31,1.58.27.41.28-1.48.82.12.4-1-.19-.82-.31-1.06.6-1.31,1.16,0,1.76-1.53a2,2,0,0,1-.18,1c.16.31.34-.54.49.58-.14-1.42.3-.55.6-1.7,1.43,2,3.08-3.27,4.32-.37.28-2.29,1.17-1.84,1.69-2.3,0,1.63-.72.41-1,1.38.13.51.27.27.4.83a28.34,28.34,0,0,1-1.45,2.58c.06-2.65-1.24-.06-1.5.29,1,1.3,2.53.46,3.43-1.78a2.66,2.66,0,0,1-.27,1.23c.52-.31,1.58-.28,1.62-2.56.32-.48.2,1,.39,1.33,1-1.59,1.56-1.57,2.62-3.43,1.27.06,2.54,0,3.85-2.49.74.39,1.95-.77,2.44-2.43,1.61,1.09,4.41-5.31,6.49-1.58-.5-3.25,1.25-1.78,1.15-4.68.44.26.93-2.71,1.34-.81,1.79-2.81,3.53-3,5.23-.5A6.19,6.19,0,0,0,238,90.1c.28-.29.55.14.81,1.14.27-1.17.51-.6.76-.65.12-1.39.35-1.19.53-2.47-.15-.69-.33.4-.49-.07,1.1-1.75,2.9-1.71,4.21.88.17-1.86.65-2.27,1.19-1.86,1.06-3.76,2.41-5.77,3.76-7.09.15.54.31,1.07.47,1.6-.13-1.65.74-1.21,1.11-2.12a3.11,3.11,0,0,1,0,1,5.82,5.82,0,0,0,3.29-3.33,6.27,6.27,0,0,0,4-4.25c.85.28,2.44-2.7,3.13-3.87a27.86,27.86,0,0,0,3.08-6.16c-.32,0-.32-.9-.48-1.6.24-.78.45-.14.68-.92-.4-.51-.59.44-.82-.63-.41,1.75-1.1-.76-1.26,1.09-.2.5-.37-1-.56-1.36a2.91,2.91,0,0,1-1.58.52,28,28,0,0,0,1.38-3.36c-2,.62-4.65,1-6.95,4.32-.22.29-.44-.07-.65-.61a7.89,7.89,0,0,0,.06,1.28c-.24,0-.5.38-.75.66-.35-2.34-1.33,1.39-1.79,3a4.53,4.53,0,0,1,.37-2.49c-.23.3-.58-.44-.56-1.36.42-1.09.49-.12.77-1.67-.18-.78-.41,1.61-.58.17-.31.46-.11,1-.35,1.48-.12.09-.23.2-.33-.05,0-.85.37-1.65.37-2.5.08-.14.16,0,.25-.21-.2,1.54.51.37.82.12.16.45.07.86.23,1.31.74-.75.89-3.37,1.56-3.85.05.95-.58,1.79-.79,2.68.3.06.93-.45.77-1.66.79.91,1.62-1.23,2.44-2.44-.48-.83-1,1.15-1.52,1.81.32-2.44,1.32-3.15,1.85-1.76.66-1.32,1.31-2.47,1.93-1.49,2-3.36,4-2.26,6-5-.42-1.26-.87-.39-1.29-2.23-.47.48-.94.38-1.39-1-.16.31-.08.66-.18,1-.33-1.73-.72-.14-1.06-.92a2.72,2.72,0,0,1,.27-1.75c-.42-1.06-.89.15-1.32-.19-.33-.65.18-1.17-.06-1.8-.63-.8-1,1.12-1.76,1.52-.2-1.42.66-2.44,1-3.16-.14,0-.27-.35-.4-.83a1.77,1.77,0,0,0,.07.78c-.34.62-.52-.48-.68.91-.15-.44-.06-.86-.22-1.3-.57.84-1.12.54-1.67.26a3.5,3.5,0,0,0,0,2c-.17.65-.34.89-.51.95-.16-1-.22-2.08-.28-3.11.67-.27,1.68-2.2,1.89-4.3,1-.52,2.06-1.23,3.07-.31-.24-2,.52-1.33.93-1.13.11,1.08-.43-.09-.59.67.42,1.15.9-1,1.34-1.33.31.71-.2,1.24.23,1.31.12-1.73,1.25-1.72,1.85-1.25.5-1.57,1.07-.81,1.76-1.52.07-1.73-.6-.41-.82-.63.58-1,2-2.86,3-1.09.71-2.07,3.08.12,3.3-4.34.6.63.85-1.62,1.34-.82,0,.87-.33.58-.28,1.74a13,13,0,0,0,2.78-7.74,5.31,5.31,0,0,1-.7-2.91c-.71-1.21-1.83-.89-2-4.12-.34,1.39-.95.79-1,2.39.1.27.22-.21.34-.46.15,1,0,.66-.27,1.24-.21-1-.42-1.27-.65-1.12a2.27,2.27,0,0,1,.11-1.76c-.21-.2-.41,0-.42.69-.5-1.86-1.68-.28-2.5.65-.9-2.37-1.89.87-2.86,2.64l-.15-.54c.4-2.7,1.33-2.78,1.81-4.57-.16-.74-.33-.14-.48-1.09-1.44,2.76-2.31,1.71-3.7,3.52a6.68,6.68,0,0,0-.07-.77,5,5,0,0,0,1.53-2.83c-.21-.8-.44.1-.65-.61.09,1.09-.13,1.33-.43.7a8.69,8.69,0,0,1,0,2c-.48-.62-1.56.27-1.36,2.34-.21.8-.08-1.6-.4-.82-.05-.52.33-.5.19-1.51-.34-.19-.65,1.76-.54,2.47-.22.35-.17-1.35-.38-1.84-.45.7-.18,1.51-.45,2.23-.22.56-.28-.83-.15-1.05-.35-.5-.28,1.12-.36,1.48a3.28,3.28,0,0,1-.47-1.59c.21-.94.4-.61.6-1.19-.48-.94-.72.89-.69,1.93-.59.22-1.12.29-1.53,2.32-.42-.74.06-1.34-.14-2a12.73,12.73,0,0,1,1-.87,5,5,0,0,1,0-3c-.21-.55-.41,0-.42.7,0-1.23-.4-.12-.48-1.61-.46,1.35-.89,1.28-1.51,1.31-.11-.75.46-1.28.58-.17a.66.66,0,0,0,0-.5l.18-.49c-.32-.94-.67,0-1,.36-.16-1,0-2-.12-3.07-.19,1.06-.19.57-.52,1.45A11.41,11.41,0,0,1,254,6.87a4.36,4.36,0,0,0-.26,1.23c-.23-.54,0-1-.31-1.58-.51.56-1,.35-1.5.29-.2-1.16.21-.63.44-1.72-.23-.71-.51.82-.74-.36a5.85,5.85,0,0,0-.1,1.26c-1.2-1.07-2.45,1.28-3.65.47a2.25,2.25,0,0,0,.15,1c-.21.64-.41,1.21-.6,1.19-.28-4.06-1.63,1-2.32.16.24-3.61,1.12-2.55,1.8-4.06-.35-.84-.79.94-.9-.9-.17.48-.34,1-.52,1.45A5.16,5.16,0,0,1,245.3,4c.22.06.46-1.07.67-.41-.11-1.14.22-.62.28-1.74-.35-2-.81,2.49-1.17.34-.38,1.38-.79,2.77-1.14,4.16a2.92,2.92,0,0,1,0-2c-.25-1.32-.54-.39-.81-.63a3.71,3.71,0,0,1-.37,2c.16.31.34-.54.49.58-.28.58-.56.54-.83-.12l-.78,2.18c-.11-1.52.17-1.2-.39-1.34-.39-.74.2-1.33-.13-2.06-.14,2.47-.6,1.67-1.14,3.66-.49-.46-1-.52-1.47-1.25a11.89,11.89,0,0,1-1.47,4.12c-.37-.74.29-1.32.19-2-.75.15-1.54,3.55-1.9,5.32.77.66,1-2.71,1.54-3.33a2.54,2.54,0,0,1,.06,1.28c.21.49.56-1.08.36-1.48.68,2.06,2.07-3.93,3-1.08-.6,2.94-1.87,3-2.69,2.65-.56,3.49-1.73,3.14-2.79,3.41a25.67,25.67,0,0,0,.57-4.5c-.24,1-.45.53-.69,1.43-.72-2.81-1,1.42-1.72-1a6.49,6.49,0,0,1-1.27,1.59c.22.46,0,.84.06,1.28-.23.35-.44,0-.68.92-.36-1,.11-1.55.36-1.47-.07-1.17-1,.23-1,1.38-.33-.14-.67.86-1-.67-.47-.18-1,2.42-1.44,1.58-.29-1.49.23-2.86.49-4.27-.6.14-.88,2.23-1.69,1.79-.28-1-.12-1.22-.48-1.09-.28.92.51.39.23,1.31.25.12.49.3.75-.14.11,1.32,0,1.18.48,1.09a2.13,2.13,0,0,1-.18,1c-.23.43-.42-1.41-.65-1.12a5.9,5.9,0,0,0-.1,1.26c-.29.39-.55-.17-.83-.12-.11-.69,0-.94.18-1,.16-.25.07.43.24.8a6.37,6.37,0,0,0-.05-2.3c-1.17,3.95-2.27,3.76-3.4,5.6a1.83,1.83,0,0,1-.15-1c-.1.8-1,2.19-1.53,2.32-.06-1.31.84-1.92.79-2.68.22,1.14.43.54.09-.24-.94,1.15-1.79,1.71-2.52,1.66-.25-1.74.88-1.07.88-2.93-.32,0-.42-.5-.59.67-1.08-1.4-3.06,2.44-4.19,2.95-.24-.71.66-1.26.2-2a2.78,2.78,0,0,1-.95,2.15c.24.29.49.73.74.37a7.06,7.06,0,0,0,.07.78c-.51.87-1-1-1.5.79-.15-.45-.06-.86-.23-1.31-.41,1.16-.78.31-1.17.84a2.66,2.66,0,0,1-.07-1.28c-.18-.41-.39.73-.57-.34a1.38,1.38,0,0,0,0,1c-1.53-.33-2.56.09-4.07.67a2.27,2.27,0,0,1,.19-1.5c-.25-.15-.5.42-.75.14-.4.62.16,1.38-.19,2-.37-1.08-.77-.67-1.17.33-.22-.55,0-1-.31-1.57-.15.57.05,1.19-.11,1.76-.44-1.49-.38.11-1,.37-.22-.55,0-1-.3-1.58a2.59,2.59,0,0,0,.06,1.29c-.53.71-1.64-1.07-1.61-2.8-.79.91.61,1.56.11,3.08-.28-.05-.19-.73-.55-1.35-.4.95-.85-.05-1,1.88-.36,0-.78.14-.89-1.41l-.43,1.21c.29,1.39.12-1.07.41.32-.24,1.88-1.45.44-2.18,1.71.12-1,.06-1.88.44-2.23-.56-1.45-.68,1.9-1.27,2.11-.36-1.66-.77-.26-1.17.34-.44-1.47-.92-.84-1.4-.47-.11-1.12.44-.36.6-1.19-.16-.78.24-1.49.12-2.27-.47,1.49-1.12,1.69-1.54,3.33-.13-.49-.34-.07-.66-.6-.16-1.51,1-.21.37-2,.26-1,.49.35.75-.65-.23-1.23-.94.81-.9-.9-.27.89-.57.48-1,1.38,0-2.07-.48-.07-.89-1.41-.52,1.46-1,1-1.52,1.81,0,1,.39,1.84.64,1.12-.06,1.76-.78.69-1.08.6a3.55,3.55,0,0,1,.27-1.74,15.68,15.68,0,0,1-.3-2.08c0,2.28-.49.58-.94,2.15.17,1.36.39-.16.57.85-.28.1-.57,1-.83-.12-.08-.5.14-.21.26-.73-.12-.51-.35-.28-.24-.8-.3-.8-.12,1.65-.41.19a6.37,6.37,0,0,1,0,2.54c-.4,0,0-.85-.31-1.57a3.91,3.91,0,0,0-.11,1.77c-.14.07-.27-.36-.42.19-.42-1.17.27-2.17,0-3.32a9,9,0,0,0-.2,2c-.29,1.11-.53-1.18-.83.39a11.41,11.41,0,0,1-.39-1.84c-.37,1-.72.31-1.08.09-.21,1.75-.82,1.2-1.26,1.08-.22-.54.44-.95,0-1.52-.38,1.54-.79.71-1.34.82-.35.54.14,1.21-.11,1.77-.49.23-.07-1.52-.47-2.11-.21.05-.3.3-.34,1-.78-2.91-1.68,1.33-2.48-.38a4.52,4.52,0,0,1-1,2.4c-.15,0-.25-1-.57-.85-.08-1.29.5-.63.68-1.42-.5-.85-.89.17-1.26,1.08-.4-.48-.21-1.06-.46-2.11-.33.33-.52-.42-.68.92l-.31-1.06c.13,1.38-.75,1.86-1.08.09-.28,1.84-.5,1-.92.63-.35.88,0,.3.15,1-.21.65-.39,0-.58.16a3.16,3.16,0,0,1,0-2c-.36,0-.71-.37-1.05-1.94.09-.32.17-.37.25-.21,0-1-.81-.55-1.15-.69.87.83.7,2.47,1.53,3-.8,2.11-.88-1.6-1.47-1.24,0,1.11.62,2.31.53,3.4-.22-1-.79-.87-1-2.19-.24,1.07-.26,2.17-.47,3.25.11-1.81-.31-1.74-.62-2.64-.16-.71.36-1.31,0-2a6.17,6.17,0,0,0-.2,2c-.22,0-.52-.94-.34.46-.24,0-.48-.78-.72-1.38,0-.79.76,0,.61-1.7-.45.87-2.46,2.89-2.07,0-.25-.12-.52,1.07-.75.15-.37,2.38-1.24.4-1.87,2.77-.13-1.7-.65-.66-.46-2.11-.28-.42-.23,1.3-.61,1.7-.63-.2-1.25-1-1.91.48-.06-1.43-.61-1.07-.66-.1-.23-1.38-.49-.53-.73-1.38.07.84.2.87.3,2.08-.32.12-.68-.93-.8-1.65-.44-.29-.24,1.48-.83-.12a3.55,3.55,0,0,1-.1,1.26c.36-.3.71.12,1.06.92a6.68,6.68,0,0,0-1.82-.27,5,5,0,0,0-.07-.77c.29-.45.8.65.84-.9-.42-.84-.82,1.16-1.4-.46-.11.36-.23.72-.33.46a2.55,2.55,0,0,0,.06,1.28c-.37.84-.72-.14-1.09.6-.29-.55-.08-1-.31-1.57-.32.61.17,1.29-.26,1.23-.31-.71.2-1.24-.23-1.31-.24.39,0,.86-.1,1.26-1.26-3.18-2.84-.28-3.87-1.85-.13-.53.25-1,.19-1.5-.46-.56-1,1.7-1.4-.46a2.67,2.67,0,0,0,.06,1.28c-.18.9-.33.25-.51.94a1.62,1.62,0,0,1,.1-1.26c-.23-.7-.5.06-.74-.36a2.27,2.27,0,0,0,.15,1c-.18.85-.33,0-.5.43a3.71,3.71,0,0,0-.07-1.28l-.34,1c-.23-.55,0-1-.31-1.58a3.92,3.92,0,0,1-2.41.41l.24.8c-.22-.07-.46,1.07-.67.41a1.61,1.61,0,0,1,.1-1.26c-.48-.67-1.36.56-1.59,1-.12-1.08-.31-1.35-.65-.61.41,1,0,1-.19,1.5.76-.42,1.07,1.08,1.89.53.1-.46-.07-.2-.15-.53.18-1.11.32.68.5-.43a11.26,11.26,0,0,0,.63,2.13c-.95-1.18-2.29.83-3-1a4.8,4.8,0,0,1-.09.75c-.33.48.08-1-.23-1.31-.53,2-1,.71-1.5.28-.15,1.39-.5,1.25-.84.9a8.73,8.73,0,0,0,.22-3c.24-.29.66.15.67-.92-.32.14-.32-.1-.48-1.09-.14,1.13-.36.85-.44,1.71-.28.37-.54-.64-.83.39-.32-1.9-1.06-1-1.66-.25,0-1.55-.29-1.45-.74-.36a2.44,2.44,0,0,1,.11-1.26c-.54-.79-1.12.87-1.67.26-.15.48.2,1.05,0,1.52-.18.69-.31-1.34-.5-.07a2.58,2.58,0,0,1-.06-1.29c-.26-.25,0,1.41-.42.71a2.41,2.41,0,0,1-.14-1.55c-.43.7-1.17-.76-1.34.82-.23-.55,0-1-.31-1.57,0,1.57-.44.19-.42.19-.58.14-.79,2.15-1.42.55-.12,1.48-.8.68-1.17.84a3.48,3.48,0,0,0-.06-1.28c-.28,1.63-.66,0-1.1,1.61-.15,1.06.41,1.41.56.86.15.23-.39,1.12-.51.94-.17,1.2.37.34.49.58a2.7,2.7,0,0,1-.27,1.24c-.13.12-.45-1.65-.83-.13a3.13,3.13,0,0,1-.22-1.81c-.29-.95-.61.36-.89-.9-.09.66,0,1.55-.36,1.48A9.23,9.23,0,0,1,127.25,18a8.64,8.64,0,0,1-.8-1.14c-.13.49-.18,1.52-.43.7-.09.41,0,.85-.1,1.26-.38.64-.21-.63-.56-1.36,0,2.15-1.42,2.26-1.58,0,0,1.26-.35-.05-.59,1.18.26.94.55-.32.81.63,0,1-.71,0-1-.15a4.06,4.06,0,0,1-.35,1.48c-.21.56-.19-.82,0-1-.28-.43-.32,1.29-.11,1.77.2-.35.38.32.59-.68.07.52.07,1,.14,1.55-.39.69-.75-.92-1.15-.17-.08-1,.6-2.78,0-3.05.08,1.39-.13.69-.44,1.21,0-1.52.29-.64-.31-1.58,0,1-.07,1.32-.44,1.72-.11-1.95-.62.6-1-1.16,1-.15,1.79-1.65,2.9-.33-.39-1.78.77-.69.63-2.71-.13-.51-.28-.27-.4-.83-.18,1.65-.86.35-1-.66.22,1.5-.4,1.29-.13,2.79-.22-.11-.45.69-.66-.1s.67.18.11-1.26c.18-1.11.32.68.5-.43-.15-.46-.06-.86-.23-1.31-.5,1.63-.62.3-.73-.88,0,2.13-1.07.6-1.59,1-.19.94,0,.67.23,1.31-.57,1.65-1.47-.06-1.77,1.52-.33-.64.06-1.18-.05-1.79.44,0,.89-.3,1.32.2a4.67,4.67,0,0,0,0-2c-.12.51-.22.25-.33-.05a3.17,3.17,0,0,0,0,1c-.45-1.59-1.71-.2-2,1.23.23-2.55-.59-1.32-.78-3.18-.15.43-.28.43-.42.2-.17,1.35.37.3.48,1.09.13,1.07-.35,1.71-.79,3.19-.37-1.45.36-1.41.37-2.49-.41-1-.33.08-.76.65A9.8,9.8,0,0,1,115,17.2c-.2.36-.38-.84-.59.17.34,1.08.74-1,1.06.92.43-1,.86-1.84,1.27-1.59.14.64-.38.37-.5.43-.17.9.42,1,.33.05.06,5-2.37.52-3.68,2a1.85,1.85,0,0,1,.15,1c.18.78.4-.73.58.35,0,.72-.63,1.57-.84.38.16,1.22-.56,2.74-.85,1.4-.09-.28.51-1,.67-.41a11.58,11.58,0,0,1,.29-2.76c-.35-.63-.24-1-.64-1.62.6-.49.94.58,1.68-1.28-.34-1.25,0-1.2-.46-2.11,0,.85.3,1.74-.21,2.52-.55-.05-1.09-.66-1.65-.25a2.55,2.55,0,0,1,.14,1.55,1.05,1.05,0,0,0,.74.37,2.85,2.85,0,0,1-.52,1.45,1.38,1.38,0,0,1,0-1c-.47-.74-.14,1.45-.68.92,0-.76.19-1.5.12-2.28-.6,1.85-1.7-.19-2.35,1.7-.11-.62.11-1.18-.22-1.82-.31.55-.6-.18-.93,1.13a4.76,4.76,0,0,1,.31,1.58c-.4.55-.77,0-1.17.84-.18-1,.31-2.9.68-1.43-.18-.79.14-1.5-.05-2.3-.36,1.75-.73,1-1.44,2.08.18,1.07.4-.43.58.34,0,1.25-.49.14-.77,1.16-.15-.44,0-.86-.22-1.31-.22,2.74-1-.2-1.43,1.06-.21-1.91.65-1.27.7-2.44-.08-.25-.17.09-.25.22-.36-.56.22-1-.14-1.55-.3.74-.74-.16-.6,1.19-.29,1.08-.54-.59-.83-.13,0-.68.11-1.62.35-1,0-1.77-1.08,1.29-1.14-1.19-.18.49-.35,1-.52,1.46a5.08,5.08,0,0,1,.23,1.3c-.33.58-.33-.39-.48-1.09-.54,2-1,0-1.89-1.05-.51,1.37-1.56-.85-2.33.17,0,1.2.35.34.57.85-.13,1.33-.95.92-1.34.82-.12-1.29.52.07.44-1.21a4.48,4.48,0,0,1-.48-1.6c-.2.49-.58,2-.87,2.93-.38.32-.27-1.38-.55-1.87-.2-.2-.84,1.26-.74-.37-.66,1.3-1.29.84-1.91.48-.38-.82.32-1.48-.05-2.3-.49.69.12,1.55-.29,2.26s-.38-1.36-.63-2.14c-.22.49-.43-.28-.66-.1a4.15,4.15,0,0,0-.29-2.08c0,.38-.12,1.08-.27.72-.2.69.26.13.32,1.07-.24.88-.44,0-.66-.1-.18.65.3,1,.4.83a17,17,0,0,1-.11,1.76c-.32,0-.32-.92-.5.44-.35-1.21.09-.89.11-1.77-.34-.74-.32.55-.44,1.21-.39.36-.77-.32-1.16-.17,0-.77.27-1.49.29-2.25-.36-.44-.68-2.5-1.13-1.7-.31-1.6-.38-2.44-1.12-2.72.21.55.49.63.47,1.6-.26.69-.5.29-.75.14-.17.49.11,1-.19,1.5.32-.06.91,1.41,1,.15a3.76,3.76,0,0,1-.12,1.77c-.28.1-.18-1.45-.58.17-.36-.56.22-1-.14-1.55,0,1.55-.4,1.43-.76.65-.21.94.1,1.22.32,1.07-.15.47-.28.18-.43.7-.08-.61-.56-1.27-.38-1.84-.15-.16-.73,1.31-.58-.34-.26-.51-.44,2.2-.85,1.4a2.83,2.83,0,0,1,.27-1.24c-.41-.22-1.15-1.73-1.32-.2-.13.2-.71-.33-.32-1.06-.72.1-1.69,1.59-2,4.55-.2.06-.39-.25-.59.16-.31-.89.32-1.65-.12-2.56.4-.95.4-.27.66.09a3.16,3.16,0,0,0,.2-2.51,1.64,1.64,0,0,0,.08.78c-.26.43-.52,1-.75.14s.26,0,.34-1c-.2-1.09-.45.64-.65-.61-.18,2.45-1.07.59-1.64-.75-.28.87-.53,2.59,0,2.81-.11-1.34.22-.84.51-.44.08.46-.15.45-.25.22.12,1.17,1,.45,1.39,1-1.35,1.59-3.37,0-5,.79a2,2,0,0,1,.18-1c-.22-.41-.43-.64-.67.41-.11-1.65-.33-.27-.65-1.12-.23-.63.56-1.11.11-1.77-.32,1.63-.48.63-1.08.09-.26,1.26-.59,2.07-1,.36-.29,1.14-.55.27-.85,1.4-.83-3.63-2.44-1.2-3.92-3.13,0,1.13-.37,2-.51.44a3.16,3.16,0,0,0-.27,1.74c-.12.1-.23.2-.33-.05a6.3,6.3,0,0,1,.28-2.25c-.46-1.07-.15,2.1-.67.41-.15,1.79-.29,1.13-.76,1.16a2.68,2.68,0,0,1,.27-1.74c-.81,1.26-2-.1-2.61,2.92-.4.51-.39-.33-.66-.61-.21-.8.24-1.49,0-2.3a3.71,3.71,0,0,0-.2,2c-.4-.33-.31.5-.68.92-.22-1.39.33-3,.71-2.95-.16-.41-.08-.78,0-.51-.54-1.54-1.31-3.24-2.23-.59-.29-.72.4-1.3,0-2-.31,1.39-1.1-.35-1.65-.25-.17.4-.09.84-.27,1.23a3.47,3.47,0,0,0-.06-1.28c-.3,0-.1.33-.35,1-.06-.35.12-.66,0-1-.34-1.11-.72-.26-.68.92-.07-.35-.16-.42-.24-.29a2,2,0,0,1,.18-1c-.77-.16-2-2.2-2.48-.36-.73-1.5-.56.38-1-.66C51.86,7,51.6,6.61,51,7.65c.18.7.38.44.57.85-.26.86-.49-.52-.75.14a2,2,0,0,1,.18-1c-.52-.19-1-1.3-1.55-1.5a2,2,0,0,1,.18-1c-.24-.14-.49-.54-.75.15C48.6,8,47,4,46.16,5.65A18.06,18.06,0,0,1,49,7.35c-.34.61-.66,0-1-.14-.15,1.18.42.34.56.85-.17.48-.34,1-.52,1.45-.15-.45-.06-.86-.23-1.31-.7.56-.7,2.92-1.52,1.81-.06-.9.57-1,.78-1.67a6.35,6.35,0,0,1-.06-1.79c-.17.35-.62,3.42-1.27,2.1A2.35,2.35,0,0,1,46,7.15c-.33-1-.67,2.09-1.18,1.36-.33-.73.25-1.33-.13-2.06a.66.66,0,0,0,0,.5c0,.7-.44.06-.35,1.48-.15-.24-.7-.66-.59.68-.19-.24-.4.36-.58-.35,0-.93.59-1.78.46-2.73a6.46,6.46,0,0,0-.76,1.16c-.23-.54,0-1-.31-1.57-.5.28-1-.16-1.49-.22-.16-.63.32-.27.43-1.22-.62-.87-.81,2.62-1.41.56-.17.21-.36,1.56-.52.94-.2.69.26.13.32,1.07l-.26.72c-.48-1-1-.1-1.47-1.24,0-1.3.68-1.36.91-.11.23-.6.46-1,.68-.92-.27,0-.89-1.92-1.33-.2-.32-.82.12-1.51-.21-2.33-.34,1.77-1.32,1.49-2.09,1.47-.18-.95.26-.26.34-1-.35,0-.18-.88-.47-1.6-.45.69-.88-.06-1.34.82C34,.74,34,2.65,33.09,4.21c.37-.1.73-.65,1.08-.09a1.33,1.33,0,0,0,0-1c.23-.35.45-.31.66.1s-.27.64-.34.45c.1.84.89,3.28,1.3,1.73C36.06,6.93,37,7,37.54,6.4c.18.77.07,1.38.4.32.83,1.8,1.68,2.29,2.55,1.65,0,1.76.9.51.62,2.13.15-.5.42-.4.76-.65-.13-.5-.27-.26-.4-.82.17-.22.34-.21.5-.44a2.43,2.43,0,0,1-.1,1.26c.21.85.44.28.65,1.12.16-.32.07-.67.18-1,.18.77.36,1.42.57.35.13.4.26,1.13.41.82.22.54-.44.95,0,1.53.35-1.93,1.77-.84,2.06.56.3.64.11-.77.35-1,.08-.14.16,0,.25-.22.3.64.08,1.21.39,1.85.56-1.54,1.61,0,2.39.61.21-.94.4-.61.6-1.18-.4-1.19-.34.87-.75.14.21-.78.15-.56,0-1.79.55-1.58,1-.62,1.15.68-.24.89-.43-1.24-.67-.1.37.08.53,1.57.22,2.32.52.07,1,.88,1.55,1-.16,1.38-.08.82.31,1.57-.28.3-.55-.14-.81-1.13-.15.48.2,1,0,1.52.31-.32.6.48.9.39a3.6,3.6,0,0,0-.3-2.08c.48-.29.93.56,1.42-.56.07-.66-.09-1.37,0-2,.5-.31,0,1.33.39,1.84.08.5-.14.2-.26.73.46,1.81,1.57.84,2.11,2.86.69-1.54,1.33-.34,2-.21.21,1.33-.47,1.06-.54,2.47.49,1.08.65-1.62.74.87a7.45,7.45,0,0,0,0-2.54c.58-.54,1.16-.18,1.73.51.2-1.94.76-1.11,1.17-.85a2,2,0,0,1-.18,1c-.14.25-.27-.47-.4-.83a1.22,1.22,0,0,0-.1.75c0,.17-.11.33-.17.49.29.69.62-.77.9.9-.21.65-.39,0-.58.16-.13,1.36.47.73.64,1.12-.57,2.07.63.48,1.06,1.43,0-.8.1-2.25.44-2.22-.24,1.27.2,1.32.21,2.83.09-.33.17-.37.25-.22-.13-1.43.42-1.17.54-2.47.22.23.9,1.79,1.4.46a4.38,4.38,0,0,1,0,2c.45.72.88.87,1.13,1.7.11-.32.23-.64.35-1-.11-.35-.21-.71-.32-1.06-.33,1.39-.6-.32-.9-.4.4-1,.76.63,1.16-.33,0,3.1.88,1.45,1.53,3-.24-.38-.5.32-.74-.37,0,1.28.64.9.89.91.09-.68.07-1.35.2-2,.45-.32.21,1.36.39,1.84.12-.51.22-.25.33.05,0-1.59.42-1.54.82.12-.22-1.72.14-.54.53-2,.45,1.48-.6,1.15,0,2.54.17-1.85.48-1.3.7-2.44.39,1.25-.48,1.13-.36,2,.4.08.49.07.77-1.16.36,1.15-.29.56-.19,1.51.69,1.9.94-.19,1.67-.77a10.57,10.57,0,0,0,.38,1.84c.38-1.13.72,0,1.09-.6.09.69-.09,1.34,0,2-.11.46-.22.16-.33.45-.27-.55,0-1,0-1.52-.5.19-.67,1.07-1.25.58.35.46.69,1.41,1.06.92.27.76-.45,0-.18,1-.38-.54-.77-.35-1.15-.68-.08.33.1.7,0,1-.33.49-.09-1-.4-1.33-.14.42-.28.42-.42.19-.07,3.16-.79-.84-1.26,1.08-.29-.71.09-1.53-.3-1.57-.25,1,0,2.05-.22,3,.21.79.45-.11.66.6a2.27,2.27,0,0,0-.15-1c.29-.84.55-.11.82.13,0,.93-.26.4-.35,1.47-.33.13-.66-.34-1,.36C68.62,33.82,69,33,68.6,33c-.58,3.65-2.35.72-3.41.76,0-.68.35-1.31.2-2,1,.53,2,1.57,3,1.46.16-.89-.36-1-.49-.07-.25-.91-.59-.71-.23-1.81a2.13,2.13,0,0,1-.83.38c-.06-.69.25-1.32-.13-2.06-.28,1.43-.36.94-.76.65-.31-.64.09-1.17-.22-1.82-.57-.52-1.32.35-1.68,1.29A7.05,7.05,0,0,1,64,28.44c.25-.67,0,1.3.33,0-.48-1.06-1-.25-1.47-1.24-.2.57-.4,1.13-.61,1.7a10.11,10.11,0,0,0-.46-2.11c-.36,1.67.19,1.7.29,2.59-.32.86-.58-1.84-.91-.39-.37-1.08.36-2-.11-3.08a1.76,1.76,0,0,0,.07.78c-.65.8-1.27-.11-1.9-.54-.35,1.05.17,2.24.47,2.11-.32.43-.66,2.82-.94,1.64-.14-1,.34-.25.26-1.23-.14-1.17-.33.58-.48-.58-.2.95,0,1.33-.45,1.71a2.09,2.09,0,0,1,0-1.52c-.44-1.1-.43,2-.84.89-.12-.78.47-1.46.12-2.28-.33.55-.24,1.16-.45,1.72-.11.1-.22.2-.33-.05,0-.82.46-.77.37-2-.42.05-.32-.74-.72-1.89-.76-1-1.6.15-2.16.19.5-1.78-1.31-1.24-1.87-2.07.05-1.35.77.31,1.1-1.11C52.63,20.4,52,23,51.55,21.23a2.3,2.3,0,0,0,.15,1.05c-.24,1.19-.44,0-.68.92-.58-2.6-1.43-.35-1.78-2.31C48.47,22,48,20.5,47.4,22.14c.3.13.09.36.31,1.07-.94,1.52-1.16-1.37-1.19-3.49-.22,1-.06,2-.21,3-.36-.35-.72-.26-1.06-.93-.12-.69.44-.53.59-1.18.08.6-1.24-1.1-1.48-.73-.19-.26-.17-1.64,0-1,0-1.22-.33-.07-.5-.07a2.58,2.58,0,0,0,.15,1c-.67,0-1.68-3.21-2.62-1.92L41,16.61c-.17.47-.33-.42-.5.43-.68-2.8-1.44-.21-2.11-2.86-.77,1.21-1.5.11-2.22-1.61.47-.74.5-1.3.86-1.91-.82,0-1.68,1.61-2.07-.05,0,2.16-.61,3.09-.42,5.54-.41-.34-.81-1.07-1.22-1.45,0,2.27,1.51,1,1.43,3.78-.17.57-.31-.84-.48-1.09-.08,1.58-.67,0-1,1.37A5,5,0,0,0,33,16.17a3.44,3.44,0,0,1-.62,2.2c-.24-1-.69-2.35-.73-.87-.29-.72-.12-1.57-.47-1.6-.15-1,0-.66.27-1.23-.36-.27-.71-.57-1.08.09-.27-.89.32-1.65,0-2.54-.15.37-.3,2.4-.6,1.18a2.86,2.86,0,0,0,.06,1.8c-.48.5-.4.29-.61,1.69-.18.85-.31-1.43-.49-.58-.39.91.19,1,.31,1.57-.23.18-.43-.58-.66-.1-.16-.7.36-1.31,0-2-.12,1.09-.59.39-.41-.32-.52,1.92-1.36.85-2.06-1.07,0,.59-.24,1.15-.27,1.74.34.57.18.58.47,1.6a1.73,1.73,0,0,0-.06-1.28c.69-.29,1.36,1.34,2,2.09-.6.82-1.14-1.31-1.74-.52a4.57,4.57,0,0,1,.89,1.41c-.34.55-.65-.84-1,.87-.16-.71.15-1.33-.14-2.06-.14.47-.28.19-.42.7a1.62,1.62,0,0,1,.1-1.26c-.16-.52-.34.33-.49-.58-.1,1.45-.63.49-.69,1.94-.44-.92,0-1.69-.29-2.59-.35.73-1.1-.33-1.14-1.19-.53.85-.5-.75-1-.15-.17-1,.26-.26.35-1-.45-1.15-.94-.11-1.39-1a8.91,8.91,0,0,0-.29,2.25c-.27-.29-.8.11-.85,1.4-.36-.56.22-1-.14-1.55-.24-.35-.5.57-.74-.37-.32.62-.12,1.26-.43,1.21-.26-.88.41-1.63.37-2.49.2-.73.36,1.72.57.34-.06-1.2-.71-1.14-1.07-.41-.29-.56-.08-1-.3-1.58-.43.83-1.3,1.73-1.42.55-.14-.28-.16.41-.1.76-.3.13-.61.42-.89-.9-.21.93-.39.25-.6,1.18.37-.79.69,1.86,1.07.42.23,1.3-.13,1.76.45,2.61-.5,1.66-.61-.22-.74-.36-.34,1.2.32,1,.3,2.08.18-.79.35-.76.5.08.23-.93.42-.25.43-1.22-.26-.6-.5,0-.39-1.32.2-.43.37,1.12.57.33.13,1-.24,1.3.22,1.82-.14-1.77.37.1.66.1.05.31-.05,1.8-.26,1.23.23,0,.74,1.75,1.14,1.19.28,2.24.81.87,1,3,.43-.4.39-1.5.85-1.4a2.66,2.66,0,0,1-.27,1.23c.33,1.67.71.74,1.06,1.43.13-.65.06-.92-.15-1,.25-1.23.58.09.6-1.18,0,.23.08,1.62.31,1.06.15,1,0,.67-.27,1.24.43,1,.89-.2,1.3,1.72.19-2.66.6,1.32,1-.87-.11,1.58.34.68.38,1.84-.3.15-.61.43-.89-.89-.3,2.08-1.06.25-1.56-1a5.28,5.28,0,0,1-.45,2.24c.83-2.32,2.32,3.94,3.16-.55.52.33,1.05,0,1.55,1,.14-.65.07-.93-.14-1,.17-.48.34-1,.52-1.45.16-.15.33.12.48.58-.26.78-.49-.15-.76,1.16.24.72.49.67.72,1.39.12-.33.23-.65.35-1,.14,0,.27.12.41.32A2.71,2.71,0,0,1,28.21,30c.61.54.37-2.42,1-1.38a2.71,2.71,0,0,0-.06-1.29c.17-.41.34-.63.5-.43-.36,2.18.92,3,1.35,4-.5.55-1.69-1.16-1.67.77-.5,0-1-1-1.48-.73-.07,1.45.59.52.81,1.14-.4.64-.4.07-.69,1.43-.17-2.24-.48-.32-.62-2.64a4.77,4.77,0,0,0-.13,2.78c-.32.42-.31-1.19-.47-1.59-.2.57-.39.25-.6,1.18-.29-.55-.08-1-.3-1.58-.39,1.2-.22,0-.58-.34-.4.73-.77,0-1.17.85-.33-.64.06-1.18-.06-1.8.41-.36,1.14.95,1.1-1.11-.22-.19-.46.74-.68.93a4.29,4.29,0,0,0-.15-1.05c-.37,1.07-.45,1.14-.75.14-.48.87,0,1.88-.45,2.74-.09.15-.17,0-.26.22a4.39,4.39,0,0,1,0-2c-.2-1.25-.44-.16-.65-1.11a1.35,1.35,0,0,0,0,1c-.51.55-1-1.91-1.5.29-.89-1-1.58,0-2.29-1.87-.3,1.24-.56.24-.84.38a7.51,7.51,0,0,1-.28,2.26A11,11,0,0,1,18,33.3a9.32,9.32,0,0,1,.36-2c.37-.3.71.66,1.09-.61.2,1-.38,1.81-.46,2.74.19.69.82-.11.73,1.38.54.48,1.12-1.28,1.64.75-.34.74-.67.22-1,.87.22.26.45,0,.65,1.12.1-1.06.18-1,.33,0,.66-1.73,1.25,1.12,1.9.53.32.57-.06,1-.19,1.51.2,1,.44.05.65.61a11.06,11.06,0,0,0-.53-2.89,6,6,0,0,1,.1-1.26c.19-.06.38.23.57.35.09.52-.2,1,.14,1.54a4.05,4.05,0,0,0,.27-1.23c.11-.19.22.36.33,0,.19,1.12-.18.57-.19,1.5-.25.63-.48-1-.74.14,2.54,1.5,5.1,1.79,7.64,3.94.2-2.07,1-.86,1.15.69.18-1.08-.06-2.22.13-3.29.48-.46.41,1.59.9.89a2,2,0,0,1-.18,1c.41.36.84-.77,1.24-.07-.53,2.68,1,1.67,1.6,3.8.34-.45,0-1-.14-1.54.67.2.37.43,1,1.16.11-.41-.2-.88-.06-1.28.17-.15.33.11.49.58a4.1,4.1,0,0,1,.35-1.48c.38-.75.24,1.38.67.1a2.35,2.35,0,0,1-.19,1.5c1,.9.81,1.64,2,1.07a2.55,2.55,0,0,1-.1,1.26c.79-1.37,1.54.19,2.33-.67a3.17,3.17,0,0,1,0,1c.31.1.62-.68.94-1.65a1.57,1.57,0,0,1,0,1.53c1-.46,2,2.53,3-.07.31.64-.09,1.18.22,1.82-.17.48-.32-.42-.5.43.78-.3,1.77-1.67,2.74-.35.14-1.1-.64-.88-.14-2.06.42,1.12.76,2,1.14,1.7.27-1.58-.35-.17-.57-.85.32-1.08.61-.39.92-.63a17.6,17.6,0,0,1-.21,2.52c.84-.25,1.48-2,2.42-.91.07.34-.12.66,0,1s.27.26.4.82c.32-.93.16-1,.52-1.45a4.76,4.76,0,0,0,.31,1.57c.42-.47.83-.1,1.24-.07.18.68-.27.86-.34.46.29,1.61,1-.12,1.27-1.59.42.74,0,1.36-.2,2,.58.08,1.19-1.94,1.76-1,.18.42-.28,1.49-.34.46.08,1.11.4,1.55.8,1.64-.13.07-.5.27-.18,1-.17.26-.32-.64-.5.43.26,1,.55.06.81.63-.09-.69.15-1.94.44-1.21.09-.47-.14-.24-.24-.8a3.21,3.21,0,0,0,1-1.89c.38.75-.2,1.33.13,2.07.25-.79.68-.74.69-1.94.7.42,1.5,1.24,2,.81a3.18,3.18,0,0,1,.27-1.75c.25,1.51-.23,2.19.46,2.62-.24,1-.44.24-.67.41,0,1.31.77-.1,1.07.42a3.59,3.59,0,0,1,.1-1.27c.26.58.45.23.64,1.63.32-.55.12-1.18.44-1.72.25-.13.45,2.31.91.39.22.54,0,1,.31,1.58-.21.65-.4.34-.59.16,1.2,2.71,3.2.55,4.7,1.47a6.08,6.08,0,0,1-.36,2c.3.37.61-.41.91.39a3.86,3.86,0,0,0,.1-1.76c.73.06,2,2.68,2.83-.6.23,1.19-.3.86-.27,1.74.53.14.65.07,1.07.42.08-.41,0-.85.1-1.26.55-.42,1.42,2.64,1.73.51a10.43,10.43,0,0,0,.39,1.84c.25-.27.52-1.43.75-.14.41-2.61,1.4.81,2.08-1-.07.5.29,1.06.14,1.55.43-.5.85-1.38,1.24.44.18-.65.34-.89.51-1a4.15,4.15,0,0,0,.15,1c.09-.8.54-.73.33,0,.27-.69.7-.46,1.16.18-.09-1.11.13-1.17.43-1.21a2,2,0,0,1-.18,1c.41.45.83,0,1.24.44-.34,1.19-.43-.31-.6,1.18.24.29.48.72.74.37A2.63,2.63,0,0,1,83.79,63c-.3-.06-.58-1.76-.91-.38.37-.28.19,1.75.56,1.35.09,1.16-.23,1.23-.52,1.46A6.59,6.59,0,0,1,83,63.65c-.31-.73-.44.54-.59,1.19-.28,0-.56.35-.82-.63.61.33.47-1.56.93-1.13.16-.91-.53-.52,0-1.53.33-.78-.09,1.57.23.8.45-1,.07-.59-.14-1.55.12-.1.23-.2.34.05-.35-1-1.44.34-2.07-.57.15,1.5-.32.25-.35,1.48.38,0,.77-.11,1.17-.84.15,3.41-1.19,2.16-1.62,3.07-.6-1.36,0-2.55-.36-3.88,0,1.67-.54-.53-.84.9.26-.22,1,.46.72,1.89-.44-1.74-.45.83-1.07-.42-.33-.81.11-1.51-.21-2.32-.15.4-.29.8-.44,1.21a1.84,1.84,0,0,1,.15,1c-.79,1.15-1.55.55-2.34,1.18.23,1.24.49.36.74.87-.48.8-1.32,1.35-1.48-.73.21.22.44,0,.67-.91s-.39-.37-.23-1.32c-.52.19-1,2.17-1.32-.19-.21,1-.39.35-.58.16a5.9,5.9,0,0,0-.1,1.26c-.6-.95-1.67.71-2-1.31-.36.06-.73.46-1.09.6a7.64,7.64,0,0,1,.1-1.26c-.3-.57-.23.94-.43,1.21a4.66,4.66,0,0,1,0-2.54c-.37-.5-.85,0-1-1.67-.12,1,.18,2.06-.21,3,.51.83.22-2.2.84-.9a2.59,2.59,0,0,1-.36,2c-.64.39-1.24-2.18-1.88-1.55-.22-1.44.28-.8.52-1.45-.27-.77-.55,0-.84.38a4.15,4.15,0,0,0,.15,1c-.22.26-.29-.62-.34.46-.45-1.1-1,1.51-1.39-1-.07,1.15-.77,1.23-.83-.12-.3,2.15-1.08,1.93-1.59,1-.16.31-.07.67-.18,1-.42-.92-.91-.22-.88-1.92-.2.57-.4,1.13-.61,1.7-.55-.94.2-1.68-.12-2.57-.38,1-.73.73-1.08.09-.06.84-.42,1.64-.54,2.47-.21-1.05.43-2,0-3.05,0,2.48-1.1,2.19-1.59,1-.43.43-.4,2-.85,1.4,0-.9.36-1.91-.14-1.55a4.68,4.68,0,0,1,.45-2.23c-.05-.27-.11-.16-.17,0l-.15-.54c-.28.64-.09,1.34-.37,2s-.34-1.35-.79-2.16c-.32.95-.6-.53-.91.12.3,1.48.64,1.17,1,.65A6,6,0,0,0,56.67,59c-.35-.31-.32.84-.73-.37-.38.46.18,1-.19,1.5-.35-1.3-1.12-1.1-1.72-1.53-.11.65.48.89.65.61.09,2-.72,1.62-1.09,1.11-.23-1.26.58,0,.35-1-.4-1.37-.34.86-.75.15.52-2.38-1.27.17-1.79-2.31-.21,1-.83,1.52-1.28,2.61.07-2.24-1.29-.45-1.5.29a1.87,1.87,0,0,1-.15-1c-.14.77-.48-.17-.84.9-.24-1.9-.58-.11-1.17.33-.11-.6.11-1.16-.22-1.81-1.05,1.2-1.58-.07-2.66.62-.11-.68.11-1.25-.23-1.31,0,2-.58.77-.81-.63.15,1.58-.41,2.61-.86,1.91-.13-1.29.52.07.43-1.21-.13-.51-.27-.27-.4-.82-.13.64.06,1.27-.27,1.23-.09-.44.23-.81.1-1.26-.51-.74-.69,0-.68.92-.41.38,0-1.6-.39-1.33,0,1.25-.33,1.62-.69,1.93-.13-1.53-.26-.07-.56-1.35,0,1.09-.43.93-.67.4,0-.61.18-.28.1-1.25-.15,1.57-1.41-.37-1.27,2.1-.29-.76-.63,1.46-.92.62-.22-1.15.28-.74.52-2-.29-.46-.6.06-.9-.39-.18,3.19-1.29,1.5-1.61,2.05A3.47,3.47,0,0,1,35.08,57a1.35,1.35,0,0,1,0,1c.36.64.27-.71.68-.91-.55-.41-.69-.08-1.13-2.21-.34.54,0,1.19-.11,1.77-.46-1.93-2.42-.24-3.13-1a2,2,0,0,0-.44,1.71c-.45,1.07-.8-1.19-.84.9a6.07,6.07,0,0,1,0-2c.14-.24.27.47.4.83.28-1-.17-1.64.36-2-.42-.09-.49.63-1,1.37a4.28,4.28,0,0,0-.15-1c-.29.83.16.65.05,1.79-.25.45-.49-.51-.75.66A6.73,6.73,0,0,0,32.8,60c.36.56-.23,1,.14,1.55.31,0,.22-.58.43-1.21.32,1.07-.23,2-.54,3-.71-.18-1.47-2.59-2.39-1.12-.25,0-.48-1.06-.73-.88.21,1.17.15,1-.34.46-.29.47,0,1-.19,1.5-.59-2-.76-.56-1.31-.7-.23-.55,0-1-.31-1.58,0,1.12-.25,1.83-.6,1.19s.44-1,0-1.53c-.11.51-.22.25-.33,0a3.71,3.71,0,0,1-.26,1.23,5.37,5.37,0,0,1-1.63-2.27c-.17,2.14-.54-.61-.92.62-.15-1,.32-.26.44-1.21-.31,0-.61.22-.91-.39-.17.21-.36,1.57-.51.94a3.12,3.12,0,0,1-.45,2.23c.64-.2.88,1.45,1.4.46.29,1.2-.21.88.06,1.8a3.94,3.94,0,0,0,.28-2.25c.2-.35.39,0,.59-.68,0,1.68.54.92.82.63.19,1.13-.37.91-.45,2.23.31.26.33-.19.51-.94.1.42.33,1.46.8,1.64a6.35,6.35,0,0,1,.53-2,9.74,9.74,0,0,0,.29,2.6c.23-.73.44.14.66.09-.09.59.1,1.21.06,1.8.89-.36,1.76.22,2.64.9.52-1.55,1,.78,1.49-.28.84,2.77,2.15-1.26,2.7,2.18.18-.91.34-.25.51-.94a6,6,0,0,0,.64,1.62c-.34.57-.6-.51-.76,1.16.16-1.34-.2-.67-.48-1.09-.22,1.05.1.81.31,1.06-.4,1.17-.78.41-1.16.34-.15-.52.38-.77.5-.43-.12-1.34-1-.08-1.4-.47.18,1,.39-.14.57.85-.76-.43-1.06.79-1.76,1-.24-.63.56-1.11.11-1.77-.11.32-.23.65-.35,1-.71-1.14-1.57-.39-2.08.45.5-1.35-.29-1-.72-1.38-.06.65-.27,1.22.06,1.28-.6,1.85-.64-1.11-1.16.34a6.37,6.37,0,0,1-.05-2.3c-.22-.42-.61,1.24-.61,1.69-.35.57-1-1.8-1.07.1a1.6,1.6,0,0,1-.56-1.36c-.34,1.16-1.25,1.34-2,.21.44-.51.39-.29.77-1.67-.27-.62-.54-1-.81-1.65-.24.27.23,1.84-.1,1.26-.17,1.31.38,0,.5.07.05,1.68-.94,2.67-1.34.82-.55-.18-1.15,3.06-1.68,1.29l-.34,1c-.28-.55,0-1,0-1.52-.32-.47-.69,1.48-1,.36-.16-1,.33-.62.43-1.21-.94.54-1.82,1.44-2.39-.62-.28,0-.55-.22-.84.9a1.64,1.64,0,0,1,.06,1.28c-.31-1.3-1.23.24-1.8-1.29.2-.64.4-1.22.59-.67-.16-.9-1-1.05-1.47-1.24-.4,1.21.28.05.39,1.33-.29.81-.55,0-.84.9a2.41,2.41,0,0,1-.11,1.25c.21.75.31.14.32,1.07-.11,0-.23.11-.34.46-.39-2-.52-1.49-1-2.45.3-1.21.54.82.84-.39-.18-1-.38-.36-.56-1.35.15,1-.62,1.75-.94,1.64a2,2,0,0,1,.18-1c-.2-1.26-.44-.16-.64-1.12-.15.49.21,1,.14,1.55-.6.82-1.15-.56-1.74,0,0,1.34.42-.15.65.61a6.68,6.68,0,0,0,.07.77c-.41-.56-.54.41-1,.87,0,1.45.41,1,.58-.17.38.73-.38,1.49.15,1.55C9.77,74.66,9.19,74.84,9.59,76.14ZM40.89,93.3c.32-1,.6.11.9.39C41.48,94.46,41.18,94,40.89,93.3ZM66,106.23c-.27,1.11-.83.07-.44,1.72-.48.63-.94.2-1.4-.47a8.38,8.38,0,0,0,.52-2c.14.36.26,1.07.4.83s-.05-.69,0-1C65.44,105.83,65.76,104.52,66,106.23Zm188.18-63.4c.3-.74.23-1.79.59-.68C254.81,42.9,254.44,43.67,254.22,42.83ZM254,15.27c.52-.55.58-.81,1-2.39.17,1.13.37.53.58-.17a14.61,14.61,0,0,1,.45,2.61,5.63,5.63,0,0,0,.05-3.05c.68.63.59,3.07.18,4.36-.55-1.93-1.18,1.45-1.75.51-.28-1.13.33-.56.19-1.5C254.47,16.21,254,16.26,254,15.27ZM202.66,23.4c-.32.88-.61-.31-.92.12C202.06,22.58,202.36,22.75,202.66,23.4ZM176.6,25.63c-.13-.9-.69-.73-.55-1.86C176.27,25,176.87,24.08,176.6,25.63ZM156.92,23.2c.22.26.45-.64.66.61C157.39,24.57,156.8,24.24,156.92,23.2ZM41.5,7c-.36,0-.72,0-1.06-.93C40.75,6.21,41.49,5.73,41.5,7Zm6.77,17.57c0,1.13-1.51.64-1.23-.95C47.43,25,47.88,23.12,48.27,24.57Zm-29-7.9a4.42,4.42,0,0,1,.26-1.24c.13.56.28.32.41.83C19.66,17,19.43,17.61,19.23,16.67Zm38,44.66a2.8,2.8,0,0,1-1.73-.51C56.08,60,56.65,60.37,57.22,61.33Zm-16-2.13c-.25-.18-.93.09-.9-.9C40.61,58.31,41.3,57.93,41.26,59.2Zm-8.16-3c0,.37-.31,2.13-.51.95C32.45,56.46,33,55.56,33.1,56.2ZM12.46,72.49c-.17-.36-.09.37-.26.72-.22-1.66-.51.8-.73-.87C11.77,71,12.47,71.61,12.46,72.49ZM24,80.59c-.22,0-.46.85-.66-.1C23.73,79.21,24,80.48,24,80.59ZM35.3,90.42c0,1-.57.92-.83-.12C34.76,89.32,35,90,35.3,90.42Zm2.39.62c-.29.59-1,.06-1-1.17C37,90.59,37.38,89.62,37.69,91ZM21.41,35.85c.55.25,1.11-.46,1.65.25C22.53,37.34,21.64,36.83,21.41,35.85Zm23.28,73.56c-.06,1.14-.63,1-.91.13C44.1,108.23,44.4,108.67,44.69,109.41Zm-10.62-36c-.27-.09-.56.72-.82-.12C33.49,72.59,34.14,72.13,34.07,73.42ZM21.48,31.27c-.11-.78-.65.27-.48-1.09C21.22,30.47,21.74,29.82,21.48,31.27Zm.59-.67c.13,1.48.26.35.57.85-.14.4.17.87.06,1.28-.4-.2-.28-1.12-.66-.1l-.24-.8A4.75,4.75,0,0,1,22.07,30.6Zm1.52,3.54c-.28.1-.57,1-.83-.12C23.06,32.8,23.33,33.18,23.59,34.14Zm10.18,27c.17-.41.34-.63.5-.43-.38.78-.17,3.24-.7,2.44C33.45,61.94,34.05,62,33.77,61.14Zm-7.6-27.38c-.12.32-.24.64-.35,1l-.24-.8C25.79,32.92,26,33.58,26.17,33.76Zm-4.8-16.27c-.11-1.78-.34.09-.66-.6C20.69,15.23,21.93,16.12,21.37,17.49ZM35.6,60.91c.52,1.16,1.2-1.18,1.47,1.24.07-1.53.63-1.4.92-.63-.8.23-.68,2-1.46,3.09-.29-2.11-.3.19-.47-1.6-.42.33-1.29,1.33-1.41.05.07.18.53,0,.34-.46-.28.27-.55.07-.82-.63.24-.88.45-.21.66.61C35.09,61.85,35.57,62.29,35.6,60.91Zm8.61,31.86c0,1.28-.5.88-.76.66C43.48,92.39,44,92.18,44.21,92.77ZM33.83,57.08c.11.35.21.71.32,1.06-.18.63-.35.85-.5.44C34,58.13,33.46,57.53,33.83,57.08ZM24.22,20.21c-.26,1.12-.47-1.24-.74.15-.26-.75.05-1.8-.39-1.84C23.69,16.79,23.74,19.92,24.22,20.21Zm4.65,15.23c-.26.74-.52,1.75-.75.65C28.37,36,28.64,34.45,28.87,35.44ZM25.72,25.28c-.27-1.48.58-3.17,1-2.15,0,1-.26,1.62-.45,1.72C26.23,23.53,25.9,24.32,25.72,25.28ZM40.66,65.74c0-1.32-.32-.53-.51.43-.21-.11-.29-.39-.31-1.06-.6,1.15-1.15-.75-1.75.5-.25-.65.06-2.24-.4-.82-.27-.79-.26-2.84.2-2a1.35,1.35,0,0,0,0,1c.11-2.87,1.06-1.85,1.62-2.56l.39,1.34c.33-.08.69-1.53,1-.36-.17,1.58-.94,1.77-1.35,1.32.08.38,0,.44-.17.49.27.12.53,1.24.81,1.13.44-1.39.87-2.43,1.26-1.08C40.76,64,40.92,65.11,40.66,65.74Zm-11.2-31c.16-.49-.2-1,0-1.53.15,1.17.34-.58.49.59-.27.81-.21,1.67-.54,2.47l-.24-.8C29.29,35.24,29.38,35,29.46,34.76ZM53,112.44c.12.8-.46,1.76-.59.68C52.62,112.78,52.84,111.29,53,112.44Zm-3.7-17.37c-.22,1.7-1.07-.69-.74-.37S49.08,94.05,49.31,95.07ZM28.7,25.21c-.11.33-.23.65-.34,1a2.31,2.31,0,0,1-.15-1.05C28.37,25.53,28.41,24,28.7,25.21Zm3.06,6.07a1.62,1.62,0,0,0,.06,1.29c-.15.4-.29.8-.43,1.2a8.28,8.28,0,0,1-.73-1.38C31,32.29,31.39,31.58,31.76,31.28Zm-2.88-6.55A10.74,10.74,0,0,0,29,22.46c.15.52.33-.32.48.58-.69,1.7.59,1,.38,2.35-.32-.8-1.11.76-1.14-1.19C28.77,24.37,28.82,24.56,28.88,24.73Zm4.31,10.33c-.11-1.85-.55-.16-.9-.9C32.54,31.9,33.45,33.13,33.19,35.06Zm.65.61c.3.27.07,1.63.32,1.07s0-1.2.11-1.77c.1.35.21.71.31,1.07a1.61,1.61,0,0,0-.1,1.26c-.2.63-.41,1.22-.59.67a1.33,1.33,0,0,0,0-1c-.31.47-.11,1-.35,1.48C33.18,37.44,33.75,36.59,33.84,35.67Zm2.21,7c-.37,1-.73.89-1.07-.42C35.35,41.49,35.7,41.85,36.05,42.63Zm-5.93-18c.42-.56.81,1.09,1.24.43-.36,1-.59.76-1.09.61A1.83,1.83,0,0,0,30.12,24.67ZM42.77,63.25c-.12.32-.23.65-.35,1-.2-1.11-.42-1.14-.66-.1-.08-.27-.16-.53-.23-.8C42,62.48,42.36,63.08,42.77,63.25ZM31.91,27c-.24-.6-.5-.08-.74-.87C31.39,25.21,32,25.85,31.91,27ZM53.42,97.21c-.45.64-.87-.57-1.32-.2C52.27,95.36,53,96.57,53.42,97.21ZM30.2,19.58a6.8,6.8,0,0,1,.28-1.74q.33-.29.66.09A12.32,12.32,0,0,1,31,20.21c.41-1.76.79-1.14,1.18-1.35.33,1.84.66,1.6,1.21,2.47-.27,1.29-1.15.14-1.66-.25a2.59,2.59,0,0,1,.06,1.29c-.49-.07-.63-.53-.39-1.33-.38.24-1.58,1-1.88-1.56C29.93,20.24,29.84,19.29,30.2,19.58Zm4.19,12.61c-.14,1.26-.3,2-.76,1.16C34.18,33.47,33.84,31.9,34.39,32.19ZM31.31,22.8c.19.4.38.15.57.85C31.63,24.53,31.05,23.9,31.31,22.8ZM43.93,63.42c.13.24.27.24.41-.19.14.45.27.9.4,1.33.57-1.14.7,0,1.34-.81-.18.48.1,1-.19,1.49-.32-1-.66-.52-1-.14a4.79,4.79,0,0,1-.21,2.52A3.92,3.92,0,0,1,44,66.23c.27-.81.5-.1.77-1.16C44.6,64,44,64.49,43.93,63.42Zm.22,1.31c-.28.74-.55.46-.81-.63C43.62,63.54,43.88,64.42,44.15,64.73ZM33.43,25.16c.36.56-.22,1,.14,1.55-.23.58-.45.55-.66-.1C32.91,25.94,33.21,25.1,33.43,25.16Zm23.44,79.45c-.23.58-.47,1.19-.67.4C56.43,104.13,56.65,104.36,56.87,104.61ZM33,23.05c.17.45.08.86.23,1.31-.2.72-.39.42-.57-.34ZM40,43.22a4.69,4.69,0,0,1,.23,1.3c-.37.23-.73.83-1.07-.41C39.47,43,39.72,44.43,40,43.22ZM34.33,25.55c.43,1,.89-.29,1.32.71-.44-.3-.91,1.51-1.33.31C34.43,26.24,34.26,25.88,34.33,25.55Zm1.9,5.89c.11-.32.23-.65.35-1a7.17,7.17,0,0,1,.21,1.82C36.62,31.29,36.41,32.44,36.23,31.44ZM34,22.69c.12-.66-.52-1.44-.13-2.06.41,0,0,1.08.38,1.84-.14.4-.28.81-.43,1.21-.09-.62-.58-.4-.39-1.33C33.59,22.1,33.77,22.75,34,22.69ZM47,65.15c-.35-.63-.33,1-.75.15C46.43,64.28,47.06,63.76,47,65.15ZM38.45,32.53c-.31.12-.62.54-.91.12C37.86,31.47,38.15,32.25,38.45,32.53ZM60.4,106.41c-.2.35-.4.94-.58.17C59.83,105.6,60.19,105.25,60.4,106.41ZM40.85,38c-.3-.39-.61.07-.9-.9C40.22,36.15,40.88,37.15,40.85,38Zm7.93,27.43c.39-.13.77.39,1.15.69C49.57,67.14,48.58,67.32,48.78,65.42ZM37.29,16.81c-.35.89,0,.31.15,1.05-.21,1-.38-.55-.59.16.26,1.45.54.93.81,1.65.06.47.34,2.22-.11,1.77.18-.93-.31-.36-.4-1.33-.35,1.48-.65-.35-1,.36-.23-1.27-.39-1.59-.8-1.65-.14.4.17.87.06,1.28-.71-1.5-.28-2.5.08-4.57a3.7,3.7,0,0,1,.06,1.28c.14-.39.27.6.41.32a4.11,4.11,0,0,1-.23-1.31c.31-.77.52.15.43-1.21.2,0,.39-.21.57.84-.12.53-.34.23-.26.73C36.75,16.19,37,16.47,37.29,16.81Zm2.34,9c0-.93.29-.59.51-.94.13,1.53.61.54,1,1.16-.4,1.46.36.06.47,1.6-.37.51-.71-.68-1.07-.42-.66,1.4-.53,4.35-1.21,3.39C39.8,29.78,40.41,26.81,39.63,25.83ZM63.24,105.3c.06.6-.45,1.13-.12,1.77.46-.7.26-1.49.45-2.23.13.56.28.32.41.83-.28,1.88-.62,2.27-.89,3.94a5.31,5.31,0,0,0-1.29-2.74C62.17,106,62.66,105,63.24,105.3ZM50.77,65.72c-.15,1-.43,1.26-.76.65C50.27,65.9,50.52,65.88,50.77,65.72Zm-15.34-52c-.15.49.2,1,0,1.53C35,15.52,35,13.26,35.43,13.73Zm5.72,15.64-.69,1.94c-.11-.34-.22-.06-.33-.56C40.07,29.61,40.77,28.61,41.15,29.37ZM51.42,66.32c.21.64.41.38.23,1.32-.16-.53-.34.32-.49-.59C51.25,66.81,51.33,66.57,51.42,66.32ZM46,44.88c.43,1.26-.35,1.91-.6,1.19C45.65,45.13,45.83,45.82,46,44.88ZM37.92,19a2.2,2.2,0,0,1,.22,1.81A3,3,0,0,1,37.92,19Zm14,45.93a.69.69,0,0,0,0,.51c.15-.44.29-.42.42-.2-.29.77-.57,1-.83.39C51.66,65.26,51.81,64.59,51.94,64.88ZM51.77,60c-.26-.92-.57.83-.83-.13C51.18,59.05,51.84,58.71,51.77,60ZM35.43,3c-.16,1.08.34.53.26-.22a4.07,4.07,0,0,1,.05,1.8c-.37-.33-.3.4-.83-.13C35,3.7,35.2,3.08,35.43,3Zm33.4,104.64c-.23.88-.44,0-.66-.1C68.41,106.69,68.63,106.72,68.83,107.67ZM51.16,46.15c-.21.72-.39.43-.58-.33C50.79,45.1,51,45.39,51.16,46.15Zm7,23.22c.37.84-.12,2.19-.35,1C58.06,69.7,57.86,69.41,58.17,69.37ZM52.55,47.64c.37-1,1.16-.53,1.22,1-.33-1.5-.72.11-1.08.09C52.85,48,52.47,48.55,52.55,47.64ZM73,109.57c-.37.27-.73.58-1.07-.42C72.31,108.55,73,108.16,73,109.57ZM42.72,8.45c-.16-.42-.75-.62-.63-1.63C42.27,6.42,42.84,7.57,42.72,8.45Zm6.72,15.27c.26,1.33.54.79.8,1.65-.31.89-.59-.6-.92,1.14-.16-.74-.33-.14-.48-1.09A6.14,6.14,0,0,0,49.44,23.72ZM60.87,60.85a2.75,2.75,0,0,1,.05,2.31c-.26-.23-.32-1.58-.73-1.38C60.43,60.59,60.64,61.75,60.87,60.85ZM48.64,11.37c-.31.84-.63,1.54-.93,1.14C48,11.68,48.36,10.37,48.64,11.37Zm6.74,24.46c-.2.72-.39.42-.57-.34C55,34.77,55.2,35.06,55.38,35.83Zm-2.32-10c-.32.75-.63,1.17-.92.12C52.46,25.21,52.75,25.66,53.06,25.79Zm2.07,4.91c.43,1.07.89-.27,1.33.19-.3,1.8-.81,1-1.43,1.06-.09.36-.05.91-.25.22A4,4,0,0,1,55.13,30.7ZM62,50.06c-.43,1-.84.83-1.25.58C61.13,49.54,61.54,49.84,62,50.06ZM50.58,9.36c-.23.6-.45.37-.67.41.17-.82,0-1.69.21-2.51C50.46,8,50.29,8.64,50.58,9.36Zm-1.34.83c-.11-1.3-.32-.76-.64-1.62.57-.18,1.06-2.9,1.34-.82C49.46,8.08,49.48,9.16,49.24,10.19Zm1.39,1.48c-.16-1.07-.77.25-.65-1.12.31,0,.61-.29.9.9a1.62,1.62,0,0,0,.06,1.29c-.28.61-.56.73-.83.39C50.24,12.62,50.76,12.67,50.63,11.67Zm5.55,15.61c-.21-.56-.45.35-.65-.61C55.71,25.87,56.29,26.54,56.18,27.28Zm-1-.15c.25-.55-.24-1.22.11-1.76C55.66,25.87,55.5,27.57,55.19,27.13ZM57,32.25c.24-.9.45-.57.68-.92.2,1.12.43.86.65,1.12-.37.46-.21.52-.52,1.45-.14-1-.24-1.42-.58-.35A4.69,4.69,0,0,1,57,32.25ZM69.65,71.34c-.24,1.09-.59.57-.6,1.7,0-.18-.11-.36-.16-.54-.06.14-.11.25-.17,0C68.88,71.31,69.3,70.6,69.65,71.34Zm10.18,37.71c.21.41.42-.2.4.83C80,110.9,79.59,109.8,79.83,109.05ZM51.39,10.51c-.25.07-.49-.22-.73-.87C50.88,8.31,51.47,10.09,51.39,10.51ZM68,62.43c-.34.57-.67.53-1-.15Q67.49,61.41,68,62.43ZM54.59,12.77c-.17-.35-.1.37-.26.72-.35-.28-.35-1.78-.82-.63,0,.87.48.7.22,1.82-.33,0-.52-.51-.64-1.63C53.56,11.68,54.44,11.17,54.59,12.77Zm11,40.13c.35.42.73-1,1.07.42-.32,1-.62.49-.93,1.13A2.41,2.41,0,0,1,65.64,52.9ZM59.46,29.3c.17.1.33.39.48,1.09C59.7,31.54,59.21,30,59.46,29.3ZM55.82,13.21a3.75,3.75,0,0,0-.18,1c-.16-.1-.32-.4-.48-1.09C55.39,12.53,55.61,12.56,55.82,13.21Zm5.29,16.84c-.25.05-.52,1.64-.76.65C60.61,30,60.87,29.72,61.11,30.05Zm2.33,4.68c-.34,1.19-.43-.3-.6,1.19a4.41,4.41,0,0,1-.23-1.31C62.9,33.69,63.18,33.73,63.44,34.73ZM61.63,34c.31,1.11.67-.92,1,.65C62.31,36,61.61,35.24,61.63,34Zm-4.7-17.53c-.24,1.29-.44.09-.65-.61C56.51,15,56.71,16.2,56.93,16.43Zm5.32,14.82c-.24,1-.45.24-.67.4C61.6,30.48,62,30.3,62.25,31.25Zm1-1.89a4.85,4.85,0,0,0-.7,2.44c-.3,0-.19-.88-.3-1.57.23-.89.45-.57.67-.92-.1-.28-.33-.17-.23-.8.51-.5.72.51,1,1.43a4.05,4.05,0,0,1-.27,1.23C63.17,30.53,63.39,30,63.27,29.36Zm1.2,3c-.57.92-1.12.7-1.66.26C62.92,30.21,63.92,31.44,64.47,32.34ZM56.81,8.51c-.42.4-.83-.28-1.24-.44C56,7.58,56.41,7.37,56.81,8.51Zm2.36,8c0,.67-.09,2-.44,1.21C58.74,17.42,59,16,59.17,16.51Zm-.49-5.93c.45.66-.35,1.14-.11,1.77s.46-1,.66.09c-.46,1.12-.89.55-1.33.32C58,11.66,58.47,12.21,58.68,10.58Zm6.4,24.91c.57-1.5,1.11.93.88,2.42A4.63,4.63,0,0,0,65.08,35.49Zm.14-3.29c-.15.4-.29.8-.44,1.21a2.43,2.43,0,0,1-.15-1C64.82,33.15,65.05,30.76,65.22,32.2ZM62.1,19.5A2.81,2.81,0,0,1,62,21.27c-.1-.33-.22-.06-.32-.56C61.82,20.31,62,19.9,62.1,19.5Zm-1.31-6.06a5.79,5.79,0,0,1-.13,2.78C60.29,15.25,60.48,13.52,60.79,13.44Zm4.06,15.9c.26-1.14.66.34.64,1.11C65.07,31.57,65.2,30.17,64.85,29.34ZM62.2,13.4c.13.48.26.77.4.82-.41.56-.48-.49-.76,1.16-.11-1.62-.41-.36-.73-1.38C61.49,13.1,61.82,14.38,62.2,13.4Zm2.27,2.89c-.49-1.84-1.49.36-1.71-1.54C63.24,14.94,64.58,13.54,64.47,16.29ZM64,16.21c-.17.49.1,1-.19,1.5-.13-.28-.27-.16-.4-.82C63.76,16.57,63.62,15.69,64,16.21Zm2.9-.33c.18,1,.39-.15.57.85-.23.47-.45.77-.67.41C66.89,16.73,66.8,16.29,66.88,15.88Zm7.18,17.89c-.29.08-1.15,1.12-.9-.89C73.4,34,74.1,32.69,74.06,33.77Zm8,27.7c.38.75-.11,2.25-.35,1.48C82,62.48,81.76,61.94,82.07,61.47Zm-8.24-29c-.2.72-.39.07-.57-.34.22-.42.22-2.13.44-1.71A14.29,14.29,0,0,0,73.83,32.46Zm.29-2.25c.41.78,0,2.54-.28,1.75A3.12,3.12,0,0,1,74.12,30.21ZM70.91,17.76c.23,1.49.51-.37.74.87-.43.79-.84.63-1.26.58C70.57,18.72,70.74,18.24,70.91,17.76Zm3.24,10.42-.35,1-.24-.8C73.77,27.34,74,28,74.15,28.18Zm1.41,5.31c.44-1.23.35.9.81,1.13C76.08,35,75.56,34.47,75.56,33.49Zm1,1.43c.1.35.21.71.31,1.07-.18.88-.78,1.14-.66-.1C76.47,36.51,76.58,35.15,76.61,34.92Zm8.12,26.44c-.2.14-.38-.51-.57-.85a3.34,3.34,0,0,1,3.46,1c-.36,1.82-.64-1-1,.36.21.64.42.37.23,1.31-.36,0-.19-1.11-.55-1.87-.38,1.23-.7-.77-1.09.61.22.25.45,0,.65,1.11-.18.69-.33,0-.51,1-.3-.43.1-2-.31-1.58-.25.55.24,1.22-.11,1.77-.17.14-.33-.12-.49-.59A14.13,14.13,0,0,0,84.73,61.36ZM75.61,29.93c.37,1.47.77.33,1.14,1.19-.23,1,0,1.89-.45,2.22-.38-.73-.07-1.37-.13-2.05-.25.27-.5-.1-.76.65A2.59,2.59,0,0,1,75.61,29.93ZM72.8,18.8c-.29.79-.58,1.83-.84.9C72.24,19.33,72.54,18,72.8,18.8Zm5.88,21.52c-.12.32-.23.65-.35,1-.08-.27-.16-.53-.23-.8C78.3,39.79,78.5,39.55,78.68,40.32Zm2.57-5.73c.15-.19.28-.15.41.32-.61,1.24-.88-2-1.2-2.48-.14.41-.29.81-.43,1.21-.61-1.61-1.25-1.43-1.89-1a6.64,6.64,0,0,1-.54,2.47c0-2-.32.64-.65-.61a15.89,15.89,0,0,0,1.3-3.63c.5,2.33,1.48,0,2.16-.19-.09.5-.54.94-.36,1.48.31-.69.61-.36.93-1.14-.11-.28-.33-.17-.24-.8.3.91,1.06-.66,1.07.92-.4-.74-1,1.12-.7,2.45.06-1.84,1.13-.66,1.15.17C82,33.62,81.07,32.74,81.25,34.59Zm.37-2.49c0-.57.38-1.21.6-1.19-.16.79.38.27.48,1.09C82.33,32.86,82,32.33,81.62,32.1ZM72.8,19.31c.41-.28.83,0,1.23.44C73.63,20.2,72.9,20.76,72.8,19.31ZM76,28.72c-.16-.32-.34.53-.48-.59C75.7,26.83,76.2,28.08,76,28.72Zm1.56,1c-.21.68-.83,1-.74-.36C77.1,29.8,77.36,29.26,77.6,29.71Zm-2.82-10.1c0,.75-.44,1.27-.67.41C74.34,19.13,74.56,19.36,74.78,19.61ZM88.52,62.44c-.08,1.13-.5.11-.44,1.71C87.68,63.38,88.28,61.64,88.52,62.44Zm.91-.12c0,1.12-.43.72-.69,1.93-.08-.26-.16-.53-.23-.8C88.82,62.67,89.14,61.5,89.43,62.32Zm-9.6-32c-.2.18-.84,1-.74-.36C79.33,30.26,79.59,29.53,79.83,30.3Zm-1.44-8.12c-.21.72-.41.95-.59.17C78,21.64,78.2,21.41,78.39,22.18Zm4.79,11.43c.22.13.44,0,.66.09-.28.85-.3,1.82-.69,1.43C83.31,34.64,83,34.08,83.18,33.61Zm1.7,2.54c.13.48.26.78.4.82l-.18.49a.69.69,0,0,1,0,.51c-.45-1.23-.13,1.08-.36,1.47-.19-.4-.39.21-.57-.84A18.4,18.4,0,0,0,84.88,36.15ZM84,31.43a3.07,3.07,0,0,1,.22,1.31c-.37-.53-.78.89-1.14-.69C83.47,31.32,83.69,32.47,84,31.43Zm23.51,79.71a2.55,2.55,0,0,1-.19,2,.91.91,0,0,0-.33-.56C107,111.92,107.25,111.09,107.47,111.14Zm-14.3-49c.28-.49.55-.22.82.64-.27.89-.32,2.81-.78,1.66C93.47,63.41,93.66,62.59,93.17,62.11ZM86.77,37.2c-.32,0-.38-.91-.31-1.58-.6,1.12-1.61.45-1.88-1.55.68,1.25,1.5.67,2-.22a5.42,5.42,0,0,0,.13,2.07c0-1.1.08-1.18.44-1.21A3.69,3.69,0,0,1,87.2,36c.19-1.35.19-.42.5-.44-.22-1.08.29-1.24.51-.43,0,.88-.36.58-.61,1.7C87,36.45,87,35.7,86.77,37.2ZM80.83,14.4c.42,1.11.77-1.28,1-1.38.34,1.35-.17,1.11-.37,2.49-.15-1-.33.07-.5.44A2.42,2.42,0,0,1,80.83,14.4Zm5.84,18.2c.35.51.71.57,1.06.92-.25.5-.5.74-.75.65C87.14,33.8,86.31,33.9,86.67,32.6ZM83.74,18.91c0,.67-.38,1.91-.6,1.18C83.34,19.82,83.56,18.35,83.74,18.91Zm-.42-5.16c-.2.93-.39.25-.6,1.18.21.64.42.37.23,1.31-.24-.36-.93.07-.89-1.41C82.43,14.14,82.81,12.82,83.32,13.75Zm5.3,21.68c.12,1.23.71-.58.56.85C89,36.53,88.35,37,88.62,35.43ZM87,25.77c-.34.32-.67.11-1,.36C86.07,25.43,87,24.51,87,25.77ZM84.12,15.9a3.45,3.45,0,0,0-.18,1c-.19-.53-.82-.35-.73-1.38C83.5,16.3,83.83,14.76,84.12,15.9Zm8,19.55c-.53.68-1.35.55-2,.72A3,3,0,0,1,90.15,38c-.07-2.17-.34-.58-.8-1.65a4.55,4.55,0,0,0,.46-2.74C90.31,36.46,91.32,34.26,92.1,35.45Zm20.75,76.24c-.27-.44-.57,1.06-.83-.12C112.26,111.19,112.92,110.49,112.85,111.69ZM99,62.73c.15.84.32.87.5.08.3,1.6-.58,3.32-1,2.39A4.15,4.15,0,0,0,99,62.73ZM85.76,16.66c-.5.53-1-.2-1.48-.22.08-.24.17-.48.26-.73C84.94,16.45,85.36,15.93,85.76,16.66Zm7.61,27.39c-.33-.14-1.1.23-1.14-1.2C92.55,43.54,93.34,42.25,93.37,44.05Zm-.75-5.21c.43,1.17.88.27,1.31,1.21-.49,1.11-1.38.33-1.57-.48C92.51,39.92,92.61,39.22,92.62,38.84ZM86.43,16.25c-.14.4.17.87.07,1.28-.22-.55-.45.35-.66-.61C86.05,16.29,86.25,15.7,86.43,16.25Zm1.56,1c-.29,1-.56.83-.83.38C87.44,17.4,87.73,16.61,88,17.25Zm4.77,18.29c.49-1.1.56.17.89,1.42a3.48,3.48,0,0,0-.27,1.22c0-.17-.11-.35-.16-.53C93.39,36.43,93.17,36,92.76,35.54Zm-5.54-22c.44.37.9-.7,1.32.71-.44.18-.33,1.86-.7,1.94-.44-.6,0-2.34-.3-2.09-.13.58.07,1.2-.27,1.74A6.37,6.37,0,0,1,87.22,13.56Zm1.93,3.86a4.07,4.07,0,0,1-.36,1.48c-.2-1.26-.44-.17-.64-1.12l.17-.48C88.56,18.33,88.74,17.11,89.15,17.42Zm6.41,19c-.39-.1-1.5,2.17-1.32-.19C94.66,37.43,95.14,35.2,95.56,36.47ZM98,40.91c-.23.48-.46.77-.67.41C97.32,40.56,97.75,40,98,40.91Zm.12-2.78c-.5-.64-1.78,1.12-1.71-1.53C96.89,38,97.88,36.58,98.1,38.13Zm2.8,6.78c-.24.89-.46.66-.67.41C100.24,44.52,100.66,44.34,100.9,44.91ZM100.38,41c.43,2.22.93.51,1.38,1.47-.29,1.54-1.2.11-1.74,0C100.26,42,100.07,41.48,100.38,41Zm.18-1c.46,1.44.56-1.84,1.09-.6-.47.81-.24.59-.45,1.72C101,41.18,100.29,41.41,100.56,40Zm2.8.93c-.26,1-.51,1-.76.65C102.63,40.67,103.12,39.61,103.36,41Zm-5.24-19.9c-.29,1.32-.56.49-.83.39C97.57,21.21,97.86,20.41,98.12,21.05ZM98,20c-.18.76-.77.43-.65-.61C97.53,20.07,97.78,18.65,98,20Zm1.2,3c-.15.49.21,1.05.14,1.56-.2.7-.4.94-.58.16C99,24.3,98.74,22.54,99.17,23Zm0-5.35a7.9,7.9,0,0,0-.28,2.26c.2-.5.38.15.56.84-.42.63-.86,2.11-1.26,1.09C98.84,20.69,98.41,16.34,99.17,17.64Zm7.18,28.09c-.16,1.09-.71.61-.57-.34C106,45.8,106.18,44.66,106.35,45.73Zm-6-24.09c-.2.71-.4.94-.58.17C100,21.1,100.17,20.87,100.35,21.64ZM105.45,40c.39-.18,1.12-.45,1.23.95.31-.8.86.67.92-1.14l.32,1.07c-.23.93-.42.24-.43,1.21-.47-.71-.71-.76-.85.89-.34-.56,0-1-.14-1.55l-.43,1.21C105.68,41.11,106.1,40.41,105.45,40Zm3,2c.44,1.58-.59,2.53-.85,1.4.1-.41,0-.85.1-1.26C108.19,42,108,44,108.4,42Zm.94-1.65a4,4,0,0,1-.3,2.76c-.13-.4-.28.41-.41-.31C109,41.11,109.11,42.16,109.34,40.31Zm2,6.16c-.25.44-.51,1-.75.14C110.83,45.76,111.07,45.76,111.31,46.47Zm22.94,63.83c.21-.5.84-.93.74.36-.21-.65-.51.27-.51.94A4.35,4.35,0,0,1,134.25,110.3ZM115.84,43.07c.46,1.57-.84,3.3-.76,1.16C115.42,44.94,115.4,43.19,115.84,43.07ZM135.58,110c.45-.44,1.34-1.24,1.48.72-.58-.84-.27,1.26-.53,2a10.9,10.9,0,0,1-.2-2.83C136.05,111,135.57,111.43,135.58,110Zm2.57.12c-.22-.25-.45.46-.66-.1C137.46,108.42,138.47,108.9,138.15,110.11ZM115.92,22.44c-.29.58-.56.54-.83-.13C115.38,21.2,115.65,21.84,115.92,22.44Zm1.51-1.31c.24-1.95.39,0,.66.1a7.25,7.25,0,0,1,.38-3c.39,1.16-.52,2.13-.14,3.29a4.75,4.75,0,0,1,.27-1.23,2,2,0,0,1,.47,1.6c-.46-.94-2.26,3.53-1.81-.28-.34-.06-1.12,1-1.15-.67C116.31,20,117.26,19.82,117.43,21.13Zm.53-2.46c-.42.84-.83.65-1.25.57C117.14,18.56,117.56,17.76,118,18.67Zm25.71,88.19c.35.71,1.18-1.46,1.23.44C144.52,107.1,143.76,108.81,143.67,106.86Zm-24.2-89a3.27,3.27,0,0,1,.23,1.31c-.4-.85-.58-.62-.76.65C118.7,18.35,119.16,18.3,119.47,17.87Zm1.53,3c.17,1,.39-.51.56.85C121.32,22.28,120.73,21.9,121,20.9Zm-.58-5.69a2.41,2.41,0,0,1,.14,1.55c-.1-.28-.2-.8-.32-.56s-.17.47-.25.22C120.13,16,120.28,15.61,120.42,15.21ZM147.81,107a4.05,4.05,0,0,1-.27,1.23c-.17-1.06-.38-.44-.56-.85C147.26,106.63,147.55,106.09,147.81,107ZM124,20.84c-.06.49.36.61.4.82.11-.41,0-.85.1-1.26.44-.15.57,1.26.22,2.33-.44-.3-.89-.06-1.32-.71C123.71,21.5,123.83,20.82,124,20.84Zm25.29,88.38c-.11-.35-.21-.7-.32-1.06C149.22,107,149.66,108.5,149.27,109.22Zm-23.16-87c.26-.38.51-.53.74.37-.26.82-.5.6-.74.14A.69.69,0,0,0,126.11,22.17ZM153,105.7c.18.4.38.15.56.85-.12.28.06,1.81-.26,1.23.18-.64,0-1.28-.24-.8a5.59,5.59,0,0,1,0,1.53c-.16-.53-.34.32-.49-.58C152.94,107.22,152.54,106.4,153,105.7ZM128.63,20c.36.56,1.16-.31,1.23.95-.24-.4-.5.18-.75.14.13.56.27.32.4.83a2.67,2.67,0,0,0-.6,1.69A31.68,31.68,0,0,1,128.63,20Zm26,86a10.34,10.34,0,0,1-.28,1.74C154.16,107,154.23,105.13,154.62,106ZM130.35,21.53a7.08,7.08,0,0,1,.19,3.34.83.83,0,0,0-.32-.55C130.42,23.41,129.92,22.4,130.35,21.53Zm25,85.8c-.2.71-.4.94-.58.17C155,106.79,155.16,106.55,155.34,107.33Zm-23.9-86.4c-.45.22-.9.57-1.33-.2.48-.21.58-.67.92-.62a1.38,1.38,0,0,0,.07.77C131.22,20.62,131.33,20.39,131.44,20.93Zm.64,1.12a6.14,6.14,0,0,0,.06,1.28c-.48,1-.95.73-1.41,0,.28-.64.09-1.34.37-2C131.42,21.87,131.76,21.49,132.08,22.05Zm25.36,83.81a4.23,4.23,0,0,0-.45,2.22c-.24-.7-.5.06-.74-.36.49-1.59-.22-1,0-2C156.65,106.71,157.06,105.36,157.44,105.86ZM132.7,19.33c.17.46.08.87.23,1.31a6.15,6.15,0,0,0,.1-.75,1.87,1.87,0,0,1-.11,1.77c-.11-.28-.21-.8-.33-.56a1.63,1.63,0,0,1-.18,1l-.23-.8A4.1,4.1,0,0,0,132.7,19.33Zm1.11,3.74c.28-.6.54.13.82.12C134.34,24.42,133.8,24.58,133.81,23.07Zm1.85-1.76c.25-.17.5-.74.74-.15-.24,1.18-.44.22-.67.41a1.5,1.5,0,0,1,.07.78A3.82,3.82,0,0,1,135.66,21.31Zm1.87,2.06c-.27-.58-.56.35-.82-.63C137,22.09,137.6,22.14,137.53,23.37Zm-.17.48c.08.16.16.11.25-.21a2.54,2.54,0,0,1,.14,1.55c-.13-.33-.28-.06-.41-.32C137.45,24.55,137.28,24.18,137.36,23.85Zm1.89.54c-.46,1.18-.9,1-1.33.31C138.38,23.64,138.8,24.83,139.25,24.39Zm.3-2.76c-.19,1.75-.71,1.44-1.1,1.11C138.83,21.66,139.2,20.9,139.55,21.63Zm2,3.61a5.08,5.08,0,0,0,.23,1.31c-.38.9-.74,1.35-1.08.1C141.14,26.6,141.54,25.92,141.56,25.24Zm4.94-3.08c-.21.69.25.13.31,1.06-.16.79-.7-.11-.57-.84C146.41,22.82,146.34,21.82,146.5,22.16Zm34.11,1.52c.22.42.44.17.65,1.12-.35,1.11-.69,1.23-1,1.38-.08-.27-.16-.53-.23-.8C180.48,24.87,180.4,25.09,180.61,23.68Zm2.71,1.69c-.34-1.29-.85.8-.72-1.39C182.79,24.61,183.42,24,183.32,25.37Zm31.5,77.84c-.79,1.71.81.59,0,3.05-.26-1.14-.18-1.21-.56-1.36C214.29,104.2,214.45,102.4,214.82,103.21Zm-.87,2.93c-.11-.28-.21-.8-.33-.56-.12.51,0,2.35-.36,2a7.26,7.26,0,0,0,0-1.8c.44-.18.42-2.33.86-2.42A5.83,5.83,0,0,1,214,106.14ZM191.46,24c.26-.69.5-.29.75-.15,0,.88-.36.58-.61,1.7C191.32,25,191.62,24.56,191.46,24Zm24.61,79.11a13.81,13.81,0,0,1,.12,2.56c-.21-.54-.46,1-.66-.09C215.78,104.34,215.83,104.52,216.07,103.14ZM193.18,25.05c-.39-.55-.31,1.16-.66.41C192.44,24.87,193.31,23.37,193.18,25.05Zm23.13,78.38c.17-.57.34-.55.49.07-.09.62-.18,1-.34,1A1.84,1.84,0,0,0,216.31,103.43Zm1.22-82.64c-.29-.85-.62.73-.91.11C216.89,19.58,217.57,19.48,217.53,20.79Zm1.33-.32c-.41-.15-.83.43-1.23-.44C218.05,19.07,218.47,19.08,218.86,20.47Zm.6-1.18c-.12.32-.23.64-.35,1-.08-.27-.15-.54-.23-.8C219.09,18.45,219.27,19.11,219.46,19.29Zm26.17,43.16a4.21,4.21,0,0,1-.21,2.51c-.4.62-1,.49-1.6,1.55a2.3,2.3,0,0,1-.15-1.05A9.29,9.29,0,0,1,245.63,62.45Zm2.23.07a4,4,0,0,1,.14,1.55c-.55.19-1.12,1-1.67.77C246.85,63.9,247.35,63.47,247.86,62.52ZM234.59,15.94c-.07,1-.7,2-1,1.38C233.93,16,234.26,16.2,234.59,15.94Zm15.79,44.41c-.73,1.27-1.35,1.72-1.72,3.82-.1-.35-.2-.71-.31-1.06C248.85,62.61,249.46,59.3,250.38,60.35ZM240.51,8.67c.14-.44.29-.69.42-.7.41,1.25-.3,2.33.28,3.61-.31.17-.63,1.32-.91.12C240.83,11.81,241,10.09,240.51,8.67Zm16,53.1a6.34,6.34,0,0,1,0,2c-.19-.41-.39.21-.57-.85C256.1,62.38,256.28,62.7,256.49,61.77Zm-3.06-21.1c.23.34.4-1.44.52-2,.35.56.06,1,.15,1.55.08-.13.16-.06.24.29-.42.23-.77,0-.61,1.69C253.53,42.24,253.4,41.34,253.43,40.67Zm-3-24.66c-.18-.77-.4.73-.58-.34C250,14.58,250.56,15.05,250.42,16Zm2.31.34c-.42.76-.85,1.45-1.25.58C251.9,16.89,252.33,15.44,252.73,16.35Zm1.65.76c-.23.47-.46,1-.66-.1C254,16.43,254.17,16.46,254.38,17.11ZM254.29,12c.21.85.3.86.33.05.37.88-.38,1.85-.51.95A3.45,3.45,0,0,0,254.29,12ZM269,23.11c0,.93-.44,1.5-.68,1.42C268.27,23.85,268.72,22.34,269,23.11Z"/><path class="cls-2" d="M74.47,12.68c-.1.47.22.26.07.78.95-2.32,1.83-.31,2.76-1.38a2,2,0,0,0-2.3-.85,2.24,2.24,0,0,0,.14,1C74.92,12.32,74.69,12.93,74.47,12.68Z"/><path class="cls-2" d="M17.38,96.67c.27.7.56-.44.84-.38C17.94,96.13,17.68,95.65,17.38,96.67Z"/><path class="cls-2" d="M32.36,92.79A4.37,4.37,0,0,0,32.09,94c.14.3.28-.38.43-.69a3.49,3.49,0,0,0,.15,1C32.88,93.42,32.57,93.34,32.36,92.79Z"/><path class="cls-2" d="M20.47,53.55c-.34.26.52.25.47,1.6a9.46,9.46,0,0,0,.11-1.77C20.7,52.55,20.82,54.38,20.47,53.55Z"/><path class="cls-2" d="M25.68,69.62a2,2,0,0,0,0,1.52c0-.66.21-.89.42-.69C26.27,69.8,25.77,70,25.68,69.62Z"/><path class="cls-2" d="M24.79,63.37a3.71,3.71,0,0,0-.07-1.28,4.05,4.05,0,0,0-.35,1.47c.16.48.34-.61.5.08C25,63.31,24.83,63.24,24.79,63.37Z"/><path class="cls-2" d="M36.21,101c.28,1.2.21-.61.34-1,.25-.56,0,.8.32,1.07.46-1.42.9-1,1.33-.31.09-.5.1-1,.19-1.5-.37.74-1.15.9-1.74,0C36.45,100.42,36.22,100.14,36.21,101Z"/><path class="cls-2" d="M24.06,57.14c1-.21,1.67.27,2.67-1.12-.12-.51-.36-.28-.24-.81-.36-.52-.22.37-.59.68.08-1.28-1.24-.43-.89-1.41C24.81,53.49,24.23,55.91,24.06,57.14Z"/><path class="cls-2" d="M40.46,110.06a1,1,0,0,0,1.73.51C41.61,110.46,41,110.16,40.46,110.06Z"/><path class="cls-2" d="M13.57,13c0,.93-.29.4-.52,1.45.52.59.51-.32.75-.65C13.9,13.34,13.67,13.57,13.57,13Z"/><path class="cls-2" d="M26.21,57.47c.3-.24.6.45.92-.63C26.84,55.62,26.51,57.26,26.21,57.47Z"/><path class="cls-2" d="M39.59,96.42c-.23.39,0,.85-.1,1.26.19.48.39-.11.58-.17C40.24,96.77,39.7,97.82,39.59,96.42Z"/><path class="cls-2" d="M21.87,27.76A1.71,1.71,0,0,0,21.8,27c.18-.69.33,0,.51-.94-.33-.42-.65-1-1,.36C21.62,27,21.74,26.37,21.87,27.76Z"/><path class="cls-2" d="M30.89,43.9c.44-.64.36.6.82.62.21-1.16.17-1.18.37-2C31.7,43.17,31,43,30.89,43.9Z"/><path class="cls-2" d="M48.88,101.63c-.14-.95.44-.38.35-1.48-.18-.77-.4.73-.57-.34.06,1.07-.4,1.51,0,3,.23-.47.45-.77.67-.41C49.46,101.81,49,102,48.88,101.63Z"/><path class="cls-2" d="M50.35,102.87c.37.88.79-1,1.15.68.28-.92-.22-.7-.07-1.29C51.07,102.5,50.72,102.3,50.35,102.87Z"/><path class="cls-2" d="M52.1,101.86c-.15-.45-.06-.86-.22-1.31-.48.6-1,.31-1.41-.47.06,2.15.88.56,1.21,2.48.3-1.27.56-.4.82.63.49-.33.5-.93.93-1.65-.16-.27-.32-.31-.48-.58-.24.39,0,.86-.11,1.26-.08.14-.16,0-.25.22-.08-.53.21-1-.14-1.55C52.23,100.94,52.14,101.19,52.1,101.86Z"/><path class="cls-2" d="M30.49,1.27c-.08.33,0,.4.08.27a1.84,1.84,0,0,1,.15,1c.13.29.28-.38.42-.7C30.93,1.46,30.71,1.53,30.49,1.27Z"/><path class="cls-2" d="M38.4,9.33c-.15.64,1.05,2.12,1.48.74-.12-.25-.66.6-.49-.59C39.07,8.83,38.71,10.71,38.4,9.33Z"/><path class="cls-2" d="M42.56,13.78c.33.51.47,2.41,1,1.16-.07-2-.91-.44-.78-2.66C42.37,12.73,42.93,13.32,42.56,13.78Z"/><path class="cls-2" d="M58.24,54.09c-.19,1,.31.44.41.83.16-.36.08-1.08.26-.73a.69.69,0,0,0,0-.51l-.15-.53c.08.38-.43,1.82-.26.73C58.34,53.55,58.41,54.53,58.24,54.09Z"/><path class="cls-2" d="M51.86,17.46c0,.94.7.76,1,1.17a5.93,5.93,0,0,0,.78,3.17c0-1.44-.22-2.92-.35-4.38C53.17,20,52.75,17,52.2,17,52.16,17.65,52.07,17.88,51.86,17.46Z"/><path class="cls-2" d="M54.51,22.7c.1,1.06.93.71,1.31,1.21.26-.89-.57-.52-.31-1.57C55.36,22.64,54.88,23.54,54.51,22.7Z"/><path class="cls-2" d="M53.75,18.5c-.34.61,0,.91.16.54A2.55,2.55,0,0,1,54,20.32c.13.27.28,0,.41.32-.15-.45-.24-2.16.26-.73a3.22,3.22,0,0,0-.23-1.3C54.18,19.19,54,19.15,53.75,18.5Z"/><path class="cls-2" d="M58,20.41c-.14-.26-.28,0-.41-.32-.33.55.05,1.2-.28,1.75C57.53,21.78,57.54,21.15,58,20.41Z"/><path class="cls-2" d="M61.76,9.76c0,.93-.12.29-.35,1,.31.64-.2,1.16.22,1.82.09-.24.18-.49.26-.73-.14-.69-.28-1.45.19-1C62.28,10.14,61.82,10.7,61.76,9.76Z"/><path class="cls-2" d="M67.6,28.47c-.21-.34,0,.67.07.27a3.8,3.8,0,0,1-.18,1.5c.26.35.64-1.41.36-2C67.76,28.58,67.68,28.63,67.6,28.47Z"/><path class="cls-2" d="M76.69,61.43c.1.26.13-.09.09-.24.26-.8.47,1.39.74-.14-.25-1.32-.54-.4-.82-.64C76.63,60.75,76.8,61.11,76.69,61.43Z"/><path class="cls-2" d="M70.63,9.3c-.31-1.09-.64-1.09-1-.65.36,1.48.75,1.09,1.12,2.2.21-1.77.76-.71,1.19-1.35C71.87,9.58,70.74,7.87,70.63,9.3Z"/><path class="cls-2" d="M71.68,11.25c.44.25.9-.95,1.32.19.12-2.85,1.3.83,1.92-.48a6.15,6.15,0,0,1-.07-1.28c-.36.18-.74,1.42-1.07-.41-.54.91-1,.11-1.57,0a3.08,3.08,0,0,0,.23,1.31C72.18,11,72,10.08,71.68,11.25Z"/><path class="cls-2" d="M70.86,5.26c.08,2.7,2,2.76,2.38,1.63C72.47,6.6,71.33,7.64,70.86,5.26Z"/><path class="cls-2" d="M77,9a2.3,2.3,0,0,0,1,.66C78,8.6,77.3,8.75,77,9Z"/><path class="cls-2" d="M81.47,10.66A2.26,2.26,0,0,0,84,11.81c-.33-1.48-.7.1-.81-1.65-.08,1.83-.66-.39-1,.87-.3-.74.26-1.77-.22-1.81C82.12,10.58,81.88,10.84,81.47,10.66Z"/><path class="cls-2" d="M81.34,8.1c0,1.39.71.33,1,.66.18-.94-.32-.36-.4-1.34C81.63,8.45,81.71,8.73,81.34,8.1Z"/><path class="cls-2" d="M84.18,11.84c.57.87,1.14,1.15,1.73,1C85.68,9.68,84.73,11.4,84.18,11.84Z"/><path class="cls-2" d="M93.08,15.2c.24.27.49,0,.91-.11-.08-.27-.16-.54-.23-.8C93.52,15.47,93.31,14.31,93.08,15.2Z"/><path class="cls-2" d="M97.85,12.09c-.17.49-.35,1-.52,1.46.42.44.45-1.61.92-.63C98.44,12.27,97.94,12.48,97.85,12.09Z"/><path class="cls-2" d="M102.63,13.83c.11,2.42.51-1.21.89,1.4a3.83,3.83,0,0,1,.18-1C103.36,13,103,14.06,102.63,13.83Z"/><path class="cls-2" d="M110.5,14.23c-.22-.34-.06.67.07.27a5.81,5.81,0,0,1-.11,1.77c.28.15.57-1,.83.12.37-2.46.8-.8,1.26-1.08.38-.46-.19-1.05.19-1.51-.48.63-.93-.51-1.42.56-.15-.45-.06-.86-.23-1.31C111.09,13.87,110.72,14.3,110.5,14.23Z"/><path class="cls-2" d="M124,17c.42,1.21.9-1.28,1.32.2a3.24,3.24,0,0,0-.23-1.31C124.67,17.4,124.34,15.5,124,17Z"/><path class="cls-2" d="M132.67,16.53c0,1,1,1.19,1.07.41C133.38,16.72,133,17.24,132.67,16.53Z"/><path class="cls-2" d="M140.85,22.85c.14-.66.12-1.35.2-2-.22-.37-.44-.07-.67.4.15.89.33,0,.5.08C141,21.86,140.34,21.79,140.85,22.85Z"/><path class="cls-2" d="M172.79,20.22c-.06,1.37.6.43.81,1.14a.64.64,0,0,0,0-.51l-.15-.53C173.22,21.05,173,20.18,172.79,20.22Z"/><path class="cls-2" d="M201,113.63c.46.26.93-.08,1.4.47.21-1.49.82-.69,1.25-.58a6.15,6.15,0,0,1,.09-.75.69.69,0,0,1,0-.51C202.81,113.22,201.91,112.55,201,113.63Z"/><path class="cls-2" d="M221.15,12.15c.44-.61-.09-1.37.36-2-.08-.16-.17,0-.24-.29l-.18.48C221.52,11,220.72,11.49,221.15,12.15Z"/><path class="cls-2" d="M224.85,14c.44,1.51,0-2,.43-1.21.16-.9-.36-1-.5-.08A1.67,1.67,0,0,1,224.85,14Z"/></g></g></svg>